<svg width="20" height="24" viewBox="0 0 20 24" fill="none" xmlns="http://www.w3.org/2000/svg">
<path d="M19.3115 16.0844C18.6418 15.7989 18.0713 15.3231 17.6713 14.7164C17.2713 14.1097 17.0595 13.399 17.0624 12.673C17.0711 12.025 17.2452 11.3899 17.5684 10.8275C17.8916 10.2652 18.3531 9.79412 18.9096 9.4588C19.0355 9.38126 19.1443 9.27909 19.2295 9.15845C19.3146 9.03781 19.3743 8.90122 19.405 8.75692C19.4357 8.61263 19.4367 8.46364 19.4079 8.31895C19.3792 8.17426 19.3213 8.03688 19.2378 7.91513C18.7376 7.19016 18.0854 6.58202 17.3265 6.13267C16.5675 5.68332 15.7197 5.40347 14.8416 5.31245C15.6588 4.01984 16.0297 2.49641 15.8977 0.974256C15.872 0.697859 15.7398 0.442155 15.5289 0.2608C15.318 0.0794461 15.0449 -0.01346 14.7668 0.00157786C12.8872 0.168532 11.1448 1.05203 9.90289 2.4679C9.1156 3.37707 8.56005 4.46213 8.28339 5.63097C7.71178 5.43818 7.11334 5.33609 6.50994 5.32841C5.39285 5.35996 4.30289 5.67864 3.34574 6.25354C2.38859 6.82844 1.59672 7.64007 1.04692 8.60971C-1.01943 12.1851 0.244647 17.5428 2.48308 20.7677C3.38102 22.06 4.72848 24 6.76114 24C6.80123 24 6.84185 24 6.88247 23.9978C7.56353 23.9593 8.23029 23.7874 8.84459 23.4918C9.33526 23.2439 9.87661 23.1119 10.4267 23.1061C10.944 23.1124 11.4527 23.2386 11.9126 23.4747C12.5845 23.7916 13.3168 23.9612 14.0601 23.9722C16.1543 23.9328 17.3911 22.1324 18.2944 20.8166C19.0071 19.7715 19.5648 18.6294 19.9502 17.4256C20.0324 17.1629 20.0123 16.8791 19.8939 16.6305C19.7756 16.382 19.5676 16.187 19.3115 16.0844ZM11.5603 3.89231C12.1353 3.25138 12.8557 2.75679 13.6614 2.44981C13.4851 3.31409 13.0951 4.12082 12.5267 4.79681C12.1409 5.25814 11.6715 5.64305 11.1429 5.93147L11.1397 5.93256C11.1087 5.94534 11.0777 5.95706 11.0467 5.96985C10.8425 6.04975 10.5902 6.14883 10.3957 6.21274C10.5835 5.35453 10.9839 4.55682 11.5603 3.89231ZM16.4878 19.5852C15.608 20.8657 14.9159 21.7745 14.0201 21.7905C13.587 21.7891 13.1613 21.6796 12.7817 21.4719C12.0478 21.1156 11.243 20.9284 10.4267 20.9243C9.58205 20.9285 8.74887 21.1196 7.98728 21.4836C7.617 21.672 7.21304 21.7857 6.79857 21.8181H6.76597C5.87603 21.8181 4.91877 20.4406 4.28326 19.5254C2.69314 17.2349 1.2265 12.6709 2.94436 9.6985C3.30459 9.05529 3.82553 8.51581 4.45664 8.13241C5.08774 7.74901 5.80758 7.53471 6.54629 7.5103L6.58316 7.50921C7.20632 7.56199 7.81484 7.7262 8.37959 7.99396C8.52338 8.05041 8.66501 8.10688 8.80558 8.15908C8.84139 8.17401 8.87827 8.18785 8.91568 8.19957C9.30523 8.35571 9.719 8.44331 10.1386 8.45846C10.7327 8.4114 11.3131 8.25575 11.8506 7.99928C12.6084 7.63275 13.4414 7.4471 14.2836 7.45701C15.1845 7.49214 16.0494 7.81904 16.7471 8.38815C16.1508 8.93565 15.6761 9.60142 15.3533 10.3427C15.0306 11.0839 14.8671 11.8842 14.8732 12.6922V12.6933C14.867 13.6715 15.1099 14.6352 15.5791 15.4943C16.0484 16.3535 16.7287 17.0799 17.5563 17.6057C17.2681 18.2998 16.9101 18.963 16.4878 19.5852Z" fill="#219913"/>
</svg>
