<svg width="602" height="355" viewBox="0 0 602 355" fill="none" xmlns="http://www.w3.org/2000/svg">
<path d="M543.07 276.089C527.704 276.089 427.789 224.349 340.19 254.369C243.21 287.601 162.12 269.457 154.82 270.304C140.243 272.024 113.635 275.307 124.509 282.498C130.063 286.251 148.341 286.251 165.463 288.908C187.907 292.348 185.593 296.1 151.812 296.1C127.749 296.1 72.6811 300.008 56.2533 303.604C34.7353 308.45 21.3154 314.86 21.3154 322.052C21.3154 336.747 78.2341 348.785 148.341 348.785C148.341 348.785 460.237 350.974 494.481 350.974C542.145 350.974 532.427 322.052 505.587 322.052C486.614 322.052 488.928 304.386 545.615 304.386C580.322 304.386 584.487 276.089 543.07 276.089Z" fill="#B3E5FC"/>
<path d="M128.435 125.086H106C109.647 119.647 113.631 114.421 117.933 109.435C121.265 105.533 124.784 101.732 128.435 98.0684V125.086Z" fill="#4CAF50" fill-opacity="0.1"/>
<path d="M128.434 126.729V182.585H87.6631C87.6631 182.424 87.6913 182.259 87.7034 182.098C87.7397 181.656 87.7759 181.215 87.8162 180.777C87.8606 180.262 87.9089 179.744 87.9613 179.241C88.0137 178.738 88.0701 178.123 88.1306 177.567C88.191 177.01 88.2474 176.445 88.3159 175.889C88.3844 175.332 88.4449 174.775 88.5174 174.222C88.59 173.669 88.6544 173.108 88.731 172.556C88.7915 172.095 88.8559 171.638 88.9204 171.177C89.0131 170.528 89.1098 169.875 89.2146 169.23C89.2146 169.134 89.2428 169.034 89.2589 168.942C89.9944 164.22 90.9966 159.538 92.2612 154.919C93.5851 150.073 95.2752 145.324 97.3188 140.711C99.4909 135.885 102.034 131.218 104.927 126.749L128.434 126.729Z" fill="#4CAF50" fill-opacity="0.1"/>
<path d="M128.434 154.903V182.586H87.6631C87.6631 182.424 87.6913 182.259 87.7034 182.098C87.7397 181.656 87.7759 181.215 87.8162 180.777C87.8606 180.262 87.9089 179.744 87.9613 179.241C88.0137 178.738 88.0701 178.124 88.1306 177.567C88.191 177.01 88.2474 176.445 88.3159 175.889C88.3844 175.332 88.4449 174.775 88.5174 174.222C88.59 173.669 88.6544 173.109 88.731 172.556C88.7915 172.095 88.8559 171.638 88.9204 171.177C89.0131 170.528 89.1098 169.875 89.2146 169.23C89.2146 169.134 89.2428 169.034 89.2589 168.942C89.9944 164.22 90.9966 159.539 92.2612 154.919L128.434 154.903Z" fill="#4CAF50" fill-opacity="0.1"/>
<path d="M87.5345 184.229H128.434V237.348H90.5288C90.428 237.893 90.3313 238.442 90.2265 238.991H128.434V281.83C128.366 281.81 128.305 281.787 128.241 281.764C127.161 281.357 126.089 280.927 125.017 280.466L124.332 280.171C123.257 279.687 122.183 279.175 121.108 278.635C120.733 278.447 120.358 278.251 119.988 278.051C114.022 274.867 108.602 270.832 103.916 266.086C103.779 265.959 103.65 265.825 103.513 265.702C102.86 265.026 102.22 264.342 101.599 263.644L100.914 262.876C100.18 262.019 99.4712 261.14 98.7821 260.249C98.6813 260.119 98.5846 259.988 98.4798 259.865C95.677 256.162 93.3501 252.153 91.5483 247.923C91.4919 247.796 91.4436 247.658 91.3912 247.539C90.8379 246.182 90.3474 244.812 89.9202 243.43C89.7349 242.85 89.5575 242.278 89.4044 241.675C89.348 241.499 89.2996 241.326 89.2553 241.153C86.9663 232.64 86.6963 223.796 86.6963 215.014V211.942C86.6963 208.39 86.7406 204.815 86.8051 201.244C86.8051 200.319 86.8454 199.397 86.8655 198.468C86.922 196.11 87.0026 193.753 87.1073 191.395C87.1315 190.738 87.1638 190.085 87.2 189.433C87.2 189.056 87.2202 188.68 87.2605 188.304C87.3572 186.937 87.4378 185.581 87.5345 184.229Z" fill="#4CAF50" fill-opacity="0.1"/>
<path d="M504.83 238.991H527.265C527.067 249.777 524.795 260.372 519.822 270.156C515.683 278.285 509.932 285.393 503.138 291.602V257.81H504.83V238.991Z" fill="#6C63FF" fill-opacity="0.1"/>
<path d="M527.277 237.348H504.83V192.954H516.976C523.263 206.951 527.257 222.311 527.277 237.348Z" fill="#6C63FF" fill-opacity="0.1"/>
<rect x="235.328" y="259.193" width="58.2205" height="7.59543" fill="#6C63FF" fill-opacity="0.1"/>
<path d="M293.545 282.271V289.866H248.007C246.029 288.428 244.076 286.951 242.147 285.435C240.813 284.387 239.492 283.312 238.146 282.271H293.545Z" fill="#6C63FF" fill-opacity="0.1"/>
<path d="M293.544 305.346V312.933H288.737C283.334 310.611 278.037 308.078 272.847 305.334L293.544 305.346Z" fill="#6C63FF" fill-opacity="0.1"/>
<rect x="146.456" y="214.588" width="11.4611" height="10.9208" fill="#6C63FF" fill-opacity="0.1"/>
<path fill-rule="evenodd" clip-rule="evenodd" d="M89.2109 168.935V175.182H128.434V168.935H89.2109ZM93.12 174.791H89.9202V169.319H93.1442L93.12 174.791ZM93.801 174.791H97.025V169.319H93.801V174.791ZM100.922 174.791H97.698V169.319H100.922V174.791ZM101.607 174.791H104.827L104.831 169.319H101.607V174.791ZM108.728 174.791H105.504V169.319H108.728V174.791ZM109.409 174.791H112.633V169.319H109.409V174.791ZM116.538 174.791H113.314V169.319H116.538V174.791ZM117.215 174.791H120.439V169.319H117.215V174.791ZM124.34 174.791H121.116V169.319H124.34V174.791ZM125.017 174.791H128.241V169.319H125.017V174.791Z" fill="#6C63FF" fill-opacity="0.1"/>
<path fill-rule="evenodd" clip-rule="evenodd" d="M89.2109 205.299V211.558H128.434V205.299H89.2109ZM93.12 211.151H89.9202V205.691H93.1442L93.12 211.151ZM93.801 211.151H97.025V205.691H93.801V211.151ZM100.922 211.151H97.698V205.691H100.922V211.151ZM101.607 211.151H104.827L104.831 205.691H101.607V211.151ZM108.728 211.151H105.504V205.691H108.728V211.151ZM109.409 211.151H112.633V205.691H109.409V211.151ZM116.538 211.151H113.314V205.691H116.538V211.151ZM117.215 211.151H120.439V205.691H117.215V211.151ZM124.34 211.151H121.116V205.691H124.34V211.151ZM125.017 211.151H128.241V205.691H125.017V211.151Z" fill="#6C63FF" fill-opacity="0.1"/>
<path d="M163.815 75.2227H163.612C163.006 75.2227 162.399 75.6292 162.399 76.239C162.399 76.4422 159.973 90.6708 146.224 99.2079C136.114 105.509 130.25 113.233 129.644 120.957V122.177C129.644 128.681 133.283 134.779 140.36 140.674C140.562 140.877 140.966 140.877 141.169 140.877C141.573 140.877 141.977 140.674 142.18 140.471C142.584 139.861 142.584 139.048 141.977 138.641C135.103 132.95 131.666 127.055 132.07 120.957C132.676 111.607 141.977 104.493 147.437 101.241C162.197 92.0936 164.623 77.2553 164.826 76.6455C164.826 76.239 164.826 76.0357 164.623 75.6292C164.421 75.4259 164.219 75.2227 163.815 75.2227Z" fill="#00BCD4"/>
<path d="M151.683 103.477C151.481 103.273 151.278 103.273 150.874 103.273C150.47 103.273 150.065 103.477 149.863 103.68C149.661 103.883 149.661 104.29 149.661 104.696C149.661 105.103 149.863 105.306 150.065 105.509C157.951 111.607 161.995 118.112 161.59 124.819C161.186 132.34 155.525 140.268 146.021 145.959C135.912 152.26 130.048 159.984 129.441 167.708V168.928C129.441 175.432 133.081 181.53 140.158 187.425C140.36 187.628 140.764 187.628 140.967 187.628C141.371 187.628 141.775 187.425 141.978 187.222C142.382 186.612 142.382 185.799 141.775 185.392C134.901 179.701 131.463 173.806 131.868 167.708C132.474 158.358 141.775 151.244 147.235 147.992C157.344 141.69 163.41 133.153 163.815 124.819C164.623 117.299 160.377 110.184 151.683 103.477Z" fill="#00BCD4"/>
<path d="M153.098 150.228C152.896 150.024 152.694 150.024 152.289 150.024C151.885 150.024 151.481 150.228 151.278 150.431C151.076 150.634 150.874 151.041 151.076 151.447C151.076 151.854 151.278 152.057 151.481 152.26C158.76 158.155 162.197 164.456 161.793 170.961C161.388 178.278 155.525 186.205 146.426 191.897C136.316 198.198 130.452 205.922 129.846 213.646V214.866C129.846 221.37 133.485 227.468 140.562 233.363C140.764 233.566 141.169 233.566 141.371 233.566C141.775 233.566 142.18 233.363 142.382 233.16C142.786 232.55 142.786 231.737 142.18 231.33C135.305 225.639 131.868 219.744 132.272 213.646C132.879 204.296 142.18 197.182 147.639 193.93C157.749 187.628 163.815 179.295 164.219 170.961C164.623 163.643 160.984 156.529 153.098 150.228Z" fill="#00BCD4"/>
<path d="M131.868 77.0516C131.868 76.4418 131.261 75.832 130.655 75.832C130.048 75.832 129.441 76.4418 129.441 77.0516C129.846 86.8083 140.967 97.1748 141.371 97.5813C141.573 97.7846 141.978 97.9879 142.18 97.9879C142.584 97.9879 142.786 97.7846 143.191 97.5813C143.393 97.3781 143.595 96.9715 143.595 96.565C143.595 96.1585 143.393 95.9552 143.191 95.752C142.988 95.5487 132.272 85.792 131.868 77.0516Z" fill="#00BCD4"/>
<path d="M152.896 196.165C152.694 195.962 152.289 195.759 152.087 195.759C151.683 195.759 151.481 195.962 151.076 196.165C150.874 196.369 150.672 196.775 150.672 196.978C150.672 197.385 150.874 197.588 151.076 197.995C151.278 197.995 161.995 207.955 162.197 216.695C162.197 217.305 162.804 217.915 163.41 217.915C163.815 217.915 164.017 217.711 164.219 217.508C164.421 217.305 164.623 216.898 164.623 216.695C164.623 206.735 153.503 196.572 152.896 196.165Z" fill="#00BCD4"/>
<path d="M149.661 109.371H144.201C143.797 109.371 143.595 109.575 143.595 109.981C143.595 110.388 143.797 110.591 144.201 110.591H149.661C150.065 110.591 150.267 110.388 150.267 109.981C150.267 109.575 149.863 109.371 149.661 109.371Z" fill="#00BCD4"/>
<path d="M154.109 113.843H139.955C139.551 113.843 139.349 114.046 139.349 114.453C139.349 114.859 139.551 115.063 139.955 115.063H154.109C154.513 115.063 154.715 114.859 154.715 114.453C154.715 114.046 154.311 113.843 154.109 113.843Z" fill="#00BCD4"/>
<path d="M156.738 118.315H136.923C136.519 118.315 136.316 118.518 136.316 118.925C136.316 119.331 136.519 119.534 136.923 119.534H156.738C157.143 119.534 157.345 119.331 157.345 118.925C157.345 118.518 157.143 118.315 156.738 118.315Z" fill="#00BCD4"/>
<path d="M149.661 135.998H144.201C143.797 135.998 143.595 136.202 143.595 136.608C143.595 137.015 143.797 137.218 144.201 137.218H149.661C150.065 137.218 150.267 137.015 150.267 136.608C150.267 136.202 149.863 135.998 149.661 135.998Z" fill="#00BCD4"/>
<path d="M154.109 131.527H139.955C139.551 131.527 139.349 131.73 139.349 132.136C139.349 132.543 139.551 132.746 139.955 132.746H154.109C154.513 132.746 154.715 132.543 154.715 132.136C154.715 131.73 154.311 131.527 154.109 131.527Z" fill="#00BCD4"/>
<path d="M156.738 127.055H136.923C136.519 127.055 136.316 127.258 136.316 127.665C136.316 128.071 136.519 128.275 136.923 128.275H156.738C157.143 128.275 157.345 128.071 157.345 127.665C157.345 127.258 157.143 127.055 156.738 127.055Z" fill="#00BCD4"/>
<path d="M158.557 122.583H135.305C134.9 122.583 134.698 122.787 134.698 123.193C134.698 123.6 134.9 123.803 135.305 123.803H158.557C158.962 123.803 159.164 123.6 159.164 123.193C159.164 122.787 158.759 122.583 158.557 122.583Z" fill="#00BCD4"/>
<path d="M149.661 155.309H144.201C143.797 155.309 143.595 155.512 143.595 155.919C143.595 156.325 143.797 156.528 144.201 156.528H149.661C150.065 156.528 150.267 156.325 150.267 155.919C150.267 155.512 149.863 155.309 149.661 155.309Z" fill="#00BCD4"/>
<path d="M154.109 159.781H139.955C139.551 159.781 139.349 159.984 139.349 160.39C139.349 160.797 139.551 161 139.955 161H154.109C154.513 161 154.715 160.797 154.715 160.39C154.715 159.984 154.311 159.781 154.109 159.781Z" fill="#00BCD4"/>
<path d="M156.738 164.252H136.923C136.519 164.252 136.316 164.455 136.316 164.862C136.316 165.269 136.519 165.472 136.923 165.472H156.738C157.143 165.472 157.345 165.269 157.345 164.862C157.345 164.455 157.143 164.252 156.738 164.252Z" fill="#00BCD4"/>
<path d="M149.661 181.937H144.201C143.797 181.937 143.595 182.14 143.595 182.547C143.595 182.953 143.797 183.156 144.201 183.156H149.661C150.065 183.156 150.267 182.953 150.267 182.547C150.267 182.14 149.863 181.937 149.661 181.937Z" fill="#00BCD4"/>
<path d="M154.109 177.465H139.955C139.551 177.465 139.349 177.668 139.349 178.075C139.349 178.481 139.551 178.685 139.955 178.685H154.109C154.513 178.685 154.715 178.481 154.715 178.075C154.715 177.668 154.311 177.465 154.109 177.465Z" fill="#00BCD4"/>
<path d="M156.738 172.992H136.923C136.519 172.992 136.316 173.196 136.316 173.602C136.316 174.009 136.519 174.212 136.923 174.212H156.738C157.143 174.212 157.345 174.009 157.345 173.602C157.345 173.196 157.143 172.992 156.738 172.992Z" fill="#00BCD4"/>
<path d="M158.557 168.521H135.305C134.9 168.521 134.698 168.724 134.698 169.131C134.698 169.537 134.9 169.74 135.305 169.74H158.557C158.962 169.74 159.164 169.537 159.164 169.131C159.164 168.724 158.759 168.521 158.557 168.521Z" fill="#00BCD4"/>
<path d="M149.661 200.434H144.201C143.797 200.434 143.595 200.637 143.595 201.044C143.595 201.45 143.797 201.653 144.201 201.653H149.661C150.065 201.653 150.267 201.45 150.267 201.044C150.267 200.637 149.863 200.434 149.661 200.434Z" fill="#00BCD4"/>
<path d="M154.109 204.906H139.955C139.551 204.906 139.349 205.109 139.349 205.515C139.349 205.922 139.551 206.125 139.955 206.125H154.109C154.513 206.125 154.715 205.922 154.715 205.515C154.715 205.109 154.311 204.906 154.109 204.906Z" fill="#00BCD4"/>
<path d="M156.738 209.377H136.923C136.519 209.377 136.316 209.58 136.316 209.987C136.316 210.394 136.519 210.597 136.923 210.597H156.738C157.143 210.597 157.345 210.394 157.345 209.987C157.345 209.58 157.143 209.377 156.738 209.377Z" fill="#00BCD4"/>
<path d="M149.661 227.061H144.201C143.797 227.061 143.595 227.265 143.595 227.671C143.595 228.078 143.797 228.281 144.201 228.281H149.661C150.065 228.281 150.267 228.078 150.267 227.671C150.267 227.265 149.863 227.061 149.661 227.061Z" fill="#00BCD4"/>
<path d="M154.109 222.59H139.955C139.551 222.59 139.349 222.793 139.349 223.199C139.349 223.606 139.551 223.809 139.955 223.809H154.109C154.513 223.809 154.715 223.606 154.715 223.199C154.715 222.793 154.311 222.59 154.109 222.59Z" fill="#00BCD4"/>
<path d="M156.738 218.117H136.923C136.519 218.117 136.316 218.321 136.316 218.727C136.316 219.134 136.519 219.337 136.923 219.337H156.738C157.143 219.337 157.345 219.134 157.345 218.727C157.345 218.321 157.143 218.117 156.738 218.117Z" fill="#00BCD4"/>
<path d="M158.557 213.646H135.305C134.9 213.646 134.698 213.849 134.698 214.256C134.698 214.662 134.9 214.865 135.305 214.865H158.557C158.962 214.865 159.164 214.662 159.164 214.256C159.164 213.849 158.759 213.646 158.557 213.646Z" fill="#00BCD4"/>
<path d="M149.661 90.4671H144.201C143.797 90.4671 143.595 90.6703 143.595 91.0769C143.595 91.4834 143.797 91.6867 144.201 91.6867H149.661C150.065 91.6867 150.267 91.4834 150.267 91.0769C150.267 90.6703 149.863 90.4671 149.661 90.4671Z" fill="#00BCD4"/>
<path d="M154.109 85.9954H139.955C139.551 85.9954 139.349 86.1987 139.349 86.6052C139.349 87.0117 139.551 87.215 139.955 87.215H154.109C154.513 87.215 154.715 87.0117 154.715 86.6052C154.715 86.1987 154.311 85.9954 154.109 85.9954Z" fill="#00BCD4"/>
<path d="M156.738 81.5237H136.923C136.519 81.5237 136.316 81.727 136.316 82.1335C136.316 82.54 136.519 82.7433 136.923 82.7433H156.738C157.143 82.7433 157.345 82.54 157.345 82.1335C157.345 81.727 157.143 81.5237 156.738 81.5237Z" fill="#00BCD4"/>
<path d="M158.557 77.052H135.305C134.9 77.052 134.698 77.2553 134.698 77.6618C134.698 78.0684 134.9 78.2716 135.305 78.2716H158.557C158.962 78.2716 159.164 78.0684 159.164 77.6618C159.164 77.2553 158.759 77.052 158.557 77.052Z" fill="#00BCD4"/>
<path d="M358.139 75.0332L264.587 79.7176C255.232 79.7176 246.284 86.4386 245.064 94.5853L208.66 306.4L215.575 313.325C218.219 315.973 222.286 317.806 226.964 317.806H318.481C327.023 316.787 334.344 310.474 335.564 302.938L368.104 95.6037C369.731 81.5506 358.139 75.0332 358.139 75.0332Z" fill="#03ACF2" fill-opacity="0.2"/>
<path d="M308.11 312.306C307.5 312.306 307.5 312.714 307.907 313.121C308.313 313.528 309.127 313.936 309.737 313.936C310.347 313.936 310.347 313.528 309.94 313.121C309.533 312.714 308.72 312.306 308.11 312.306Z" fill="#0B212E"/>
<path d="M304.855 312.306C304.245 312.306 304.245 312.714 304.652 313.121C305.058 313.528 305.872 313.936 306.482 313.936C307.092 313.936 307.092 313.528 306.685 313.121C306.279 312.714 305.465 312.306 304.855 312.306Z" fill="#0B212E"/>
<path d="M301.601 312.306C300.991 312.306 300.991 312.714 301.398 313.121C301.804 313.528 302.618 313.936 303.228 313.936C303.838 313.936 303.838 313.528 303.431 313.121C303.025 312.714 302.211 312.306 301.601 312.306Z" fill="#0B212E"/>
<path d="M298.347 312.306C297.737 312.306 297.737 312.714 298.144 313.121C298.551 313.528 299.364 313.936 299.974 313.936C300.584 313.936 300.584 313.528 300.178 313.121C299.771 312.714 298.754 312.306 298.347 312.306Z" fill="#0B212E"/>
<path d="M294.89 312.306C294.28 312.306 294.28 312.714 294.687 313.121C295.094 313.528 295.907 313.936 296.517 313.936C297.127 313.936 297.127 313.528 296.721 313.121C296.314 312.714 295.5 312.306 294.89 312.306Z" fill="#0B212E"/>
<path d="M291.636 312.306C291.026 312.306 291.026 312.714 291.433 313.121C291.84 313.528 292.653 313.936 293.263 313.936C293.873 313.936 293.873 313.528 293.467 313.121C293.06 312.714 292.246 312.306 291.636 312.306Z" fill="#0B212E"/>
<path d="M288.382 312.306C287.772 312.306 287.772 312.714 288.179 313.121C288.586 313.528 289.399 313.936 290.009 313.936C290.619 313.936 290.619 313.528 290.213 313.121C289.806 312.714 288.992 312.306 288.382 312.306Z" fill="#0B212E"/>
<path d="M310.753 314.954C310.143 314.954 310.143 315.361 310.55 315.768C310.957 316.176 311.77 316.583 312.38 316.583C312.991 316.583 312.991 316.176 312.584 315.768C312.177 315.361 311.364 314.954 310.753 314.954Z" fill="#0B212E"/>
<path d="M307.499 314.954C306.888 314.954 306.888 315.361 307.295 315.768C307.702 316.176 308.515 316.583 309.126 316.583C309.736 316.583 309.736 316.176 309.329 315.768C308.922 315.361 307.905 314.954 307.499 314.954Z" fill="#0B212E"/>
<path d="M304.042 314.954C303.431 314.954 303.431 315.361 303.838 315.768C304.245 316.176 305.058 316.583 305.669 316.583C306.279 316.583 306.279 316.176 305.872 315.768C305.465 315.361 304.652 314.954 304.042 314.954Z" fill="#0B212E"/>
<path d="M300.788 314.954C300.178 314.954 300.178 315.361 300.584 315.768C300.991 316.176 301.804 316.583 302.415 316.583C303.025 316.583 303.025 316.176 302.618 315.768C302.211 315.361 301.398 314.954 300.788 314.954Z" fill="#0B212E"/>
<path d="M297.534 314.954C296.924 314.954 296.924 315.361 297.33 315.768C297.737 316.176 298.551 316.583 299.161 316.583C299.771 316.583 299.771 316.176 299.364 315.768C298.957 315.361 298.144 314.954 297.534 314.954Z" fill="#0B212E"/>
<path d="M294.28 314.954C293.67 314.954 293.67 315.361 294.076 315.768C294.483 316.176 295.297 316.583 295.907 316.583C296.517 316.583 296.517 316.176 296.11 315.768C295.703 315.361 294.89 314.954 294.28 314.954Z" fill="#0B212E"/>
<path d="M291.026 314.954C290.416 314.954 290.416 315.361 290.823 315.768C291.229 316.176 292.043 316.583 292.653 316.583C293.263 316.583 293.263 316.176 292.856 315.768C292.45 315.361 291.636 314.954 291.026 314.954Z" fill="#0B212E"/>
<path d="M285.332 312.306C284.721 312.306 284.721 312.714 285.128 313.121C285.535 313.528 286.348 313.936 286.959 313.936C287.569 313.936 287.569 313.528 287.162 313.121C286.755 312.714 285.738 312.306 285.332 312.306Z" fill="#0B212E"/>
<path d="M287.772 314.954C287.162 314.954 287.162 315.361 287.569 315.768C287.975 316.176 288.789 316.583 289.399 316.583C290.009 316.583 290.009 316.176 289.602 315.768C289.196 315.361 288.382 314.954 287.772 314.954Z" fill="#0B212E"/>
<path d="M282.078 312.306C281.468 312.306 281.468 312.714 281.874 313.121C282.281 313.528 283.095 313.936 283.705 313.936C284.315 313.936 284.315 313.528 283.908 313.121C283.501 312.714 282.688 312.306 282.078 312.306Z" fill="#0B212E"/>
<path d="M284.721 314.954C284.111 314.954 284.111 315.361 284.518 315.768C284.925 316.176 285.738 316.583 286.348 316.583C286.958 316.583 286.958 316.176 286.552 315.768C286.145 315.361 285.331 314.954 284.721 314.954Z" fill="#0B212E"/>
<path d="M247.505 312.103C246.895 312.103 246.895 312.51 247.302 312.917C247.709 313.325 248.522 313.732 249.132 313.732C249.742 313.732 249.742 313.325 249.336 312.917C248.929 312.51 248.116 312.103 247.505 312.103Z" fill="#0B212E"/>
<path d="M244.251 312.103C243.64 312.103 243.64 312.51 244.047 312.917C244.454 313.325 245.267 313.732 245.877 313.732C246.488 313.732 246.488 313.325 246.081 312.917C245.674 312.51 244.861 312.103 244.251 312.103Z" fill="#0B212E"/>
<path d="M240.997 312.103C240.386 312.103 240.386 312.51 240.793 312.917C241.2 313.325 242.013 313.732 242.624 313.732C243.234 313.732 243.234 313.325 242.827 312.917C242.42 312.51 241.607 312.103 240.997 312.103Z" fill="#0B212E"/>
<path d="M237.743 312.103C237.133 312.103 237.133 312.51 237.539 312.917C237.946 313.325 238.76 313.732 239.37 313.732C239.98 313.732 239.98 313.325 239.573 312.917C239.166 312.51 238.149 312.103 237.743 312.103Z" fill="#0B212E"/>
<path d="M234.286 312.103C233.676 312.103 233.676 312.51 234.082 312.917C234.489 313.325 235.303 313.732 235.913 313.732C236.523 313.732 236.523 313.325 236.116 312.917C235.709 312.51 234.896 312.103 234.286 312.103Z" fill="#0B212E"/>
<path d="M231.032 312.103C230.422 312.103 230.422 312.51 230.828 312.917C231.235 313.325 232.049 313.732 232.659 313.732C233.269 313.732 233.269 313.325 232.862 312.917C232.455 312.51 231.642 312.103 231.032 312.103Z" fill="#0B212E"/>
<path d="M227.778 312.103C227.168 312.103 227.168 312.51 227.574 312.917C227.981 313.325 228.795 313.732 229.405 313.732C230.015 313.732 230.015 313.325 229.608 312.917C229.201 312.51 228.388 312.103 227.778 312.103Z" fill="#0B212E"/>
<path d="M250.149 314.75C249.539 314.75 249.539 315.157 249.946 315.565C250.352 315.972 251.166 316.379 251.776 316.379C252.386 316.379 252.386 315.972 251.979 315.565C251.573 315.157 250.556 314.75 250.149 314.75Z" fill="#0B212E"/>
<path d="M246.691 314.75C246.081 314.75 246.081 315.157 246.488 315.565C246.894 315.972 247.708 316.379 248.318 316.379C248.928 316.379 248.928 315.972 248.521 315.565C248.115 315.157 247.301 314.75 246.691 314.75Z" fill="#0B212E"/>
<path d="M243.437 314.75C242.827 314.75 242.827 315.157 243.234 315.565C243.64 315.972 244.454 316.379 245.064 316.379C245.674 316.379 245.674 315.972 245.267 315.565C244.861 315.157 244.047 314.75 243.437 314.75Z" fill="#0B212E"/>
<path d="M240.183 314.75C239.573 314.75 239.573 315.157 239.98 315.565C240.387 315.972 241.2 316.379 241.81 316.379C242.42 316.379 242.42 315.972 242.013 315.565C241.607 315.157 240.793 314.75 240.183 314.75Z" fill="#0B212E"/>
<path d="M236.929 314.75C236.319 314.75 236.319 315.157 236.726 315.565C237.133 315.972 237.946 316.379 238.556 316.379C239.166 316.379 239.166 315.972 238.76 315.565C238.353 315.157 237.539 314.75 236.929 314.75Z" fill="#0B212E"/>
<path d="M233.675 314.75C233.065 314.75 233.065 315.157 233.472 315.565C233.879 315.972 234.692 316.379 235.302 316.379C235.912 316.379 235.912 315.972 235.506 315.565C235.099 315.157 234.285 314.75 233.675 314.75Z" fill="#0B212E"/>
<path d="M230.421 314.75C229.811 314.75 229.811 315.157 230.218 315.565C230.625 315.972 231.438 316.379 232.048 316.379C232.659 316.379 232.659 315.972 232.252 315.565C231.845 315.157 231.032 314.75 230.421 314.75Z" fill="#0B212E"/>
<path d="M224.727 312.103C224.117 312.103 224.117 312.51 224.524 312.917C224.93 313.325 225.744 313.732 226.354 313.732C226.964 313.732 226.964 313.325 226.557 312.917C226.151 312.51 225.134 312.103 224.727 312.103Z" fill="#0B212E"/>
<path d="M227.168 314.75C226.557 314.75 226.557 315.157 226.964 315.565C227.371 315.972 228.184 316.379 228.794 316.379C229.405 316.379 229.405 315.972 228.998 315.565C228.591 315.157 227.778 314.75 227.168 314.75Z" fill="#0B212E"/>
<path d="M221.473 312.103C220.863 312.103 220.863 312.51 221.27 312.917C221.677 313.325 222.49 313.732 223.1 313.732C223.71 313.732 223.71 313.325 223.304 312.917C222.897 312.51 222.083 312.103 221.473 312.103Z" fill="#0B212E"/>
<path d="M224.117 314.75C223.507 314.75 223.507 315.157 223.913 315.565C224.32 315.972 225.134 316.379 225.744 316.379C226.354 316.379 226.354 315.972 225.947 315.565C225.54 314.954 224.727 314.75 224.117 314.75Z" fill="#0B212E"/>
<path d="M348.784 72.3853L257.063 72.1816C247.708 72.1816 238.76 78.9027 237.539 87.0494L204.593 295.402C203.373 303.549 209.881 310.473 219.439 310.473L311.16 310.677C320.515 310.677 329.464 303.956 330.684 295.809L363.63 87.4567C364.85 79.1064 358.342 72.3853 348.784 72.3853Z" fill="#03ACF2" fill-opacity="0.4"/>
<path d="M358.546 83.9941H243.031C242.014 83.9941 240.794 84.6051 240.59 85.8272C240.387 86.4382 240.184 87.0492 240.184 87.6602L207.237 296.013C206.831 298.864 207.644 301.715 209.475 303.956C211.712 306.603 215.576 308.233 219.643 308.233L311.364 308.436C319.499 308.436 327.227 302.53 328.447 295.605L361.393 87.2528C361.393 85.4198 360.173 83.9941 358.546 83.9941Z" fill="white"/>
<path d="M207.237 295.809C206.831 298.661 207.644 301.512 209.475 303.752C211.712 306.4 215.576 308.029 219.643 308.029L311.364 308.233C319.499 308.233 327.227 302.327 328.447 295.402L339.022 228.395H218.016L207.237 295.809Z" fill="#00838F"/>
<path d="M216.796 234.301H337.802L338.006 233.69H216.999L216.796 234.301Z" fill="#4AF6D1"/>
<rect x="216.186" y="238.579" width="121.006" height="0.602259" fill="#4AF6D1"/>
<path d="M215.372 243.67H336.378V243.263H215.575L215.372 243.67Z" fill="#4AF6D1"/>
<path d="M214.559 248.354H335.565L335.768 247.947H214.762L214.559 248.354Z" fill="#4AF6D1"/>
<path d="M213.745 253.039H334.751L334.955 252.632H213.948L213.745 253.039Z" fill="#4AF6D1"/>
<path d="M212.932 257.723H333.938L334.141 257.316H213.135L212.932 257.723Z" fill="#4AF6D1"/>
<rect x="212.321" y="262" width="121.006" height="0.602259" fill="#4AF6D1"/>
<path d="M211.508 267.092H332.514L332.718 266.685H211.711L211.508 267.092Z" fill="#4AF6D1"/>
<path d="M210.694 271.776H331.701L331.904 271.369H210.898L210.694 271.776Z" fill="#4AF6D1"/>
<path d="M209.881 276.665H330.887L331.091 276.054H210.084L209.881 276.665Z" fill="#4AF6D1"/>
<path d="M209.271 281.349H330.073L330.277 280.942H209.271V281.349Z" fill="#4AF6D1"/>
<rect x="208.457" y="285.626" width="121.006" height="0.602259" fill="#4AF6D1"/>
<path d="M207.644 290.718H328.65L328.853 290.31H207.847L207.644 290.718Z" fill="#4AF6D1"/>
<rect x="207.237" y="294.995" width="121.006" height="0.602259" fill="#4AF6D1"/>
<path d="M207.441 300.086H326.413L326.617 299.679H207.237L207.441 300.086Z" fill="#4AF6D1"/>
<path d="M210.288 304.771H321.735L322.346 304.364H209.881L210.288 304.771Z" fill="#4AF6D1"/>
<path d="M217.609 229.617H338.616L340.446 218.416H219.44L217.609 229.617Z" fill="#B3E5FC"/>
<path d="M358.546 83.9941H243.031C242.014 83.9941 240.794 84.6051 240.59 85.8272C240.387 86.4382 240.184 87.0492 240.184 87.6602L238.557 98.4546H359.563L361.393 87.0492C361.393 85.4198 360.173 83.9941 358.546 83.9941Z" fill="#B3E5FC"/>
<path d="M279.637 76.0512C277.807 77.4768 277.197 79.7172 278.417 80.9392C279.637 82.1612 282.281 81.9575 284.111 80.5319C285.942 79.1062 286.552 76.8658 285.332 75.6438C284.111 74.2181 281.468 74.4218 279.637 76.0512Z" fill="#7BC3F4"/>
<path d="M280.247 76.6619C278.824 77.8839 278.214 79.5132 279.231 80.3279C280.044 81.1426 282.078 80.9389 283.501 79.9206C284.925 78.6986 285.535 77.0692 284.518 76.2546C283.501 75.2362 281.671 75.4399 280.247 76.6619Z" fill="#143549"/>
<path d="M319.091 75.8477H292.449C291.839 75.8477 291.026 76.0513 290.212 76.6623C288.992 77.6807 288.585 78.9027 289.399 79.7174C289.602 79.921 289.806 80.1247 290.212 80.1247H291.026L316.651 80.3284H316.854C317.668 80.3284 318.481 80.1247 319.091 79.5137C319.905 78.9027 320.311 78.088 320.311 77.477C320.311 77.0697 320.108 76.6623 319.905 76.4587C319.701 76.0513 319.498 75.8477 319.091 75.8477Z" fill="#7BC3F4"/>
<path d="M290.823 80.1248H316.855C317.668 80.1248 318.482 79.9211 319.092 79.3101C319.905 78.6991 320.312 77.8844 320.312 77.2734H294.687C291.637 77.2734 291.027 79.3101 290.823 80.1248Z" fill="#143549"/>
<path d="M280.654 76.8654C280.247 77.2727 280.044 77.6801 280.247 77.8837C280.451 78.0874 281.061 78.0874 281.468 77.6801C281.874 77.2727 282.078 76.8654 281.874 76.6617C281.671 76.6617 281.264 76.6617 280.654 76.8654Z" fill="#143549"/>
<path d="M282.484 76.4589C282.281 76.6626 282.078 76.8663 282.281 77.0699C282.484 77.2736 282.688 77.2736 282.891 77.0699C283.095 76.8663 283.298 76.6626 283.095 76.4589C283.095 76.2553 282.688 76.2553 282.484 76.4589Z" fill="#143549"/>
<path d="M274.349 312.713C274.146 312.51 273.943 312.51 273.739 312.51H258.69C258.283 312.51 258.08 313.121 258.283 313.528L260.317 315.972C260.52 316.176 260.723 316.176 260.927 316.176H275.976C276.383 316.176 276.586 315.565 276.383 315.157L274.349 312.713Z" fill="#356891"/>
<path d="M287.975 176.867C287.772 177.274 287.365 177.681 286.958 177.681C286.552 177.681 286.145 177.274 286.348 176.867L290.619 149.575L286.552 156.5C286.348 156.907 285.942 157.111 285.535 157.111H272.112C271.705 157.111 271.502 156.907 271.502 156.5V156.296H260.113C260.52 161.388 262.35 166.072 265.604 169.738L282.891 189.29L308.719 169.738C313.397 166.276 317.057 161.795 319.498 156.907H295.5L287.975 176.867Z" fill="#F42E88"/>
<path d="M309.126 131.652C303.228 131.652 297.33 134.707 293.263 139.799C291.433 134.707 286.958 131.652 281.061 131.652C272.316 131.652 263.774 138.781 260.927 148.76C260.723 149.168 260.113 151.204 260.113 154.463H272.926C273.332 154.463 273.536 154.667 273.536 155.074V155.278H285.535L291.433 145.502C291.636 145.094 292.043 144.891 292.449 144.891C292.856 144.891 293.263 145.298 293.06 145.705L288.585 172.182L294.28 155.889C294.483 155.482 294.89 155.074 295.297 155.074H320.311C321.938 151.408 322.142 149.168 322.142 148.76C323.362 138.781 317.871 131.652 309.126 131.652Z" fill="#F42E88"/>
<path d="M320.312 155.278C320.108 155.686 319.905 156.297 319.498 156.704H336.378C336.378 156.093 336.581 155.482 336.581 155.075H320.312V155.278Z" fill="#F42E88"/>
<path d="M243.64 154.26C243.64 154.871 243.437 155.482 243.233 155.89H260.113V154.26H243.64Z" fill="#F42E88"/>
<path fill-rule="evenodd" clip-rule="evenodd" d="M246.92 157.757C250.521 134.644 272.291 115.793 295.535 115.793C306.993 115.793 317.305 120.219 324.507 128.579C331.545 136.939 334.492 147.922 332.691 159.725C329.09 182.838 307.32 201.689 284.077 201.689C272.455 201.689 262.143 197.099 255.104 188.903C248.066 180.543 245.12 169.56 246.92 157.757ZM284.077 200.705C306.829 200.705 328.108 182.346 331.709 159.561C333.51 148.086 330.563 137.267 323.689 129.071C316.814 121.039 306.829 116.613 295.535 116.613C272.782 116.613 251.503 134.972 247.902 157.757C246.102 169.232 248.884 180.051 255.923 188.247C262.798 196.28 272.782 200.705 284.077 200.705Z" fill="#F42E88" fill-opacity="0.54"/>
<path fill-rule="evenodd" clip-rule="evenodd" d="M248.394 158.086C251.831 135.628 273.11 117.269 295.535 117.269C306.666 117.269 316.487 121.531 323.362 129.563C330.236 137.595 333.019 148.25 331.218 159.561C327.781 182.018 306.502 200.378 284.077 200.378C272.946 200.378 262.962 195.952 256.251 188.084C249.376 180.051 246.593 169.396 248.394 158.086ZM284.077 198.247C305.52 198.247 325.817 180.707 329.254 159.233C330.891 148.414 328.272 138.415 321.725 130.874C315.341 123.334 306.011 119.236 295.535 119.236C274.092 119.236 253.795 136.775 250.358 158.249C248.721 168.905 251.34 179.068 257.887 186.608C264.271 194.149 273.601 198.247 284.077 198.247Z" fill="#F42E88" fill-opacity="0.54"/>
<path fill-rule="evenodd" clip-rule="evenodd" d="M251.339 158.413C254.613 137.431 274.419 120.219 295.534 120.219C305.683 120.219 314.849 124.153 321.069 131.529C327.289 138.742 329.908 148.578 328.271 159.069C324.998 180.051 305.192 197.263 284.076 197.263C273.764 197.263 264.761 193.165 258.541 185.952C252.321 178.576 249.702 168.904 251.339 158.413ZM284.076 193.329C303.228 193.329 321.397 177.592 324.343 158.413C325.816 149.233 323.524 140.545 317.959 133.988C312.558 127.595 304.537 124.153 295.534 124.153C276.383 124.153 258.214 139.89 255.268 159.069C253.795 168.412 256.086 176.936 261.651 183.493C267.053 189.886 275.074 193.329 284.076 193.329Z" fill="#F42E88" fill-opacity="0.54"/>
<path d="M326.82 250.188L322.752 261.797L326.006 242.855C326.006 242.652 325.803 242.244 325.599 242.244C325.396 242.244 324.989 242.448 324.989 242.652L320.719 249.78H312.177V249.577C312.177 249.373 311.974 249.169 311.77 249.169H301.195C300.788 249.169 300.585 249.373 300.381 249.78L296.517 261.186L299.568 242.652C299.568 242.448 299.364 242.041 299.161 242.041C298.958 242.041 298.551 242.244 298.551 242.448L294.28 249.577H287.162L287.366 249.169V248.966C287.366 248.558 287.162 248.355 286.959 248.355H276.383C275.977 248.355 275.773 248.558 275.57 248.966L271.503 260.371L274.553 241.633C274.553 241.43 274.35 241.226 274.146 241.022C273.943 241.022 273.536 241.226 273.536 241.43L269.469 248.558H261.944C261.537 248.558 261.334 248.762 261.131 249.169V249.577L261.334 249.984H250.759C250.352 249.984 250.148 250.188 249.945 250.595L245.878 262.408L248.928 243.466C248.928 243.263 248.725 242.855 248.521 242.855C248.318 242.855 247.911 243.059 247.911 243.263L243.641 250.188H225.947C225.54 250.188 225.337 250.391 225.134 250.799L221.88 258.945L224.117 243.67C224.117 243.466 223.913 243.263 223.71 243.059C223.507 243.059 223.1 243.263 223.1 243.466L218.829 250.595H214.152L213.948 251.817H218.829C219.033 251.817 219.439 251.613 219.439 251.41L222.286 246.929L220.049 263.222C220.049 263.426 220.253 263.833 220.456 263.833C220.863 263.833 221.066 263.63 221.27 263.222L225.947 251.613H243.641C243.844 251.613 244.251 251.41 244.251 251.206L246.284 247.744H246.691L243.234 268.518C243.234 268.925 243.437 269.129 243.641 269.129C244.047 269.129 244.251 268.925 244.454 268.518L250.555 251.41H260.724C261.131 251.41 261.334 251.206 261.537 250.799V250.391L261.334 249.984H269.062C269.265 249.984 269.672 249.78 269.672 249.577L272.519 244.485L269.469 264.037C269.469 264.444 269.672 264.648 270.079 264.648C270.486 264.648 270.689 264.444 270.689 264.037L275.977 249.577H285.739L285.535 249.984V250.188C285.535 250.595 285.739 250.799 285.942 250.799H293.873C294.077 250.799 294.484 250.595 294.484 250.391L297.331 245.299L294.28 264.852C294.28 265.259 294.484 265.463 294.687 265.463C295.094 265.463 295.297 265.259 295.5 264.852L300.788 250.391H310.347V250.595C310.347 250.799 310.55 251.002 310.753 251.002H320.312C320.515 251.002 320.922 250.799 320.922 250.595L323.769 245.707L320.719 265.055C320.719 265.463 320.922 265.666 321.125 265.666C321.329 265.666 321.735 265.463 321.939 265.055L327.226 250.595H334.548L334.751 249.373H327.023C327.43 249.577 327.023 249.984 326.82 250.188Z" fill="white"/>
<path d="M232.046 308.514C229.288 309.584 226.956 313.649 226.319 317.499C225.683 315.574 224.835 313.863 224.198 311.937C225.471 309.37 228.864 308.3 229.925 305.091C230.985 301.669 227.804 299.957 225.471 302.738C224.41 304.022 223.774 307.231 223.562 309.584C223.138 308.3 222.502 306.375 222.078 305.091C221.653 304.022 221.229 302.738 220.805 301.669C222.502 299.315 227.168 297.39 226.107 293.325C225.259 290.544 222.078 289.903 220.805 292.898C220.169 294.395 219.745 296.748 219.745 298.888C218.896 296.748 218.048 294.609 216.988 292.684C218.684 289.689 224.41 287.763 223.986 283.699C223.562 280.276 219.533 281.345 218.048 283.699C216.563 286.052 216.563 289.047 216.563 292.042C215.715 290.544 215.079 289.047 214.23 287.549C215.291 284.768 218.472 281.987 218.048 278.564C217.412 275.141 213.594 273.002 212.11 277.281C211.261 279.634 211.685 282.201 212.534 284.768C211.473 283.271 210.413 281.559 209.352 280.062C209.352 278.992 209.352 277.495 209.777 275.997C210.201 274.286 210.837 272.36 209.989 270.863C208.504 268.082 206.807 270.435 206.807 272.788C206.595 274.5 207.232 276.211 207.868 278.136C206.595 276.425 204.475 274.072 203.202 272.574C202.99 269.151 207.868 260.166 202.354 262.092C199.809 262.948 200.869 268.51 202.142 271.505C201.293 270.649 199.385 268.724 199.172 268.724C198.96 265.943 200.021 256.53 196.203 257.599C193.234 258.455 195.355 263.375 196.627 265.729C196.839 265.943 197.052 266.37 197.264 267.012C195.991 265.729 194.507 264.659 193.234 263.589C193.446 262.52 193.658 261.022 193.446 259.525C193.446 258.455 192.598 254.176 190.689 256.744C190.053 257.599 190.689 260.594 191.749 262.52C190.689 261.664 189.629 261.022 188.568 260.38C181.781 254.39 181.145 243.266 175.843 246.689C169.481 250.754 173.934 255.46 176.479 256.958C178.6 258.241 182.63 259.739 186.872 260.166C187.932 261.022 192.598 264.659 193.022 265.301C188.78 263.161 180.509 258.883 179.873 263.375C179.236 267.44 189.841 265.729 193.87 266.156C195.567 267.654 199.597 271.719 200.021 272.146C198.112 271.291 196.203 269.579 194.082 269.365C192.174 269.151 188.568 270.007 189.417 272.146C190.689 275.355 195.355 273.644 197.9 273.43C199.597 273.216 200.657 273.644 201.081 273.216C202.99 275.355 204.899 277.495 206.595 279.848C203.626 277.495 195.779 273.002 194.931 277.709C193.87 283.699 202.99 279.848 207.02 280.49C208.716 282.843 210.413 285.41 211.898 287.763C209.777 285.838 207.868 283.699 204.899 282.629C202.142 281.773 198.324 282.415 200.021 286.48C201.293 289.475 206.595 287.763 209.565 288.191C210.837 288.405 211.898 288.833 212.746 289.047C214.018 291.4 215.291 293.967 216.351 296.534C210.625 294.609 203.202 285.624 201.505 291.828C200.021 297.39 210.413 293.967 216.775 297.39C217.836 299.743 218.684 302.096 219.533 304.45C218.26 302.738 216.563 301.455 214.867 300.171C213.594 299.101 208.504 296.962 208.08 300.385C207.656 303.808 213.806 304.022 215.715 304.236C217.624 304.45 218.896 305.091 220.169 306.161C220.381 306.589 222.078 312.151 222.926 314.504C220.169 311.081 205.535 300.599 205.323 310.012C205.111 316.002 216.351 312.579 219.533 313.221C221.653 313.649 222.714 314.504 223.35 315.574C223.774 316.858 224.41 318.141 224.835 319.425C221.229 316.644 213.17 311.937 212.746 318.355C212.11 325.843 220.169 320.494 222.078 320.708C223.774 320.922 225.683 320.708 226.319 322.634C226.956 324.131 227.804 325.629 228.864 326.912C229.501 327.982 230.985 326.698 230.561 325.843C229.501 323.917 228.44 321.778 227.592 319.639C229.501 317.071 234.803 314.718 235.863 312.793C236.923 309.584 235.015 307.231 232.046 308.514Z" fill="#00BCD4"/>
<path d="M198.324 297.604C182.63 291.186 175.843 284.127 171.602 281.773C184.115 305.519 217.836 336.753 230.349 325.201C233.742 322.206 220.169 306.589 198.324 297.604Z" fill="#357A38" fill-opacity="0.65"/>
<path d="M230.986 326.056C231.198 327.768 254.527 326.056 262.162 306.803C268.312 291.828 273.19 289.688 277.22 286.479C246.892 291.186 230.561 321.778 230.986 326.056Z" fill="#C8E6C9" fill-opacity="0.79"/>
<path d="M226.744 281.987C226.107 276.425 215.927 256.53 212.746 252.893C218.26 271.505 210.413 268.296 214.655 299.743C215.927 309.156 222.502 324.131 228.016 324.131C233.106 324.131 233.318 317.286 234.167 314.932C236.075 308.514 233.955 266.371 231.622 262.52C228.228 270.221 227.168 280.704 226.744 281.987Z" fill="#C8E6C9" fill-opacity="0.58"/>
<path d="M242.862 275.142C240.954 277.923 240.105 281.346 238.196 284.127C236.712 286.266 236.924 289.261 235.651 291.4C234.591 293.753 232.47 294.823 232.258 298.032C232.258 299.529 232.682 300.813 232.47 302.097C232.258 303.808 231.622 305.306 231.622 307.231C231.622 308.514 232.046 309.798 232.046 310.868C232.046 314.291 226.744 319.853 230.986 322.848C230.773 325.629 231.198 326.698 232.682 326.698C235.864 326.698 235.651 323.489 236.288 321.778C236.924 319.639 239.257 318.355 239.469 315.574C239.681 314.077 238.833 312.365 238.833 311.082C239.045 310.012 239.893 309.584 240.317 308.728C241.59 306.589 241.802 304.022 241.59 301.669C241.59 300.171 240.317 298.032 240.529 296.748C240.954 294.181 243.286 293.539 242.65 290.117C242.438 289.047 241.59 287.763 241.59 286.694C241.59 285.624 242.438 284.768 242.65 283.913C243.923 280.918 242.862 277.923 242.862 275.142Z" fill="#4CAF50" fill-opacity="0.78"/>
<path d="M432.732 292.729H404.469C401.825 292.729 399.385 291.51 397.759 289.682C396.132 287.65 395.319 285.01 395.726 282.572L407.315 212.495C407.519 211.886 406.909 211.276 406.299 211.073C405.689 210.87 405.079 211.479 404.875 212.089L393.286 282.166C392.676 285.416 393.692 288.869 395.929 291.307C398.166 293.947 401.215 295.369 404.672 295.369H432.935C435.579 295.369 438.019 296.588 439.645 298.416C441.272 300.244 442.085 303.088 441.679 305.525C440.865 309.791 437.205 312.838 432.935 312.838H267.423C266.813 312.838 266.203 313.447 266.203 314.057C266.203 314.666 266.813 315.275 267.423 315.275H432.732C438.222 315.275 443.102 311.213 443.915 305.728C444.525 302.479 443.509 299.025 441.475 296.588C439.239 294.354 435.985 292.729 432.732 292.729Z" fill="#01579B"/>
<path d="M433.688 128.219C432.061 127.61 430.292 129.113 430.089 130.738C429.885 131.957 430.798 133.314 432.018 133.72C434.052 134.532 438.222 136.933 437.815 140.386L430.699 185.074C429.072 195.839 419.312 203.558 408.536 202.339C397.352 200.917 389.626 190.761 391.252 179.589L398.572 134.496C398.979 131.449 402.029 129.215 405.079 129.621L407.112 129.824C407.112 129.824 408.954 129.871 409.16 127.192C409.361 124.561 407.926 124.543 407.926 124.543L405.892 124.34C399.792 123.527 394.302 127.59 393.286 133.48L386.169 178.167C384.136 191.98 393.692 205.386 407.722 207.214C421.345 209.042 433.952 199.698 435.985 186.089L443.305 140.996C444.322 134.09 437.348 129.641 433.688 128.219Z" fill="#00BCD4"/>
<path d="M431.105 126.371L426.225 125.558C423.582 125.152 421.142 126.98 420.735 129.621C420.329 132.262 422.159 134.699 424.802 135.105L429.682 135.918C432.325 136.324 434.765 134.496 435.172 131.855C435.579 129.215 433.749 126.777 431.105 126.371Z" fill="#01579B" fill-opacity="0.4"/>
<path d="M423.989 195.636C420.532 199.089 415.855 201.121 410.975 201.121C410.162 201.121 409.349 201.121 408.535 200.918C403.859 200.308 399.589 197.668 396.539 193.808C395.929 192.996 395.522 192.183 395.115 191.371C393.895 189.34 391.455 188.527 389.219 189.543C387.186 190.761 386.372 193.199 387.389 195.433C387.999 196.652 388.812 197.871 389.626 198.886C394.099 204.777 400.402 208.433 407.315 209.449C408.535 209.652 409.755 209.652 410.975 209.652C418.092 209.652 424.802 206.808 430.089 201.73C431.715 200.105 431.715 197.261 430.089 195.636C428.462 194.011 425.615 194.011 423.989 195.636Z" fill="#03ACF2" fill-opacity="0.5"/>
<path d="M411.298 122.82L406.418 122.008C403.774 121.601 401.334 123.43 400.928 126.07C400.521 128.711 402.351 131.148 404.994 131.554L409.874 132.367C412.518 132.773 414.958 130.945 415.364 128.305C415.771 125.664 413.941 123.226 411.298 122.82Z" fill="#01579B" fill-opacity="0.49"/>
<path d="M409.146 204.98L405.892 204.371C404.469 204.167 403.046 204.98 402.842 206.605L401.623 212.902C401.419 214.324 402.232 215.745 403.859 215.949L407.112 216.558C408.536 216.761 409.959 215.949 410.162 214.324L411.382 208.027C411.586 206.605 410.772 205.183 409.146 204.98Z" fill="#4CAF50" fill-opacity="0.4"/>
<rect x="134.779" y="240.796" width="44.4878" height="0.978659" fill="#6C63FF" fill-opacity="0.1"/>
<path d="M152.941 235.244L152.276 238.049C152.276 238.049 146.948 235.357 145.988 231.936C145.027 228.516 147.595 227.217 147.595 227.217L152.559 229.299L152.941 235.244Z" fill="white"/>
<path d="M152.941 235.244L152.276 238.049C152.276 238.049 146.948 235.357 145.988 231.936C145.027 228.516 147.595 227.217 147.595 227.217L152.559 229.299L152.941 235.244Z" fill="black" fill-opacity="0.1"/>
<path d="M123.044 330.705C123.044 330.705 118.117 332.498 114.73 332.723C112.931 332.842 111.986 331.751 111.499 330.699C111.234 330.114 111.062 329.492 110.991 328.854L111.432 324.022L111.666 321.449L118.862 319.598L119.881 322.684L119.977 322.918C120.386 323.949 122.028 328.141 121.978 329.016C121.974 329.468 122.157 329.904 122.483 330.22C122.649 330.405 122.837 330.568 123.044 330.705Z" fill="white"/>
<path d="M156.698 328.247C156.71 328.394 156.695 328.542 156.655 328.683C156.614 328.825 146.117 330.424 143.961 328.683C142.733 327.656 141.122 327.188 139.527 327.397C137.933 327.606 135.45 327.506 134.769 326.177C134.486 325.619 134.56 324.537 134.736 323.47C134.914 322.47 135.153 321.481 135.45 320.51L135.613 320.381L136.583 319.61L147.94 319.278H148.026C147.971 321.577 151.881 324.214 151.881 324.214C156.036 325.738 156.648 327.461 156.698 328.247Z" fill="white"/>
<path d="M156.698 328.248C156.709 328.395 156.693 328.542 156.652 328.684C156.611 328.825 146.117 330.424 143.962 328.684C142.734 327.656 141.124 327.189 139.53 327.397C137.937 327.605 135.45 327.507 134.773 326.178C134.489 325.617 134.56 324.537 134.736 323.47C136.306 323.626 138.785 324.013 139.758 324.937C141.23 326.342 143.725 327.745 145.255 327.854C146.453 327.931 153.619 328.156 156.698 328.248Z" fill="black" fill-opacity="0.1"/>
<path d="M123.043 330.705C123.043 330.705 118.116 332.498 114.729 332.723C112.931 332.842 111.985 331.751 111.502 330.696C112.755 331.113 114.495 331.552 115.41 331.15C116.494 330.674 120.337 330.366 122.492 330.235C122.656 330.413 122.841 330.571 123.043 330.705Z" fill="black" fill-opacity="0.1"/>
<path d="M130.354 186.238C126.289 184.674 121.061 179.507 122.366 177.092C122.656 176.483 122.828 175.825 122.874 175.153C122.958 174.241 122.971 173.323 122.911 172.409C122.82 170.912 122.638 169.421 122.366 167.946C122.095 166.47 135.056 168.229 134.317 170.08C134.102 170.623 134.068 171.565 134.126 172.62C134.185 173.674 134.339 174.866 134.499 175.876C134.721 177.26 134.942 178.315 134.942 178.315C134.942 178.315 134.166 179.391 133.711 179.449C133.255 179.507 136.186 188.467 130.354 186.238Z" fill="#FFF3E0"/>
<path d="M119.967 322.918L119.872 323.022C116.078 318.479 111.49 324.141 111.49 324.141L111.422 324.022L111.656 321.449L118.852 319.598L119.872 322.684L119.967 322.918Z" fill="black" fill-opacity="0.1"/>
<path d="M148.03 319.598C148.03 319.598 145.258 319.54 143.78 320.833C142.302 322.125 135.158 321.113 135.466 320.833C135.557 320.694 135.612 320.535 135.626 320.369L136.596 319.598L147.953 319.266C147.996 319.47 148.03 319.598 148.03 319.598Z" fill="black" fill-opacity="0.1"/>
<path d="M124.688 283.924C124.482 284.429 124.325 284.953 124.22 285.488C123.963 286.953 123.892 288.445 124.008 289.927C124.122 292.061 124.008 306.363 124.008 306.363C124.008 306.363 121.572 310.177 120.214 311.522C118.856 312.866 122.985 315.281 122.985 315.281C123.601 318.757 119.869 322.683 119.869 322.683C116.075 318.141 111.487 323.805 111.487 323.805C111.487 323.805 108.993 319.537 108.371 318.013C107.749 316.488 110.807 315.433 111.881 314.814C112.956 314.196 111.829 310.546 111.829 310.546C111.829 310.546 110.92 307.348 109.843 304.43C108.765 301.513 111.031 286.988 111.031 286.988C111.031 286.988 111.148 284.409 111.429 283.51C111.57 282.86 111.598 282.192 111.512 281.534C111.493 281.311 111.472 281.125 111.456 281C111.441 280.875 111.429 280.817 111.429 280.817L111.472 280.744L113.011 277.903C113.011 277.903 125.427 282.135 124.688 283.924Z" fill="#01579B"/>
<path d="M148.03 319.263C148.03 319.263 145.258 319.205 143.78 320.482C142.302 321.76 135.158 320.763 135.466 320.482C135.774 320.202 135.749 318.126 135.749 318.126C131.558 312.461 135.133 310.162 135.133 310.162C135.133 310.162 133.261 301.245 132.922 297.937C132.685 295.626 132.393 289.415 132.236 285.87C132.168 284.345 132.128 283.296 132.128 283.296L135.552 282.613L135.993 282.525L144.251 280.885C144.251 280.885 144.479 282.409 144.633 283.656C144.71 284.188 144.753 284.725 144.763 285.263C144.707 285.873 144.763 287.781 144.763 287.781L145.043 293.504C144.86 294.104 144.765 294.727 144.763 295.354C144.818 296.083 145.893 306.516 145.893 306.516C145.893 306.516 147.762 312.741 147.124 313.19C146.487 313.638 148.03 319.263 148.03 319.263Z" fill="#01579B"/>
<path d="M134.318 170.079C134.102 170.622 134.068 171.564 134.127 172.619C130.664 174.684 126.294 174.603 122.912 172.412C122.82 170.914 122.638 169.422 122.367 167.945C122.095 166.468 135.057 168.223 134.318 170.079Z" fill="black" fill-opacity="0.1"/>
<path d="M139.223 163.342C139.225 164.44 139.051 165.532 138.706 166.577C137.294 170.857 133.236 173.771 128.688 173.771C123.004 173.771 118.292 169.218 118.154 163.592V163.342C118.153 163.282 118.152 163.223 118.152 163.163C118.152 157.44 122.909 152.73 128.69 152.73C134.471 152.73 139.228 157.44 139.228 163.163C139.228 163.223 139.227 163.282 139.226 163.342H139.223Z" fill="#FFF3E0"/>
<path d="M130.354 186.238C126.289 184.674 121.061 179.506 122.366 177.091C122.656 176.482 122.828 175.824 122.874 175.152L128.439 179.68L131.881 182.476L134.499 175.878C134.721 177.262 134.942 178.317 134.942 178.317C134.942 178.317 134.166 179.393 133.711 179.451C133.255 179.509 136.186 188.466 130.354 186.238Z" fill="black" fill-opacity="0.1"/>
<path d="M144.744 206.247L140.097 283.534L134.037 283.927L118.345 239.113L120.919 185.909L121.461 174.668L128.439 180.342L131.885 183.137L134.579 176.348L139.589 180.671L144.744 206.247Z" fill="#03ACF2"/>
<path d="M124.688 283.924C124.482 284.429 124.325 284.953 124.22 285.488C119.811 284.814 115.528 283.489 111.515 281.558L111.432 281.516L111.459 281.025L111.475 280.769L113.014 277.927C113.014 277.927 125.427 282.135 124.688 283.924Z" fill="black" fill-opacity="0.1"/>
<path d="M135.623 285.5C134.496 285.69 133.359 285.818 132.217 285.885C132.149 284.36 132.109 283.311 132.109 283.311L135.534 282.628L135.623 285.5Z" fill="black" fill-opacity="0.1"/>
<path d="M144.614 283.671C142.425 284.235 139.044 284.869 136.017 284.473L135.974 282.54L144.233 280.9C144.233 280.9 144.46 282.409 144.614 283.671Z" fill="black" fill-opacity="0.1"/>
<path d="M135.623 284.827C122.998 286.961 111.431 280.842 111.431 280.842L111.545 278.769C111.545 278.769 111.832 255.266 111.034 253.464C110.237 251.662 109.621 242.525 110.073 241.122C110.526 239.72 108.432 218.689 108.432 218.689L108.09 210.153L95.6865 205.162L101.229 193.723C101.976 192.118 102.62 190.469 103.157 188.784C104.118 185.814 108.595 182.897 108.595 182.897C108.595 182.897 113.184 179.982 114.994 180.092C116.805 180.202 119.185 177.513 119.185 177.513C120.944 173.083 122.881 175.089 122.881 175.089C122.881 175.299 122.696 175.394 122.794 175.744C124.149 180.461 132.414 195.973 132.565 196.244L133.584 220.531L134.604 251.266L135.623 284.827Z" fill="white"/>
<path d="M132.22 196.936C130.862 196.375 123.668 188.244 123.668 188.244V186.394C123.406 185.784 121.851 186.156 120.589 186.583L121.131 175.342L121.747 175.848C123.095 180.561 132.063 196.665 132.22 196.936Z" fill="black" fill-opacity="0.1"/>
<path d="M132.562 196.262C131.201 195.702 124.007 187.57 124.007 187.57V185.72C123.745 185.11 122.19 185.482 120.928 185.909L121.473 174.668L122.089 175.174C123.441 179.887 132.411 195.994 132.562 196.262Z" fill="white"/>
<path d="M111.773 236.814C111.942 236.814 120.552 235.918 120.552 235.918C120.552 235.918 125.766 246.067 125.424 248.537C125.082 251.006 124.463 253.192 122.366 252.805C120.269 252.418 111.08 253.11 111.08 253.11L111.773 236.814Z" fill="black" fill-opacity="0.1"/>
<path d="M111.431 236.14C111.601 236.14 120.21 235.244 120.21 235.244C120.21 235.244 125.421 245.397 125.082 247.863C124.743 250.33 124.118 252.519 122.024 252.131C119.93 251.744 110.738 252.436 110.738 252.436L111.431 236.14Z" fill="white"/>
<path d="M117.919 231.375C117.919 231.375 125.821 235.58 125.99 236.863C126.16 238.147 121.969 236.302 121.063 236.08C120.467 235.938 119.861 235.844 119.25 235.799L113.211 235.961L117.919 231.375Z" fill="#FFF3E0"/>
<ellipse cx="130.015" cy="196.638" rx="0.831432" ry="0.823171" fill="black" fill-opacity="0.1"/>
<ellipse cx="130.015" cy="196.303" rx="0.831432" ry="0.823171" fill="#3F3D56"/>
<ellipse cx="131.545" cy="232.272" rx="0.831432" ry="0.823171" fill="black" fill-opacity="0.1"/>
<ellipse cx="131.545" cy="231.934" rx="0.831432" ry="0.823171" fill="#3F3D56"/>
<ellipse cx="130.843" cy="214.455" rx="0.831432" ry="0.823171" fill="black" fill-opacity="0.1"/>
<ellipse cx="130.843" cy="214.119" rx="0.831432" ry="0.823171" fill="#3F3D56"/>
<path d="M150.01 235.628C150.01 235.628 150.577 236.47 150.01 236.863C149.443 237.256 150.065 238.208 150.065 238.208C150.065 238.208 148.652 239.028 149.274 239.766C149.896 240.503 149.502 243.836 149.502 243.836L147.802 246.622C147.802 246.622 147.904 248.418 147.91 250.845C147.91 254.631 147.685 259.955 146.441 262.381L146.613 282.293C146.613 282.293 140.661 284.445 135.679 283.79L134.94 251.839C134.94 251.839 136.017 233.72 136.415 230.244C136.647 228.44 136.742 226.621 136.698 224.802C136.654 222.984 136.528 219.363 135.959 216.839C135.959 216.839 135.343 205.903 135.281 202.875C135.254 201.427 135.331 197.202 135.417 193.183C135.512 188.79 135.62 184.647 135.62 184.647L134.496 175.842C134.496 175.842 135.62 175.729 135.959 176.177C136.111 176.317 136.276 176.443 136.451 176.552C138.392 177.851 145.246 181.845 145.246 181.845C145.246 181.845 149.04 183.339 149.948 185.479C150.857 187.619 151.488 189.137 151.928 189.747C152.369 190.357 152.609 193.223 152.609 193.223C152.609 193.223 153.915 198.497 154.934 199.391C155.953 200.284 156.698 205.967 156.698 205.967L147.691 212.979C147.691 212.979 146.9 224.644 146.73 225.095C146.561 225.546 150.01 235.628 150.01 235.628Z" fill="white"/>
<path d="M150.352 235.629C150.352 235.629 150.915 236.47 150.352 236.864C149.788 237.257 150.404 238.208 150.404 238.208C150.404 238.208 149 239.037 149.616 239.775C150.232 240.513 149.844 243.845 149.844 243.845L148.144 246.632C148.144 246.632 148.246 248.428 148.255 250.854C148.255 254.641 148.03 259.964 146.786 262.391L146.955 282.303C146.955 282.303 140.994 284.455 136.017 283.8L135.281 251.848C135.281 251.848 136.359 233.729 136.756 230.254C136.989 228.45 137.083 226.63 137.037 224.812C136.99 222.993 136.867 219.373 136.301 216.848C136.301 216.848 135.685 205.912 135.62 202.885C135.592 201.437 135.672 197.211 135.756 193.193C135.851 188.8 135.959 184.656 135.959 184.656L134.475 175.732C134.475 175.732 135.959 175.732 136.301 176.187C136.451 176.329 136.616 176.454 136.793 176.562C138.733 177.86 145.591 181.854 145.591 181.854C145.591 181.854 149.382 183.348 150.29 185.489C151.199 187.629 151.83 189.147 152.273 189.757C152.717 190.367 152.951 193.232 152.951 193.232C152.951 193.232 154.257 198.507 155.276 199.4C156.295 200.293 157.031 205.964 157.031 205.964L148.024 212.976C148.024 212.976 147.232 224.641 147.06 225.092C146.888 225.543 150.352 235.629 150.352 235.629Z" fill="white"/>
<path d="M139.565 187.244L140.378 189.591L136.097 193.86C136.193 189.47 136.301 185.323 136.301 185.323L134.816 176.399C134.816 176.399 136.301 176.399 136.642 176.854C136.792 176.995 136.957 177.12 137.135 177.226L140.775 187.622L139.565 187.244Z" fill="black" fill-opacity="0.1"/>
<path d="M139.223 186.57L140.039 188.918L135.759 193.186C135.854 188.793 135.962 184.649 135.962 184.649L134.475 175.726C134.475 175.726 135.962 175.726 136.301 176.18C136.452 176.321 136.617 176.447 136.793 176.555L140.436 186.948L139.223 186.57Z" fill="white"/>
<path d="M139.223 163.342C139.225 164.44 139.051 165.532 138.706 166.577C138.588 166.595 138.468 166.565 138.373 166.494C138.293 163.75 136.929 161.174 135.251 158.982C134.779 158.32 134.208 157.734 133.557 157.244C132.899 156.755 132.079 156.525 131.26 156.601C130.336 156.726 129.52 157.348 128.587 157.427C127.355 157.528 126.253 156.683 125.03 156.641C124.025 156.65 123.072 157.088 122.416 157.842C121.773 158.594 121.296 159.47 121.015 160.415C120.531 161.847 120.267 163.344 120.232 164.854C120.217 165.708 120.134 166.778 119.333 167.089C119.455 165.82 119.034 164.557 118.172 163.61L118.154 163.592V163.342C118.153 163.282 118.152 163.223 118.152 163.163C118.152 157.44 122.909 152.73 128.69 152.73C134.471 152.73 139.228 157.44 139.228 163.163C139.228 163.223 139.227 163.282 139.226 163.342H139.223Z" fill="black" fill-opacity="0.1"/>
<path d="M133.052 146.778C131.452 146.033 129.631 145.892 127.934 146.381C127.081 146.631 126.277 147.037 125.412 147.241C123.564 147.683 121.409 147.205 119.823 148.275C118.942 148.885 118.413 149.848 117.92 150.784L116.688 153.107C116.017 154.378 115.339 155.671 115.059 157.07C114.779 158.47 114.948 160.037 115.844 161.162C116.497 161.982 117.461 162.497 118.169 163.269C119.027 164.217 119.447 165.477 119.327 166.744C120.131 166.439 120.208 165.366 120.226 164.513C120.261 163.003 120.524 161.506 121.009 160.074C121.29 159.129 121.767 158.252 122.41 157.5C123.066 156.747 124.019 156.31 125.024 156.299C126.256 156.342 127.361 157.183 128.581 157.083C129.505 157.006 130.324 156.381 131.254 156.26C132.073 156.183 132.893 156.412 133.551 156.903C134.202 157.392 134.772 157.978 135.241 158.641C136.923 160.833 138.287 163.403 138.367 166.153C138.715 166.406 139.217 166.077 139.389 165.686C139.562 165.296 139.568 164.839 139.787 164.467C140.039 164.037 140.523 163.808 140.901 163.485C141.862 162.665 142.102 161.284 142.065 160.031C142.028 158.778 141.782 157.506 142.022 156.275C142.167 155.519 142.493 154.811 142.672 154.064C142.851 153.317 142.872 152.479 142.45 151.836C141.834 150.891 140.538 150.705 139.408 150.616C138.124 150.506 136.975 150.647 136.156 149.577C135.771 149.018 135.339 148.494 134.863 148.01C134.699 147.851 133.052 146.845 133.052 146.778Z" fill="#212121"/>
<path d="M96.5332 204.51L95.6833 205.18L94.6641 214.269C94.6641 214.269 95.2307 218.306 95.1167 218.924C95.0028 219.543 97.4417 225.092 97.4417 225.092C97.4417 225.092 105.485 239.281 108.771 240.013L119.875 232.159L116.928 228.458C116.928 228.458 115.909 228.065 115.653 228.458C115.653 228.458 110.187 219.147 109.621 218.473C109.054 217.799 109.168 216.455 109.168 216.455C109.168 216.455 108.318 215.559 108.601 214.717C108.885 213.876 106.957 210.958 106.957 210.958L108.712 209.333L96.5332 204.51Z" fill="white"/>
<path d="M149.274 240.113C149.89 240.854 149.502 244.18 149.502 244.18L147.802 246.967C147.802 246.967 147.904 248.765 147.91 251.189L145.052 252.073C144.888 252.124 144.718 252.15 144.546 252.15C143.616 252.15 142.85 251.391 142.85 250.47C142.85 250.453 142.85 250.435 142.851 250.418L143.343 234.683L150.01 237.207C149.443 237.598 150.066 238.555 150.066 238.555C150.066 238.555 148.652 239.372 149.274 240.113Z" fill="black" fill-opacity="0.1"/>
<path d="M149.616 239.775C150.232 240.516 149.844 243.845 149.844 243.845L148.144 246.632C148.144 246.632 148.245 248.427 148.255 250.854L145.345 251.754C145.185 251.803 145.019 251.828 144.851 251.828C143.939 251.828 143.188 251.085 143.188 250.181C143.188 250.165 143.188 250.148 143.189 250.132L143.685 234.348L150.355 236.873C149.785 237.263 150.407 238.217 150.407 238.217C150.407 238.217 149 239.037 149.616 239.775Z" fill="white"/>
<path d="M151.824 232.275C151.824 232.275 151.371 235.138 150.238 235.305C149.105 235.473 148.597 239.936 147.466 239.778C146.336 239.619 147.085 235.628 147.125 234.854C147.165 234.08 145.893 230.872 146.844 230.144C147.796 229.415 150.808 230.144 150.808 230.144L151.824 232.275Z" fill="#FFF3E0"/>
<path d="M154.234 210.229L156.372 205.961C156.372 205.961 157.221 209.214 157.221 210.952C157.221 212.69 158.41 212.86 158.41 212.86C158.41 212.86 159.713 214.385 159.026 215.494C158.339 216.604 158.062 219.366 158.062 219.366C158.062 219.366 158.287 224.638 157.268 225.366C156.248 226.095 156.036 227.836 156.036 227.836C156.036 227.836 154.164 231.144 154.222 231.93C154.281 232.717 151.617 238.043 151.617 238.043C151.617 238.043 152.92 231.424 145.329 228.565C145.329 228.565 145.27 226.318 145.837 225.702C146.404 225.086 147.287 224.805 146.733 221.693C146.179 218.58 146.573 214.86 146.573 214.113C146.573 213.366 148.273 208.708 148.273 208.708L154.234 210.229Z" fill="black" fill-opacity="0.1"/>
<path d="M155.158 205.351L157.024 205.96C157.024 205.96 157.877 209.213 157.877 210.951C157.877 212.689 159.066 212.86 159.066 212.86C159.066 212.86 160.368 214.384 159.682 215.494C158.995 216.604 158.721 219.366 158.721 219.366C158.721 219.366 158.946 224.637 157.926 225.366C156.907 226.094 156.679 227.835 156.679 227.835C156.679 227.835 154.81 231.143 154.869 231.93C154.927 232.716 152.26 238.043 152.26 238.043C152.26 238.043 153.566 231.424 145.972 228.564C145.972 228.564 145.917 226.317 146.483 225.701C147.05 225.085 147.934 224.805 147.379 221.692C146.825 218.579 147.219 214.86 147.219 214.113C147.219 213.366 148.919 208.707 148.919 208.707L155.158 205.351Z" fill="white"/>
<path d="M113.941 315.982C113.941 315.982 116.916 314.131 118.868 315.476C120.821 316.821 113.941 315.982 113.941 315.982Z" fill="black" fill-opacity="0.1"/>
<path d="M137.055 310.26C137.055 310.26 139.688 309.924 141.899 312.281C144.11 314.638 137.055 310.26 137.055 310.26Z" fill="black" fill-opacity="0.1"/>
<path fill-rule="evenodd" clip-rule="evenodd" d="M140.907 162.817C140.528 163.14 140.042 163.372 139.789 163.802C139.573 164.171 139.567 164.625 139.395 165.021C139.222 165.418 138.72 165.741 138.372 165.491C138.292 162.747 136.925 160.171 135.247 157.976C134.778 157.313 134.207 156.727 133.556 156.238C132.897 155.747 132.077 155.518 131.256 155.595C130.332 155.72 129.519 156.341 128.586 156.418C127.354 156.521 126.249 155.677 125.026 155.634C124.022 155.644 123.069 156.084 122.415 156.838C121.772 157.589 121.295 158.465 121.014 159.409C120.53 160.841 120.266 162.338 120.232 163.848C120.213 164.698 120.133 165.759 119.339 166.076C119.357 166.302 119.357 166.528 119.339 166.753C120.14 166.448 120.22 165.375 120.238 164.521C120.272 163.011 120.536 161.515 121.02 160.082C121.301 159.138 121.778 158.261 122.421 157.509C123.077 156.756 124.029 156.318 125.033 156.308C126.264 156.351 127.373 157.192 128.592 157.091C129.516 157.015 130.335 156.39 131.262 156.268C132.083 156.192 132.904 156.421 133.563 156.912C134.213 157.401 134.784 157.987 135.253 158.649C136.931 160.841 138.299 163.412 138.379 166.162C138.727 166.415 139.229 166.085 139.401 165.695C139.573 165.305 139.58 164.848 139.795 164.476C140.048 164.046 140.534 163.817 140.913 163.494C141.874 162.674 142.114 161.293 142.077 160.04V159.924C142.018 161.009 141.726 162.116 140.907 162.817Z" fill="black"/>
<path fill-rule="evenodd" clip-rule="evenodd" d="M118.175 162.601C117.466 161.829 116.499 161.314 115.85 160.497C115.303 159.774 114.99 158.903 114.954 158C114.857 159.128 115.175 160.254 115.85 161.168C116.499 161.988 117.466 162.503 118.175 163.274C118.855 164.029 119.263 164.985 119.336 165.994C119.431 164.754 119.011 163.528 118.175 162.601Z" fill="black"/>
<path fill-rule="evenodd" clip-rule="evenodd" d="M142.678 153.397C142.496 154.144 142.173 154.854 142.025 155.607C141.938 156.11 141.906 156.621 141.93 157.131C141.94 156.841 141.972 156.552 142.025 156.266C142.173 155.509 142.496 154.802 142.678 154.055C142.784 153.643 142.818 153.216 142.78 152.793C142.76 152.996 142.727 153.198 142.678 153.397Z" fill="black"/>
<rect x="487.091" y="193.834" width="9.45373" height="9.34781" fill="#6C63FF" fill-opacity="0.1"/>
<rect x="487.091" y="216.892" width="9.45373" height="9.34781" fill="#6C63FF" fill-opacity="0.1"/>
<rect x="487.091" y="239.946" width="9.45373" height="9.34781" fill="#6C63FF" fill-opacity="0.1"/>
<rect x="487.091" y="263.003" width="9.45373" height="9.34781" fill="#6C63FF" fill-opacity="0.1"/>
<rect x="487.091" y="286.06" width="9.45373" height="9.34781" fill="#6C63FF" fill-opacity="0.1"/>
<path d="M516.379 322.656L515.983 327.313L517.31 327.05L517.11 321.999L516.379 322.656Z" fill="#1D2366"/>
<path d="M486.12 300.542C484.522 305.045 484.974 311.122 485.333 314.074C485.466 315.165 485.589 315.829 485.589 315.829C485.589 315.829 483.199 321.213 482.999 321.417C482.8 321.621 475.965 325.746 475.965 325.746L471.189 328.503C471.189 328.503 466.342 326.403 468.666 325.68C469.14 325.492 469.568 325.203 469.919 324.835C472.246 322.649 475.168 317.216 475.168 317.216C475.168 317.216 475.367 314.459 476.098 313.147C476.83 311.836 476.564 298.054 476.564 298.054L476.62 275.588V272.66L485.712 272.725C485.769 273.72 485.9 274.708 486.104 275.684C486.43 277.367 486.853 279.031 487.37 280.666C488.973 285.791 488.308 294.373 486.12 300.542Z" fill="#FFD8D8"/>
<path d="M485.589 315.829C485.589 315.829 483.199 321.213 482.999 321.417C482.8 321.621 475.965 325.746 475.965 325.746L471.189 328.503C471.189 328.503 466.342 326.403 468.666 325.68C469.14 325.492 469.568 325.203 469.919 324.835L470.125 326.272L471.717 326.206L485.346 314.081C485.466 315.165 485.589 315.829 485.589 315.829Z" fill="black" fill-opacity="0.1"/>
<path d="M485.422 314.386L471.717 326.594L470.124 326.659L469.792 324.359C469.792 324.359 467.006 327.902 460.817 327.705C460.817 327.705 457.1 330.134 462.609 330.265C468.117 330.396 475.15 330.068 475.15 330.068C475.15 330.068 480.063 322.508 484.175 323.494V329.203H485.438V323.442C486.625 322.652 487.435 321.416 487.679 320.023C487.901 318.58 487.344 317.122 486.213 316.184C485.71 315.718 485.424 315.067 485.422 314.386Z" fill="#1D2366"/>
<path d="M517.643 307.563C516.759 310.685 517.241 312.444 517.846 313.387V313.407C518.62 314.572 519.162 315.874 519.434 317.243L519.488 317.539L513.252 326.528L509.868 327.843C509.868 327.843 504.426 326.005 505.42 325.48C505.669 325.351 506.058 324.668 506.504 323.724C507.833 320.881 509.668 315.635 509.668 315.635V315.593C509.861 313.427 510.167 311.267 510.506 309.118C511.114 305.249 509.997 295.753 509.997 295.753C509.997 295.753 509.598 284.207 508.734 281.58C508.344 280.245 508.085 278.876 507.96 277.492C507.78 275.848 507.74 274.494 507.74 274.494C507.74 274.494 511.324 269.564 517.892 274.888C518.417 275.313 518.879 275.809 519.265 276.361C523.802 282.744 520.149 296.805 520.149 296.805C520.149 296.805 519.235 301.919 517.643 307.563Z" fill="#FFD8D8"/>
<path d="M519.497 317.538L513.261 326.528L509.878 327.843C509.878 327.843 504.436 326.005 505.43 325.479C505.679 325.351 506.068 324.667 506.514 323.724C508.817 323.704 510.01 325.874 510.01 325.874L512.929 325.414C512.929 325.414 516.778 317.933 517.643 317.476C518.507 317.019 517.776 314.061 517.776 314.061V313.308C517.799 313.334 517.819 313.364 517.845 313.39V313.41C518.62 314.575 519.162 315.877 519.434 317.246L519.497 317.538Z" fill="black" fill-opacity="0.1"/>
<path d="M510.21 326.068C510.21 326.068 508.548 323.051 505.363 324.165C505.363 324.165 503.571 327.78 501.78 328.365C499.988 328.951 500.586 330.923 504.635 330.203C508.684 329.483 514.787 328.888 514.787 328.888L515.053 325.21L519.168 320.027C519.168 320.027 521.621 317.828 517.971 313.499V314.252C517.971 314.252 518.703 317.21 517.838 317.667C516.974 318.124 513.138 325.608 513.138 325.608L510.21 326.068Z" fill="#1D2366"/>
<path d="M485.721 272.719C485.779 273.713 485.91 274.702 486.114 275.677C482.371 275.135 478.897 275.404 476.62 275.582V272.653L485.721 272.719Z" fill="black" fill-opacity="0.1"/>
<path d="M519.633 277.179C519.633 277.179 514.315 277.436 507.972 277.488C507.793 275.845 507.753 274.491 507.753 274.491C507.753 274.491 511.336 269.56 517.905 274.885C518.43 275.31 518.892 275.805 519.278 276.357C519.381 276.638 519.5 276.912 519.633 277.179Z" fill="black" fill-opacity="0.1"/>
<path d="M519.634 276.587C519.634 276.587 496.338 277.701 489.238 275.732C482.138 273.764 475.101 275.47 474.04 275.013C472.98 274.556 473.841 267.4 474.772 265.629C475.702 263.857 480.808 245.94 480.808 245.94L485.721 220.612L490.897 219.202L491.263 219.1L500.281 216.641L506.889 214.837C506.889 214.837 520.029 265.563 518.902 269.303C518.494 270.735 518.427 272.242 518.71 273.704C518.882 274.703 519.192 275.673 519.634 276.587Z" fill="#01579B"/>
<path d="M468.595 203.291C468.595 203.291 463.941 208.221 467.465 210.969C470.989 213.717 473.305 211.232 473.305 211.232L468.595 203.291Z" fill="#C7DAF5"/>
<path d="M468.595 203.291C468.595 203.291 463.941 208.221 467.465 210.969C470.989 213.717 473.305 211.232 473.305 211.232L468.595 203.291Z" fill="black" fill-opacity="0.1"/>
<path d="M506.194 170.876C506.194 170.876 505.649 171.388 504.828 172.144C503.658 173.226 501.926 174.807 500.39 176.131C498.263 177.962 496.508 179.306 497.136 178.159C497.764 177.012 497.645 175.014 497.332 173.143C497.309 173.019 497.289 172.894 497.266 172.772C497.007 171.398 496.664 170.042 496.239 168.71C495.813 167.377 499.676 164.318 501.577 162.586C502.285 161.929 502.78 161.659 502.81 162.116C502.844 162.731 503.309 164.088 503.887 165.528C503.904 165.574 503.921 165.617 503.94 165.663C504.326 166.649 504.762 167.661 505.144 168.535C505.729 169.876 506.194 170.876 506.194 170.876Z" fill="#FFD8D8"/>
<path d="M503.941 165.663C503.284 169.157 500.746 172.03 497.333 173.143C497.068 171.643 496.703 170.162 496.239 168.709C495.775 167.257 502.711 160.443 502.811 162.116C502.834 162.75 503.339 164.157 503.941 165.663Z" fill="black" fill-opacity="0.1"/>
<path d="M496.688 175.352L497.525 174.186C497.525 174.186 498.08 177.532 500.121 176.056C502.162 174.58 502.262 187.162 502.262 187.162L500.072 219.547L484.242 218.611L484.691 202.962L486.483 195.074L490.914 183.606L493.55 179.816L496.688 175.352Z" fill="black" fill-opacity="0.1"/>
<path d="M502.262 187.362L500.267 216.645L500.058 219.747L491.233 219.225L484.252 218.811L484.701 203.159L486.492 195.27L490.923 183.802L493.559 180.013L496.697 175.533L497.535 174.369C497.535 174.369 498.09 177.715 500.131 176.239L500.174 176.21C502.169 174.961 502.262 187.362 502.262 187.362Z" fill="#03ACF2"/>
<path d="M486.715 192.529C486.715 192.529 485.921 194.173 484.325 193.906C482.73 193.64 482.733 199.823 482.733 199.823C482.733 199.823 481.672 200.809 480.941 199.954C480.21 199.1 478.282 201.989 478.282 201.989L466.202 202.515C466.202 202.515 471.577 204.944 470.523 212.293C470.523 212.293 488.773 211.176 489.371 209.47C489.969 207.764 486.715 192.529 486.715 192.529Z" fill="white"/>
<path d="M486.715 192.529C486.715 192.529 485.921 194.173 484.325 193.906C482.73 193.64 482.733 199.823 482.733 199.823C482.733 199.823 481.672 200.809 480.941 199.954C480.21 199.1 478.282 201.989 478.282 201.989L466.202 202.515C466.202 202.515 471.577 204.944 470.523 212.293C470.523 212.293 488.773 211.176 489.371 209.47C489.969 207.764 486.715 192.529 486.715 192.529Z" fill="black" fill-opacity="0.03"/>
<path d="M451.609 206.377L454.794 209.066L481.008 214.512L477.757 211.232L451.609 206.377Z" fill="white"/>
<path d="M496.737 176.388C496.302 177.045 495.055 180.411 494.015 183.349C493.147 185.798 492.422 187.951 492.422 187.951C492.422 187.951 490.73 198.843 489.866 200.812C489.002 202.781 489.471 210.459 489.471 210.459L486.25 229.421C486.25 229.421 484.79 239.199 482.536 245.04C480.313 250.789 477.836 253.484 477.76 253.57C478.757 252.235 484.192 225.96 484.192 225.96L485.987 192.822C485.987 192.822 486.25 189.673 486.515 186.981C486.781 184.289 492.166 180.615 492.166 180.615L497.359 173.314C497.881 174.005 497.531 175.208 496.737 176.388Z" fill="white"/>
<path d="M483.199 218.975C483.199 218.975 475.553 218.646 471.85 214.249C468.147 209.851 480.41 212.493 480.41 212.493L483.597 213.216L483.199 218.975Z" fill="#FFD8D8"/>
<path d="M518.902 269.307C518.493 270.739 518.427 272.246 518.709 273.708C510.369 274.293 501.447 272.065 501.447 272.065C499.785 273.577 495.407 275.805 495.407 275.805L493.021 246.552C491.495 242.608 490.896 221.943 490.896 221.943C490.896 221.943 491.033 220.862 491.229 219.242C491.229 219.202 491.229 219.159 491.246 219.12C491.841 214.594 493.021 206.097 493.599 204.95C494.397 203.373 491.146 199.175 491.146 199.175L492.625 186.702L492.805 185.196C495.923 183.819 498.313 179.421 498.313 179.421L500.147 176.243C502.142 174.978 502.245 187.379 502.245 187.379L500.25 216.661L506.859 214.857C506.859 214.857 520.029 265.567 518.902 269.307Z" fill="black" fill-opacity="0.1"/>
<path d="M527.462 271.328C518.371 275.792 501.847 271.657 501.847 271.657C500.185 273.169 495.807 275.397 495.807 275.397L493.417 246.144C491.894 242.2 491.296 221.536 491.296 221.536C491.296 221.536 493.217 206.117 494.015 204.543C494.248 204.083 494.135 203.399 493.859 202.663C492.503 199.159 492.004 195.386 492.403 191.655L493.041 186.294L493.217 184.792C496.339 183.412 498.729 179.014 498.729 179.014L500.391 176.134L503.449 170.83L504.898 168.318L505.144 168.539L507.022 170.221C507.022 170.221 507.82 170.879 509.017 171.865C511.619 174.034 516.117 177.854 518.437 180.19C520.478 182.248 521.123 190.252 521.309 196.276C521.432 200.244 521.359 203.353 521.359 203.353C519.301 206.702 524.683 233.592 524.683 233.592C525.936 238.789 527.462 271.328 527.462 271.328Z" fill="white"/>
<path d="M510.011 178.948C510.011 178.948 503.771 190.692 504.496 195.155C505.221 199.619 507.282 204.671 506.288 205.851C505.596 206.756 504.514 207.291 503.366 207.294C502.369 207.36 499.709 209.197 499.709 209.394C499.709 209.591 497.253 209.591 495.056 210.512C492.858 211.432 489.614 211.955 489.614 211.955C489.614 211.955 483.298 211.757 482.71 212.349C482.122 212.941 481.517 216.481 482.777 219.304C484.036 222.127 485.436 224.234 486.493 224.619C487.55 225.003 494.258 222.781 499.699 222.256C505.141 221.73 511.048 217.467 511.048 217.467C511.048 217.467 517.553 215.166 518.693 211.297C519.834 207.429 517.301 186.166 517.301 186.166C517.301 186.166 515.386 176.256 510.011 178.948Z" fill="black" fill-opacity="0.03"/>
<path d="M509.213 177.962C509.213 177.962 502.974 189.709 503.705 194.169C504.436 198.629 506.491 203.685 505.493 204.868C504.804 205.774 503.722 206.31 502.575 206.311C501.578 206.377 498.918 208.214 498.918 208.411C498.918 208.608 496.462 208.608 494.265 209.525C492.067 210.442 488.823 210.968 488.823 210.968C488.823 210.968 482.507 210.771 481.922 211.363C481.337 211.954 480.726 215.498 481.989 218.318C483.252 221.138 484.648 223.248 485.705 223.633C486.762 224.017 493.47 221.795 498.912 221.273C504.353 220.75 510.26 216.48 510.26 216.48C510.26 216.48 516.762 214.18 517.889 210.314C519.016 206.449 516.496 185.18 516.496 185.18C516.496 185.18 514.588 175.273 509.213 177.962Z" fill="black" fill-opacity="0.03"/>
<path d="M509.815 178.357C509.815 178.357 503.575 190.104 504.307 194.564C505.038 199.024 507.092 204.079 506.098 205.259C505.409 206.168 504.325 206.705 503.176 206.706C502.179 206.771 499.52 208.609 499.52 208.803C499.52 208.997 497.067 209 494.866 209.92C492.666 210.84 489.425 211.363 489.425 211.363C489.425 211.363 483.109 211.166 482.521 211.758C481.932 212.349 481.327 215.892 482.587 218.712C483.847 221.533 485.246 223.643 486.303 224.027C487.36 224.412 494.068 222.19 499.51 221.664C504.952 221.138 510.858 216.875 510.858 216.875C510.858 216.875 517.364 214.574 518.504 210.706C519.644 206.837 517.128 185.574 517.128 185.574C517.128 185.574 515.186 175.681 509.815 178.357Z" fill="white"/>
<path d="M509.678 209.865C509.678 209.865 504.692 208.879 506.427 210.522C508.162 212.165 508.152 213.605 510.277 213.539C512.401 213.474 509.678 209.865 509.678 209.865Z" fill="black" fill-opacity="0.1"/>
<path d="M518.104 245.224C518.104 245.224 515.851 246.733 520.162 250.21C524.473 253.688 518.104 245.224 518.104 245.224Z" fill="black" fill-opacity="0.1"/>
<path d="M513.803 257.625C513.803 257.823 513.005 264.857 515.99 266.615C518.975 268.373 513.803 257.625 513.803 257.625Z" fill="black" fill-opacity="0.1"/>
<path d="M466.409 202.498C464.002 202.58 458.803 203.307 461.499 208.28C463.882 212.681 467.888 209.739 470.142 207.507C469.592 205.427 468.255 203.633 466.409 202.498Z" fill="#FFD8D8"/>
<path d="M470.268 207.647L470.45 207.461L470.268 207.647Z" fill="#FFB0B1"/>
<path d="M509.017 172.066C506.464 173.791 504.323 175.247 503.904 175.55C502.761 176.388 500.58 181.308 499.174 183.82C498.054 185.841 494.414 186.36 493.041 186.488L493.217 184.986C496.339 183.606 498.729 179.208 498.729 179.208L504.898 168.513L507.022 170.422C507.022 170.422 507.82 171.08 509.017 172.066Z" fill="black" fill-opacity="0.1"/>
<path d="M509.017 171.869C506.464 173.594 504.323 175.05 503.904 175.356C502.761 176.191 500.58 181.111 499.174 183.622C498.054 185.644 494.414 186.163 493.041 186.291L493.217 184.789C496.339 183.409 498.729 179.011 498.729 179.011L504.898 168.315L507.022 170.219C507.022 170.219 507.82 170.869 509.017 171.869Z" fill="#DCE7FF"/>
<path d="M504.103 163.493C504.105 165.466 503.499 167.393 502.368 169.018C500.531 171.661 497.487 173.244 494.244 173.244C488.835 173.244 484.385 168.843 484.385 163.495C484.385 158.147 488.835 153.746 494.244 153.746C499.652 153.746 504.102 158.146 504.103 163.493Z" fill="#FFD8D8"/>
<path d="M521.309 196.28C519.959 195.459 518.859 194.291 518.128 192.901C517.573 191.816 517.204 190.564 516.256 189.795C515.402 189.104 514.262 188.937 513.198 188.628C509.701 187.606 506.769 184.45 506.66 180.848C506.607 179.152 507.142 177.459 506.899 175.78C506.761 174.829 506.379 173.929 505.789 173.166C505.496 172.802 505.174 172.46 504.828 172.144C504.363 171.71 503.874 171.29 503.449 170.83C503.181 170.545 502.946 170.23 502.751 169.893C502.592 169.617 502.464 169.324 502.368 169.022C501.703 167.01 502.308 164.624 501.577 162.589L501.537 162.478C501.261 161.755 500.7 161.031 499.918 160.976C499.137 160.92 498.469 161.561 497.725 161.847C496.166 162.445 494.484 161.426 493.184 160.387C491.884 159.349 490.418 158.162 488.766 158.392C487.672 158.547 486.808 159.283 485.801 159.664C485.574 159.751 485.339 159.818 485.1 159.865C486.595 156.176 490.229 153.746 494.248 153.746C499.654 153.746 504.103 158.146 504.103 163.492C504.103 163.493 504.103 163.495 504.103 163.497C504.104 164.181 504.032 164.863 503.887 165.531C503.904 165.577 503.921 165.62 503.941 165.666C504.326 166.652 504.762 167.664 505.144 168.539L507.022 170.221C507.022 170.221 507.82 170.879 509.016 171.865C511.619 174.034 516.117 177.854 518.437 180.19C520.478 182.255 521.116 190.255 521.309 196.28Z" fill="black" fill-opacity="0.1"/>
<path d="M485.684 153.659C486.16 152.703 486.396 151.631 486.964 150.724C487.799 149.409 489.254 148.568 490.75 148.058C494.656 146.727 502.91 144.794 505.376 148.058C505.862 148.716 506.264 149.445 506.935 149.899C507.447 150.244 508.066 150.392 508.627 150.652C510.2 151.381 511.203 152.972 511.739 154.596C512.274 156.22 512.433 157.962 512.826 159.635C513.328 161.781 514.208 163.815 515.086 165.837C516.12 168.223 517.217 170.698 519.211 172.384C521.934 174.685 522.535 177.942 525.062 180.467C528.053 183.464 527.957 188.411 526.415 192.339C526.212 192.855 525.982 193.394 526.062 193.943C526.142 194.492 526.554 194.991 526.943 195.428L528.579 197.253C524.709 198.176 520.331 196.178 518.53 192.671C517.975 191.586 517.606 190.337 516.655 189.565C515.804 188.874 514.661 188.71 513.6 188.401C510.103 187.376 507.171 184.217 507.062 180.615C507.008 178.922 507.544 177.229 507.301 175.553C507.166 174.596 506.782 173.69 506.187 172.923C505.273 171.743 503.894 170.951 503.149 169.637C501.889 167.438 502.847 164.581 501.939 162.221C501.66 161.498 501.102 160.775 500.32 160.719C499.539 160.663 498.871 161.304 498.123 161.59C496.567 162.189 494.885 161.173 493.586 160.131C492.286 159.089 490.82 157.906 489.165 158.139C488.071 158.29 487.21 159.027 486.203 159.411C485.458 159.694 483.949 159.947 483.298 159.326C481.922 158.073 485.109 154.829 485.684 153.659Z" fill="#FFC107"/>
<path d="M519.454 191.586C518.896 190.502 518.53 189.253 517.579 188.483C516.729 187.793 515.585 187.626 514.521 187.317C511.028 186.294 508.096 183.136 507.983 179.533C507.93 177.841 508.465 176.145 508.225 174.468C508.086 173.517 507.703 172.618 507.112 171.855C506.194 170.675 504.815 169.883 504.074 168.568C502.814 166.373 503.771 163.517 502.86 161.153C502.584 160.433 502.023 159.71 501.245 159.651C500.467 159.592 499.792 160.24 499.048 160.525C497.492 161.124 495.807 160.105 494.51 159.066C493.214 158.027 491.741 156.841 490.089 157.071C488.996 157.225 488.131 157.962 487.127 158.343C486.383 158.626 484.87 158.882 484.219 158.261C482.849 156.946 486.037 153.709 486.609 152.545C487.084 151.585 487.32 150.517 487.892 149.61C487.922 149.561 487.955 149.511 487.988 149.462C487.561 149.812 487.192 150.227 486.895 150.691C486.326 151.598 486.09 152.663 485.615 153.626C485.04 154.79 481.852 158.037 483.225 159.342C483.89 159.967 485.386 159.71 486.13 159.428C487.127 159.043 487.998 158.307 489.092 158.156C490.754 157.922 492.217 159.109 493.513 160.147C494.809 161.186 496.505 162.205 498.054 161.607C498.798 161.321 499.45 160.677 500.248 160.736C501.045 160.795 501.577 161.515 501.866 162.238C502.774 164.598 501.817 167.454 503.076 169.653C503.821 170.945 505.201 171.753 506.115 172.94C506.709 173.706 507.093 174.613 507.228 175.569C507.471 177.246 506.936 178.938 506.989 180.631C507.099 184.247 510.03 187.392 513.527 188.418C514.581 188.727 515.731 188.891 516.582 189.581C517.536 190.354 517.912 191.603 518.457 192.687C520.259 196.194 524.637 198.193 528.506 197.269L527.735 196.408C524.381 196.457 520.987 194.571 519.454 191.586Z" fill="black" fill-opacity="0.1"/>
<path d="M496.538 176.585C496.102 177.242 494.856 180.608 493.815 183.546C492.841 183.171 491.957 180.782 491.957 180.782L497.149 173.479C497.681 174.202 497.332 175.401 496.538 176.585Z" fill="black" fill-opacity="0.1"/>
<path d="M496.737 176.388C496.301 177.045 495.055 180.411 494.014 183.35C493.04 182.978 492.156 180.585 492.156 180.585L497.348 173.285C497.88 174.005 497.531 175.208 496.737 176.388Z" fill="#DCE7FF"/>
<path d="M466.548 209.966L463.669 200.989C463.643 200.907 463.629 200.82 463.629 200.734C463.629 200.369 463.87 200.044 464.221 199.934C464.664 199.798 465.143 200.043 465.285 200.48L468.164 209.446L467.878 211.323L466.548 209.966Z" fill="#BE8B87"/>
<path d="M463.942 200.201C464.386 200.062 464.867 200.308 465.009 200.747L467.888 209.713L467.671 211.12L467.881 211.337L468.167 209.46L465.271 200.494C465.13 200.057 464.651 199.811 464.208 199.948C464.028 200.006 463.872 200.122 463.766 200.277C463.822 200.247 463.881 200.221 463.942 200.201Z" fill="white" fill-opacity="0.1"/>
<path d="M466.548 209.966L468.163 209.46L467.927 210.998L467.877 211.337L467.405 210.85L466.548 209.966Z" fill="#EFC8C4"/>
<path d="M467.405 210.855C467.438 210.818 467.479 210.788 467.525 210.766C467.581 210.734 467.652 210.734 467.708 210.766C467.734 210.794 467.756 210.825 467.773 210.859C467.825 210.935 467.914 210.987 468.014 211L467.956 211.344L467.405 210.855Z" fill="#727A9C"/>
<path d="M463.652 204.178C463.652 204.178 469.426 204.145 468.067 206.574C466.707 209.003 464.583 209.295 464.583 209.295L463.652 204.178Z" fill="#FFD8D8"/>
<path d="M559.57 288.016C559.824 288.181 560.083 288.334 560.344 288.5V288.34H562.572V289.773L563.045 290.025V288.34H565.273V291.094C565.316 291.119 565.361 291.138 565.407 291.152V288.016H559.57Z" fill="#6C63FF" fill-opacity="0.1"/>
<path fill-rule="evenodd" clip-rule="evenodd" d="M61.3798 279.638C63.1575 274.878 67.3813 270.522 70.1658 272.603C72.9493 274.685 70.1058 278.936 66.9695 283.259C65.0407 285.917 64.7984 286.657 64.1868 288.525C63.8038 289.695 63.2758 291.308 62.0979 294.111C60.0124 299.076 55.5236 300.219 52.8783 300.445C54.3621 298.383 55.7782 296.273 57.1446 294.133C57.1504 294.132 57.1562 294.131 57.1619 294.13C57.1798 294.127 57.1972 294.124 57.2165 294.115C57.3883 294.028 57.5611 293.943 57.7338 293.858C58.6399 293.41 59.5459 292.963 60.3176 292.292C60.5867 292.058 60.2462 291.619 59.9772 291.853C59.2953 292.444 58.5073 292.856 57.7085 293.25C60.5592 288.713 63.1725 284.024 65.6067 279.248C65.7687 278.927 65.2534 278.729 65.0914 279.045C63.0354 283.08 60.8474 287.047 58.4991 290.916C58.5358 290.384 58.5859 289.853 58.636 289.322C58.7525 288.089 58.8688 286.856 58.8167 285.614C58.8017 285.255 58.2549 285.339 58.2693 285.695C58.3203 286.891 58.2039 288.079 58.0876 289.267C58.0256 289.9 57.9635 290.533 57.9268 291.167C57.9175 291.335 58.036 291.437 58.1653 291.461C56.3038 294.497 54.3451 297.471 52.2554 300.357C52.0828 300.895 51.8245 301.419 51.586 301.903C51.5572 301.961 51.5286 302.019 51.5005 302.076C51.1494 302.791 51.057 303.251 50.9512 303.777C50.8802 304.129 50.8032 304.512 50.6381 305.022L49.7332 313.48C49.7327 313.478 49.6226 313.479 49.5029 313.48C49.36 313.481 49.2034 313.483 49.2034 313.48C49.3419 313.101 49.4637 310.934 49.5929 308.633C49.7437 305.949 49.9047 303.084 50.1145 302.663C50.2193 302.452 50.3402 302.23 50.4656 302C50.726 301.521 51.0063 301.006 51.2046 300.484C50.9526 300.472 50.8093 300.457 50.8093 300.457C50.8093 300.457 47.7346 295.548 52.5105 289.552C53.7269 288.024 55.068 286.906 56.3577 285.83C58.3888 284.136 60.2922 282.549 61.3798 279.638ZM49.2034 313.48C49.1116 312.857 48.9818 312.381 48.8501 311.899C48.6173 311.046 48.3786 310.172 48.3337 308.424C48.178 302.372 48.8035 293.102 49.146 289.326C49.0492 289.373 48.9949 289.397 48.9949 289.397C48.9949 289.397 48.535 289.138 47.8769 288.628C47.8417 285.002 47.9684 281.381 48.2157 277.767C48.3332 277.824 48.4884 277.811 48.5784 277.667C48.9147 277.131 49.23 276.58 49.5453 276.03C50.1377 274.996 50.7301 273.962 51.4617 273.019C51.6801 272.739 51.2838 272.347 51.0628 272.631C50.3012 273.613 49.6832 274.685 49.0645 275.757C48.7998 276.216 48.5349 276.676 48.2587 277.128C48.5841 272.606 49.1005 268.096 49.7591 263.609C49.8108 263.257 49.2764 263.115 49.2246 263.47C48.4439 268.782 47.8572 274.128 47.5525 279.489C47.1308 278.699 46.7257 277.904 46.5157 277.023C46.4308 276.673 45.9005 276.831 45.9848 277.18C46.2247 278.18 46.7049 279.079 47.1857 279.978C47.2754 280.146 47.365 280.314 47.4531 280.482C47.4644 280.502 47.4779 280.515 47.4915 280.529C47.494 280.532 47.4966 280.534 47.4992 280.537C47.374 283.08 47.3041 285.625 47.3202 288.174C45.2998 286.437 42.312 282.873 43.4859 277.613C44.1486 274.643 44.6514 273.022 45.0161 271.846C45.5985 269.968 45.8292 269.224 45.7981 265.931C45.7474 260.575 45.8927 255.45 49.3581 255.392C52.8235 255.334 53.7403 261.357 52.4344 266.269C51.6363 269.274 52.2664 271.682 52.9387 274.251C53.3655 275.883 53.8094 277.579 53.9156 279.534C54.2049 284.864 51.7215 287.545 50.175 288.688C50.1433 289.093 50.1075 289.544 50.0686 290.034C49.5817 296.161 48.6103 308.386 49.2034 313.48ZM44.5196 300.804C44.353 301.107 44.2056 301.343 44.0933 301.51C44.4835 302.617 45.4478 307.028 46.0014 309.56C46.1503 310.241 46.2695 310.786 46.3397 311.095L45.7324 311.442C45.4116 310.053 43.6153 303.059 43.1403 301.719C41.6673 301.475 38.4157 300.402 36.7026 295.71C36.1271 294.134 35.905 292.647 35.6914 291.216C35.3551 288.964 35.0398 286.852 33.3992 284.76C30.7182 281.341 29.4123 276.286 32.1591 275.146C34.9068 274.005 36.7482 277.99 38.5109 282.224C39.5943 284.826 40.0267 285.333 41.1169 286.611C41.8004 287.413 42.7425 288.517 44.2656 290.63C46.9616 294.37 45.81 298.198 44.8057 300.256C43.9583 298.246 43.0477 296.265 42.0937 294.306C42.0952 294.301 42.0971 294.295 42.0991 294.289C42.1035 294.276 42.1083 294.262 42.1097 294.245C42.1223 294.084 42.1363 293.923 42.1503 293.762C42.2261 292.889 42.3021 292.015 42.1532 291.144C42.1014 290.841 41.6306 290.898 41.6824 291.202C41.8117 291.967 41.7631 292.733 41.6968 293.498C39.6517 289.382 37.3892 285.374 34.9834 281.459C34.8225 281.199 34.4495 281.492 34.6104 281.752C36.6405 285.058 38.5647 288.433 40.346 291.881C39.9763 291.62 39.6131 291.349 39.25 291.079C38.4009 290.446 37.5526 289.815 36.623 289.302C36.3539 289.154 36.1739 289.598 36.4393 289.743C37.3336 290.235 38.1487 290.846 38.964 291.458C39.3972 291.783 39.8304 292.109 40.2756 292.416C40.3946 292.498 40.5208 292.455 40.5954 292.369C42.0057 295.131 43.326 297.939 44.5196 300.804Z" fill="#4CAF50"/>
<path d="M57.2872 301.019L38.9 301.334C37.9442 304.055 37.4185 307.247 37.4737 310.651C37.5703 316.659 39.4507 321.944 42.2532 325.127L54.7026 324.915C57.4002 321.638 59.1093 316.291 59.0127 310.284C58.9574 306.88 58.3284 303.707 57.2872 301.019Z" fill="#01579B" fill-opacity="0.6"/>
<ellipse cx="556.616" cy="333.104" rx="37.1162" ry="6.01475" fill="#6C63FF" fill-opacity="0.1"/>
<rect x="568.489" y="249.028" width="1.03824" height="50.9496" fill="#535461"/>
<path d="M581.687 288.915L581.576 290.693L581.417 293.21L581.351 294.255L581.195 296.771L581.127 297.817L580.968 300.333L579.172 328.867C579.011 331.401 576.848 333.401 574.268 333.402H564.931C562.351 333.401 560.189 331.401 560.03 328.867L558.242 300.313L558.083 297.797L558.018 296.752L557.859 294.236L557.793 293.19L557.634 290.674L557.521 288.896C557.518 288.848 557.517 288.801 557.517 288.753C557.517 287.373 558.671 286.237 560.074 286.237C560.075 286.237 560.076 286.237 560.078 286.237H579.175C580.56 286.249 581.693 287.373 581.693 288.737C581.693 288.796 581.691 288.856 581.687 288.915Z" fill="#00838F" fill-opacity="0.6"/>
<path d="M554.419 264.968C564.767 272.328 569.086 283.839 569.086 283.839C569.086 283.839 556.615 283.419 546.264 276.058C535.913 268.698 531.603 257.189 531.603 257.189C531.603 257.189 544.068 257.607 554.419 264.968Z" fill="#4CAF50"/>
<path d="M531.594 257.189C531.594 257.189 544.541 264.252 548.693 270.099C552.845 275.947 569.086 283.839 569.086 283.839" stroke="#535461" stroke-width="0.5"/>
<path d="M562.592 249.237C568.125 253.197 570.438 259.393 570.438 259.393C570.438 259.393 563.769 259.167 558.234 255.208C552.698 251.249 550.39 245.049 550.39 245.049C550.39 245.049 557.056 245.275 562.592 249.237Z" fill="#4CAF50"/>
<path d="M550.39 245.049C550.39 245.049 557.312 248.852 559.531 251.998C561.751 255.145 570.438 259.393 570.438 259.393" stroke="#535461" stroke-width="0.5"/>
<path d="M577.366 260.341C570.828 267.422 569.444 276.675 569.444 276.675C569.444 276.675 578.664 274.446 585.197 267.363C591.73 260.279 593.119 251.028 593.119 251.028C593.119 251.028 583.905 253.261 577.366 260.341Z" fill="#4CAF50"/>
<path d="M593.125 251.031C593.125 251.031 584.607 258.29 582.442 263.29C580.276 268.291 569.444 276.675 569.444 276.675" fill="#4CAF50"/>
<path d="M593.125 251.031C593.125 251.031 584.607 258.29 582.442 263.29C580.276 268.291 569.444 276.675 569.444 276.675" stroke="#535461" stroke-width="0.5"/>
<path d="M326.94 72.7119L330.582 70.6114C328.806 67.4629 328.309 63.7844 329.18 60.2592C331.046 52.7113 338.644 48.0767 346.116 49.9237L345.452 52.6105L354.621 49.8495L347.794 43.1347L347.13 45.8216C337.419 43.421 327.543 49.4459 325.118 59.2551C323.985 63.8391 324.633 68.6186 326.94 72.7119Z" fill="#03ACF2" fill-opacity="0.35"/>
<path d="M339.35 77.2949L340.014 74.6081L330.846 77.3691L337.673 84.0813L338.336 81.397C348.05 83.7982 357.924 77.7701 360.348 67.9635C361.482 63.3794 360.836 58.6006 358.529 54.5073L354.887 56.6078C356.66 59.7557 357.158 63.4316 356.286 66.9594C354.421 74.5047 346.825 79.1426 339.35 77.2949Z" fill="#4CAF50" fill-opacity="0.35"/>
<path d="M471.371 92.2735C474.003 90.149 476.636 88.0223 479.268 85.8955C484.189 88.0799 489.109 90.2619 494.03 92.4463C494.259 95.8426 494.488 99.2367 494.718 102.633C486.935 99.1814 479.153 95.7274 471.371 92.2735Z" fill="#357A38"/>
<path d="M494.331 103.522L470.984 93.1628L471.371 92.2734L494.718 102.633L494.331 103.522Z" fill="#4CAF50"/>
<path d="M469.97 83.6902C474.494 78.6625 479.018 73.6348 483.543 68.6094C490.279 71.5979 497.015 74.5864 503.751 77.5749C503.143 84.34 502.536 91.105 501.929 97.8701C491.276 93.1442 480.623 88.4161 469.97 83.6902Z" fill="#4CAF50" fill-opacity="0.4"/>
<path d="M485.776 77.0031C484.008 76.2196 483.11 75.8233 481.225 74.9869C482.468 73.5629 483.088 72.8532 484.323 71.4385C486.105 72.2288 486.899 72.5813 488.421 73.2542C487.367 74.745 486.837 75.4984 485.776 77.0031Z" fill="white"/>
<path d="M490.669 79.1693C488.951 78.4089 488.096 78.031 486.339 77.2522C487.368 75.7315 487.881 74.9734 488.903 73.4688C490.404 74.1324 491.1 74.4411 492.514 75.0678C491.779 76.6992 491.41 77.5218 490.669 79.1693Z" fill="white"/>
<path d="M495.549 81.3308C493.792 80.552 492.937 80.1741 491.219 79.4138C491.92 77.7478 492.27 76.916 492.966 75.2686C494.379 75.893 495.076 76.2017 496.576 76.8653C496.168 78.6396 495.962 79.5359 495.549 81.3308Z" fill="white"/>
<path d="M500.664 83.593C498.779 82.7589 497.88 82.3603 496.112 81.5792C496.493 79.7704 496.682 78.8671 497.059 77.0791C498.581 77.7542 499.375 78.1045 501.156 78.8948C500.961 80.7612 500.862 81.7036 500.664 83.593Z" fill="white"/>
<path d="M482.772 81.2689C480.726 80.361 479.709 79.9117 477.705 79.0223C478.952 77.5937 479.575 76.8794 480.819 75.4531C482.718 76.2941 483.63 76.6974 485.43 77.4946C484.368 79.0016 483.836 79.7573 482.772 81.2689Z" fill="white"/>
<path d="M488.574 83.8403C486.51 82.9255 485.477 82.467 483.427 81.5592C484.458 80.0338 484.975 79.2711 486.004 77.748C487.795 78.5407 488.67 78.9301 490.429 79.7066C489.688 81.3587 489.316 82.1859 488.574 83.8403Z" fill="white" fill-opacity="0.56"/>
<path d="M494.38 86.416C492.331 85.5058 491.297 85.0496 489.233 84.1325C489.937 82.462 490.289 81.6233 490.99 79.9551C492.749 80.7339 493.624 81.121 495.415 81.9159C495.002 83.7109 494.795 84.6141 494.38 86.416Z" fill="white" fill-opacity="0.56"/>
<path d="M500.101 88.9524C498.098 88.063 497.08 87.6114 495.034 86.7059C495.416 84.8879 495.607 83.98 495.988 82.1689C497.788 82.9662 498.7 83.3694 500.599 84.2104C500.4 86.1022 500.301 87.0538 500.101 88.9524Z" fill="white"/>
<path d="M479.769 85.5335C477.445 84.5012 476.308 83.9966 474.187 83.0542C475.43 81.6302 476.053 80.9159 477.299 79.4873C479.317 80.3813 480.348 80.8399 482.426 81.7615C481.362 83.2708 480.83 84.0265 479.769 85.5335Z" fill="white"/>
<path d="M486.478 88.5106C484.069 87.4415 482.856 86.9023 480.515 85.8631C481.543 84.3447 482.059 83.582 483.091 82.0566C485.174 82.9806 486.228 83.4484 488.332 84.3793C487.589 86.036 487.218 86.8632 486.478 88.5106Z" fill="white"/>
<path d="M493.212 91.4991C490.87 90.4599 489.657 89.9207 487.248 88.8516C487.949 87.188 488.301 86.3515 489.004 84.6787C491.108 85.6119 492.162 86.0797 494.245 87.0036C493.831 88.8055 493.624 89.7064 493.212 91.4991Z" fill="white" fill-opacity="0.56"/>
<path d="M499.54 94.3081C497.418 93.3657 496.281 92.8611 493.957 91.8288C494.337 90.0224 494.528 89.1145 494.91 87.2988C496.988 88.2205 498.02 88.6767 500.037 89.5707C499.837 91.4694 499.738 92.4187 499.54 94.3081Z" fill="white" fill-opacity="0.56"/>
<path d="M478.714 88.2236L476.934 91.9087C476.798 92.1896 477.182 92.6161 477.791 92.8598C478.401 93.1009 479.005 93.0718 479.141 92.7909L480.922 89.1058L478.714 88.2236Z" fill="#C8E6C9"/>
<path d="M493.33 94.3117L491.573 98.3022C491.439 98.6063 490.843 98.6378 490.242 98.3739C489.641 98.11 489.262 97.651 489.396 97.3469L491.153 93.3564L493.33 94.3117Z" fill="#C8E6C9"/>
<path d="M501.398 99.0892L469.439 84.907L469.969 83.6904L501.928 97.8703L501.398 99.0892Z" fill="#357A38" fill-opacity="0.45"/>
<path d="M208.922 94.3865C208.924 98.2909 210.213 101.897 212.387 104.816L205.764 116.495L218.392 109.94C220.875 111.241 223.704 111.982 226.709 111.98C236.526 111.974 244.479 104.089 244.473 94.3653C244.467 84.6453 236.505 76.766 226.688 76.7719C216.871 76.7778 208.916 84.6665 208.922 94.3865Z" fill="#03ACF2" fill-opacity="0.3"/>
</svg>
