<svg width="2394" height="314" viewBox="0 0 2394 314" fill="none" xmlns="http://www.w3.org/2000/svg">
<path fill-rule="evenodd" clip-rule="evenodd" d="M552.008 106.721C552.008 106.721 677.688 232.878 861.747 232.878C1045.81 232.878 1102.28 91.3553 1308.76 106.608C1515.25 121.861 1623.59 200.179 1802.06 211.932C2149.17 234.791 2393.69 158.402 2393.69 158.402L2300.36 301.458L497.688 263.553L552.008 106.721Z" fill="#42AE10"/>
<path fill-rule="evenodd" clip-rule="evenodd" d="M2382.28 89.308C2382.28 89.308 2273.56 229.864 2089.76 239.495C1905.96 249.125 1900.46 166.599 1695.07 192.609C1489.67 218.619 1490.98 263.869 1313.38 284.924C1234.84 294.236 1083.14 70.7853 786.632 198.555C490.125 326.325 -0.000610875 0.264098 -0.000610875 0.264098L417.194 286.002L2382.15 301.601L2382.28 89.308Z" fill="#71D100"/>
<path fill-rule="evenodd" clip-rule="evenodd" d="M550.443 201.822C550.443 201.822 587.841 285.678 750.065 285.678C912.29 285.678 955.476 165.596 1137.47 180.787C1319.45 195.977 1414.95 273.974 1572.24 285.678C1878.18 308.443 2093.69 232.368 2093.69 232.368L2077.22 313.458L533.688 297.897L550.443 201.822Z" fill="white"/>
</svg>
