<svg width="360" height="800" viewBox="0 0 360 800" fill="none" xmlns="http://www.w3.org/2000/svg">
<g clip-path="url(#clip0_13924_5145)">
<rect x="249.892" y="-34.4421" width="30.867" height="30.867" transform="rotate(15 249.892 -34.4421)" stroke="#EBEDF0"/>
</g>
<rect x="162.587" y="-185.659" width="154.335" height="154.335" transform="rotate(15 162.587 -185.659)" stroke="#ABC9B1" stroke-width="2"/>
<g clip-path="url(#clip1_13924_5145)">
<rect x="279.384" y="-26.5397" width="30.867" height="30.867" transform="rotate(15 279.384 -26.5397)" stroke="#EBEDF0"/>
<rect x="309.199" y="-18.5508" width="30.867" height="30.867" transform="rotate(15 309.199 -18.5508)" stroke="#EBEDF0"/>
<rect x="339.014" y="-10.5618" width="30.867" height="30.867" transform="rotate(15 339.014 -10.5618)" stroke="#EBEDF0"/>
</g>
<rect x="311.34" y="-145.801" width="154.335" height="154.335" transform="rotate(15 311.34 -145.801)" stroke="#ABC9B1" stroke-width="2"/>
<g clip-path="url(#clip2_13924_5145)">
<rect x="25.6179" y="-30.971" width="30.867" height="30.867" transform="rotate(15 25.6179 -30.971)" stroke="#EBEDF0"/>
<rect x="55.433" y="-22.9821" width="30.867" height="30.867" transform="rotate(15 55.433 -22.9821)" stroke="#EBEDF0"/>
<rect x="85.248" y="-14.9932" width="30.867" height="30.867" transform="rotate(15 85.248 -14.9932)" stroke="#EBEDF0"/>
<rect x="-12.1864" y="-9.14491" width="30.867" height="30.867" transform="rotate(15 -12.1864 -9.14491)" stroke="#EBEDF0"/>
<rect x="17.629" y="-1.15593" width="30.867" height="30.867" transform="rotate(15 17.629 -1.15593)" stroke="#EBEDF0"/>
<rect x="47.4441" y="6.83302" width="30.867" height="30.867" transform="rotate(15 47.4441 6.83302)" stroke="#EBEDF0"/>
<rect x="77.2592" y="14.8219" width="30.867" height="30.867" transform="rotate(15 77.2592 14.8219)" stroke="#EBEDF0"/>
<rect x="-20.1754" y="20.6703" width="30.867" height="30.867" transform="rotate(15 -20.1754 20.6703)" stroke="#EBEDF0"/>
<rect x="9.63998" y="28.6593" width="30.867" height="30.867" transform="rotate(15 9.63998 28.6593)" stroke="#EBEDF0"/>
<rect x="39.4551" y="36.6482" width="30.867" height="30.867" transform="rotate(15 39.4551 36.6482)" stroke="#EBEDF0"/>
<rect x="69.2702" y="44.6372" width="30.867" height="30.867" transform="rotate(15 69.2702 44.6372)" stroke="#EBEDF0"/>
<rect x="-28.1643" y="50.4855" width="30.867" height="30.867" transform="rotate(15 -28.1643 50.4855)" stroke="#EBEDF0"/>
<rect x="1.65106" y="58.4745" width="30.867" height="30.867" transform="rotate(15 1.65106 58.4745)" stroke="#EBEDF0"/>
<rect x="31.4661" y="66.4635" width="30.867" height="30.867" transform="rotate(15 31.4661 66.4635)" stroke="#EBEDF0"/>
<rect x="61.2812" y="74.4524" width="30.867" height="30.867" transform="rotate(15 61.2812 74.4524)" stroke="#EBEDF0"/>
</g>
<rect x="-26.0236" y="-76.7642" width="154.335" height="154.335" transform="rotate(15 -26.0236 -76.7642)" stroke="#ABC9B1" stroke-width="2"/>
<g clip-path="url(#clip3_13924_5145)">
<rect x="122.729" y="-36.9061" width="30.867" height="30.867" transform="rotate(15 122.729 -36.9061)" stroke="#EBEDF0"/>
<rect x="152.544" y="-28.9171" width="30.867" height="30.867" transform="rotate(15 152.544 -28.9171)" stroke="#EBEDF0"/>
<rect x="182.359" y="-20.9281" width="30.867" height="30.867" transform="rotate(15 182.359 -20.9281)" stroke="#EBEDF0"/>
<rect x="212.174" y="-12.9392" width="30.867" height="30.867" transform="rotate(15 212.174 -12.9392)" stroke="#EBEDF0"/>
<rect x="241.99" y="-4.95026" width="30.867" height="30.867" transform="rotate(15 241.99 -4.95026)" stroke="#EBEDF0"/>
<rect x="114.74" y="-7.09084" width="30.867" height="30.867" transform="rotate(15 114.74 -7.09084)" stroke="#EBEDF0"/>
<rect x="144.555" y="0.898103" width="30.867" height="30.867" transform="rotate(15 144.555 0.898103)" stroke="#EBEDF0"/>
<rect x="174.37" y="8.8871" width="30.867" height="30.867" transform="rotate(15 174.37 8.8871)" stroke="#EBEDF0"/>
<rect x="204.186" y="16.8761" width="30.867" height="30.867" transform="rotate(15 204.186 16.8761)" stroke="#EBEDF0"/>
<rect x="234.001" y="24.865" width="30.867" height="30.867" transform="rotate(15 234.001 24.865)" stroke="#EBEDF0"/>
<rect x="106.751" y="22.7243" width="30.867" height="30.867" transform="rotate(15 106.751 22.7243)" stroke="#EBEDF0"/>
<rect x="136.566" y="30.7132" width="30.867" height="30.867" transform="rotate(15 136.566 30.7132)" stroke="#EBEDF0"/>
<rect x="166.382" y="38.7022" width="30.867" height="30.867" transform="rotate(15 166.382 38.7022)" stroke="#EBEDF0"/>
<rect x="196.197" y="46.6911" width="30.867" height="30.867" transform="rotate(15 196.197 46.6911)" stroke="#EBEDF0"/>
<rect x="226.012" y="54.6801" width="30.867" height="30.867" transform="rotate(15 226.012 54.6801)" stroke="#EBEDF0"/>
<rect x="98.7621" y="52.5395" width="30.867" height="30.867" transform="rotate(15 98.7621 52.5395)" stroke="#EBEDF0"/>
<rect x="128.577" y="60.5284" width="30.867" height="30.867" transform="rotate(15 128.577 60.5284)" stroke="#EBEDF0"/>
<rect x="158.393" y="68.5174" width="30.867" height="30.867" transform="rotate(15 158.393 68.5174)" stroke="#EBEDF0"/>
<rect x="188.208" y="76.5064" width="30.867" height="30.867" transform="rotate(15 188.208 76.5064)" stroke="#EBEDF0"/>
<rect x="218.023" y="84.4953" width="30.867" height="30.867" transform="rotate(15 218.023 84.4953)" stroke="#EBEDF0"/>
<rect x="90.7731" y="82.3547" width="30.867" height="30.867" transform="rotate(15 90.7731 82.3547)" stroke="#EBEDF0"/>
<rect x="120.588" y="90.3437" width="30.867" height="30.867" transform="rotate(15 120.588 90.3437)" stroke="#EBEDF0"/>
<rect x="150.404" y="98.3326" width="30.867" height="30.867" transform="rotate(15 150.404 98.3326)" stroke="#EBEDF0"/>
<rect x="180.219" y="106.322" width="30.867" height="30.867" transform="rotate(15 180.219 106.322)" stroke="#EBEDF0"/>
<rect x="210.034" y="114.311" width="30.867" height="30.867" transform="rotate(15 210.034 114.311)" stroke="#EBEDF0"/>
</g>
<rect x="122.729" y="-36.9061" width="154.335" height="154.335" transform="rotate(15 122.729 -36.9061)" stroke="#ABC9B1" stroke-width="2"/>
<g clip-path="url(#clip4_13924_5145)">
<rect x="271.482" y="2.95207" width="30.867" height="30.867" transform="rotate(15 271.482 2.95207)" stroke="#EBEDF0"/>
<rect x="301.297" y="10.941" width="30.867" height="30.867" transform="rotate(15 301.297 10.941)" stroke="#EBEDF0"/>
<rect x="331.112" y="18.93" width="30.867" height="30.867" transform="rotate(15 331.112 18.93)" stroke="#EBEDF0"/>
<rect x="360.927" y="26.9189" width="30.867" height="30.867" transform="rotate(15 360.927 26.9189)" stroke="#EBEDF0"/>
<rect x="263.493" y="32.7673" width="30.867" height="30.867" transform="rotate(15 263.493 32.7673)" stroke="#EBEDF0"/>
<rect x="293.308" y="40.7562" width="30.867" height="30.867" transform="rotate(15 293.308 40.7562)" stroke="#EBEDF0"/>
<rect x="323.123" y="48.7452" width="30.867" height="30.867" transform="rotate(15 323.123 48.7452)" stroke="#EBEDF0"/>
<rect x="352.938" y="56.7342" width="30.867" height="30.867" transform="rotate(15 352.938 56.7342)" stroke="#EBEDF0"/>
<rect x="255.504" y="62.5824" width="30.867" height="30.867" transform="rotate(15 255.504 62.5824)" stroke="#EBEDF0"/>
<rect x="285.319" y="70.5714" width="30.867" height="30.867" transform="rotate(15 285.319 70.5714)" stroke="#EBEDF0"/>
<rect x="315.134" y="78.5603" width="30.867" height="30.867" transform="rotate(15 315.134 78.5603)" stroke="#EBEDF0"/>
<rect x="344.949" y="86.5493" width="30.867" height="30.867" transform="rotate(15 344.949 86.5493)" stroke="#EBEDF0"/>
<rect x="247.515" y="92.3976" width="30.867" height="30.867" transform="rotate(15 247.515 92.3976)" stroke="#EBEDF0"/>
<rect x="277.33" y="100.387" width="30.867" height="30.867" transform="rotate(15 277.33 100.387)" stroke="#EBEDF0"/>
<rect x="307.145" y="108.376" width="30.867" height="30.867" transform="rotate(15 307.145 108.376)" stroke="#EBEDF0"/>
<rect x="336.96" y="116.365" width="30.867" height="30.867" transform="rotate(15 336.96 116.365)" stroke="#EBEDF0"/>
<rect x="366.775" y="124.353" width="30.867" height="30.867" transform="rotate(15 366.775 124.353)" stroke="#EBEDF0"/>
<rect x="239.526" y="122.213" width="30.867" height="30.867" transform="rotate(15 239.526 122.213)" stroke="#EBEDF0"/>
<rect x="269.341" y="130.202" width="30.867" height="30.867" transform="rotate(15 269.341 130.202)" stroke="#EBEDF0"/>
<rect x="299.156" y="138.191" width="30.867" height="30.867" transform="rotate(15 299.156 138.191)" stroke="#EBEDF0"/>
<rect x="328.971" y="146.18" width="30.867" height="30.867" transform="rotate(15 328.971 146.18)" stroke="#EBEDF0"/>
<rect x="358.786" y="154.169" width="30.867" height="30.867" transform="rotate(15 358.786 154.169)" stroke="#EBEDF0"/>
</g>
<rect x="271.482" y="2.95207" width="154.335" height="154.335" transform="rotate(15 271.482 2.95207)" stroke="#ABC9B1" stroke-width="2"/>
<g clip-path="url(#clip5_13924_5145)">
<rect x="-6.25134" y="87.9663" width="30.867" height="30.867" transform="rotate(15 -6.25134 87.9663)" stroke="#EBEDF0"/>
<rect x="23.5638" y="95.9552" width="30.867" height="30.867" transform="rotate(15 23.5638 95.9552)" stroke="#EBEDF0"/>
<rect x="53.3789" y="103.944" width="30.867" height="30.867" transform="rotate(15 53.3789 103.944)" stroke="#EBEDF0"/>
<rect x="-14.2403" y="117.782" width="30.867" height="30.867" transform="rotate(15 -14.2403 117.782)" stroke="#EBEDF0"/>
<rect x="15.5749" y="125.77" width="30.867" height="30.867" transform="rotate(15 15.5749 125.77)" stroke="#EBEDF0"/>
<rect x="45.3899" y="133.759" width="30.867" height="30.867" transform="rotate(15 45.3899 133.759)" stroke="#EBEDF0"/>
<rect x="-22.2292" y="147.597" width="30.867" height="30.867" transform="rotate(15 -22.2292 147.597)" stroke="#EBEDF0"/>
<rect x="7.58591" y="155.586" width="30.867" height="30.867" transform="rotate(15 7.58591 155.586)" stroke="#EBEDF0"/>
<rect x="37.401" y="163.575" width="30.867" height="30.867" transform="rotate(15 37.401 163.575)" stroke="#EBEDF0"/>
<rect x="-30.2182" y="177.412" width="30.867" height="30.867" transform="rotate(15 -30.2182 177.412)" stroke="#EBEDF0"/>
<rect x="-0.403076" y="185.401" width="30.867" height="30.867" transform="rotate(15 -0.403076 185.401)" stroke="#EBEDF0"/>
<rect x="29.412" y="193.39" width="30.867" height="30.867" transform="rotate(15 29.412 193.39)" stroke="#EBEDF0"/>
<rect x="-8.39203" y="215.216" width="30.867" height="30.867" transform="rotate(15 -8.39203 215.216)" stroke="#EBEDF0"/>
<rect x="21.4231" y="223.205" width="30.867" height="30.867" transform="rotate(15 21.4231 223.205)" stroke="#EBEDF0"/>
</g>
<rect x="-65.8817" y="71.9884" width="154.335" height="154.335" transform="rotate(15 -65.8817 71.9884)" stroke="#ABC9B1" stroke-width="2"/>
<g clip-path="url(#clip6_13924_5145)">
<rect x="82.8708" y="111.847" width="30.867" height="30.867" transform="rotate(15 82.8708 111.847)" stroke="#EBEDF0"/>
<rect x="112.686" y="119.835" width="30.867" height="30.867" transform="rotate(15 112.686 119.835)" stroke="#EBEDF0"/>
<rect x="142.501" y="127.824" width="30.867" height="30.867" transform="rotate(15 142.501 127.824)" stroke="#EBEDF0"/>
<rect x="172.316" y="135.813" width="30.867" height="30.867" transform="rotate(15 172.316 135.813)" stroke="#EBEDF0"/>
<rect x="202.131" y="143.802" width="30.867" height="30.867" transform="rotate(15 202.131 143.802)" stroke="#EBEDF0"/>
<rect x="74.8819" y="141.662" width="30.867" height="30.867" transform="rotate(15 74.8819 141.662)" stroke="#EBEDF0"/>
<rect x="104.697" y="149.651" width="30.867" height="30.867" transform="rotate(15 104.697 149.651)" stroke="#EBEDF0"/>
<rect x="134.512" y="157.64" width="30.867" height="30.867" transform="rotate(15 134.512 157.64)" stroke="#EBEDF0"/>
<rect x="164.327" y="165.629" width="30.867" height="30.867" transform="rotate(15 164.327 165.629)" stroke="#EBEDF0"/>
<rect x="194.142" y="173.618" width="30.867" height="30.867" transform="rotate(15 194.142 173.618)" stroke="#EBEDF0"/>
<rect x="66.8929" y="171.477" width="30.867" height="30.867" transform="rotate(15 66.8929 171.477)" stroke="#EBEDF0"/>
<rect x="96.708" y="179.466" width="30.867" height="30.867" transform="rotate(15 96.708 179.466)" stroke="#EBEDF0"/>
<rect x="126.523" y="187.455" width="30.867" height="30.867" transform="rotate(15 126.523 187.455)" stroke="#EBEDF0"/>
<rect x="156.338" y="195.444" width="30.867" height="30.867" transform="rotate(15 156.338 195.444)" stroke="#EBEDF0"/>
<rect x="186.154" y="203.433" width="30.867" height="30.867" transform="rotate(15 186.154 203.433)" stroke="#EBEDF0"/>
<rect x="58.9039" y="201.292" width="30.867" height="30.867" transform="rotate(15 58.9039 201.292)" stroke="#EBEDF0"/>
<rect x="88.719" y="209.281" width="30.867" height="30.867" transform="rotate(15 88.719 209.281)" stroke="#EBEDF0"/>
<rect x="118.534" y="217.27" width="30.867" height="30.867" transform="rotate(15 118.534 217.27)" stroke="#EBEDF0"/>
<rect x="148.349" y="225.259" width="30.867" height="30.867" transform="rotate(15 148.349 225.259)" stroke="#EBEDF0"/>
<rect x="178.165" y="233.248" width="30.867" height="30.867" transform="rotate(15 178.165 233.248)" stroke="#EBEDF0"/>
<rect x="50.915" y="231.107" width="30.867" height="30.867" transform="rotate(15 50.915 231.107)" stroke="#EBEDF0"/>
<rect x="80.7301" y="239.096" width="30.867" height="30.867" transform="rotate(15 80.7301 239.096)" stroke="#EBEDF0"/>
<rect x="110.545" y="247.085" width="30.867" height="30.867" transform="rotate(15 110.545 247.085)" stroke="#EBEDF0"/>
<rect x="140.361" y="255.074" width="30.867" height="30.867" transform="rotate(15 140.361 255.074)" stroke="#EBEDF0"/>
<rect x="170.176" y="263.063" width="30.867" height="30.867" transform="rotate(15 170.176 263.063)" stroke="#EBEDF0"/>
</g>
<rect x="82.8708" y="111.847" width="154.335" height="154.335" transform="rotate(15 82.8708 111.847)" stroke="#ABC9B1" stroke-width="2"/>
<g clip-path="url(#clip7_13924_5145)">
<rect x="231.623" y="151.705" width="30.867" height="30.867" transform="rotate(15 231.623 151.705)" stroke="#EBEDF0"/>
<rect x="261.438" y="159.694" width="30.867" height="30.867" transform="rotate(15 261.438 159.694)" stroke="#EBEDF0"/>
<rect x="291.254" y="167.683" width="30.867" height="30.867" transform="rotate(15 291.254 167.683)" stroke="#EBEDF0"/>
<rect x="321.069" y="175.672" width="30.867" height="30.867" transform="rotate(15 321.069 175.672)" stroke="#EBEDF0"/>
<rect x="350.884" y="183.66" width="30.867" height="30.867" transform="rotate(15 350.884 183.66)" stroke="#EBEDF0"/>
<rect x="223.634" y="181.52" width="30.867" height="30.867" transform="rotate(15 223.634 181.52)" stroke="#EBEDF0"/>
<rect x="253.45" y="189.509" width="30.867" height="30.867" transform="rotate(15 253.45 189.509)" stroke="#EBEDF0"/>
<rect x="283.265" y="197.498" width="30.867" height="30.867" transform="rotate(15 283.265 197.498)" stroke="#EBEDF0"/>
<rect x="313.08" y="205.487" width="30.867" height="30.867" transform="rotate(15 313.08 205.487)" stroke="#EBEDF0"/>
<rect x="342.895" y="213.476" width="30.867" height="30.867" transform="rotate(15 342.895 213.476)" stroke="#EBEDF0"/>
<rect x="215.646" y="211.335" width="30.867" height="30.867" transform="rotate(15 215.646 211.335)" stroke="#EBEDF0"/>
<rect x="245.461" y="219.324" width="30.867" height="30.867" transform="rotate(15 245.461 219.324)" stroke="#EBEDF0"/>
<rect x="275.276" y="227.313" width="30.867" height="30.867" transform="rotate(15 275.276 227.313)" stroke="#EBEDF0"/>
<rect x="305.091" y="235.302" width="30.867" height="30.867" transform="rotate(15 305.091 235.302)" stroke="#EBEDF0"/>
<rect x="334.906" y="243.291" width="30.867" height="30.867" transform="rotate(15 334.906 243.291)" stroke="#EBEDF0"/>
<rect x="207.657" y="241.15" width="30.867" height="30.867" transform="rotate(15 207.657 241.15)" stroke="#EBEDF0"/>
<rect x="237.472" y="249.139" width="30.867" height="30.867" transform="rotate(15 237.472 249.139)" stroke="#EBEDF0"/>
<rect x="267.287" y="257.128" width="30.867" height="30.867" transform="rotate(15 267.287 257.128)" stroke="#EBEDF0"/>
<rect x="297.102" y="265.117" width="30.867" height="30.867" transform="rotate(15 297.102 265.117)" stroke="#EBEDF0"/>
<rect x="326.917" y="273.106" width="30.867" height="30.867" transform="rotate(15 326.917 273.106)" stroke="#EBEDF0"/>
<rect x="199.668" y="270.965" width="30.867" height="30.867" transform="rotate(15 199.668 270.965)" stroke="#EBEDF0"/>
<rect x="229.483" y="278.954" width="30.867" height="30.867" transform="rotate(15 229.483 278.954)" stroke="#EBEDF0"/>
<rect x="259.298" y="286.943" width="30.867" height="30.867" transform="rotate(15 259.298 286.943)" stroke="#EBEDF0"/>
<rect x="289.113" y="294.932" width="30.867" height="30.867" transform="rotate(15 289.113 294.932)" stroke="#EBEDF0"/>
<rect x="318.928" y="302.921" width="30.867" height="30.867" transform="rotate(15 318.928 302.921)" stroke="#EBEDF0"/>
</g>
<rect x="231.623" y="151.705" width="154.335" height="154.335" transform="rotate(15 231.623 151.705)" stroke="#ABC9B1" stroke-width="2"/>
<g clip-path="url(#clip8_13924_5145)">
<rect x="364.398" y="251.193" width="30.867" height="30.867" transform="rotate(15 364.398 251.193)" stroke="#EBEDF0"/>
<rect x="356.409" y="281.008" width="30.867" height="30.867" transform="rotate(15 356.409 281.008)" stroke="#EBEDF0"/>
<rect x="348.42" y="310.824" width="30.867" height="30.867" transform="rotate(15 348.42 310.824)" stroke="#EBEDF0"/>
</g>
<rect x="380.376" y="191.563" width="154.335" height="154.335" transform="rotate(15 380.376 191.563)" stroke="#ABC9B1" stroke-width="2"/>
<g clip-path="url(#clip9_13924_5145)">
<rect x="-16.2943" y="244.708" width="30.867" height="30.867" transform="rotate(15 -16.2943 244.708)" stroke="#EBEDF0"/>
<rect x="13.5208" y="252.697" width="30.867" height="30.867" transform="rotate(15 13.5208 252.697)" stroke="#EBEDF0"/>
<rect x="-24.2833" y="274.523" width="30.867" height="30.867" transform="rotate(15 -24.2833 274.523)" stroke="#EBEDF0"/>
<rect x="5.53177" y="282.512" width="30.867" height="30.867" transform="rotate(15 5.53177 282.512)" stroke="#EBEDF0"/>
<rect x="-2.45712" y="312.327" width="30.867" height="30.867" transform="rotate(15 -2.45712 312.327)" stroke="#EBEDF0"/>
<rect x="-10.4461" y="342.142" width="30.867" height="30.867" transform="rotate(15 -10.4461 342.142)" stroke="#EBEDF0"/>
<rect x="-18.435" y="371.958" width="30.867" height="30.867" transform="rotate(15 -18.435 371.958)" stroke="#EBEDF0"/>
</g>
<rect x="-105.74" y="220.741" width="154.335" height="154.335" transform="rotate(15 -105.74 220.741)" stroke="#ABC9B1" stroke-width="2"/>
<g clip-path="url(#clip10_13924_5145)">
<rect x="43.0127" y="260.599" width="30.867" height="30.867" transform="rotate(15 43.0127 260.599)" stroke="#EBEDF0"/>
<rect x="72.8278" y="268.588" width="30.867" height="30.867" transform="rotate(15 72.8278 268.588)" stroke="#EBEDF0"/>
<rect x="102.643" y="276.577" width="30.867" height="30.867" transform="rotate(15 102.643 276.577)" stroke="#EBEDF0"/>
<rect x="132.458" y="284.566" width="30.867" height="30.867" transform="rotate(15 132.458 284.566)" stroke="#EBEDF0"/>
<rect x="162.273" y="292.555" width="30.867" height="30.867" transform="rotate(15 162.273 292.555)" stroke="#EBEDF0"/>
<rect x="35.0237" y="290.414" width="30.867" height="30.867" transform="rotate(15 35.0237 290.414)" stroke="#EBEDF0"/>
<rect x="64.8388" y="298.403" width="30.867" height="30.867" transform="rotate(15 64.8388 298.403)" stroke="#EBEDF0"/>
<rect x="94.6541" y="306.392" width="30.867" height="30.867" transform="rotate(15 94.6541 306.392)" stroke="#EBEDF0"/>
<rect x="124.469" y="314.381" width="30.867" height="30.867" transform="rotate(15 124.469 314.381)" stroke="#EBEDF0"/>
<rect x="154.284" y="322.37" width="30.867" height="30.867" transform="rotate(15 154.284 322.37)" stroke="#EBEDF0"/>
<rect x="27.0348" y="320.229" width="30.867" height="30.867" transform="rotate(15 27.0348 320.229)" stroke="#EBEDF0"/>
<rect x="56.8499" y="328.218" width="30.867" height="30.867" transform="rotate(15 56.8499 328.218)" stroke="#EBEDF0"/>
<rect x="86.6653" y="336.207" width="30.867" height="30.867" transform="rotate(15 86.6653 336.207)" stroke="#EBEDF0"/>
<rect x="116.48" y="344.196" width="30.867" height="30.867" transform="rotate(15 116.48 344.196)" stroke="#EBEDF0"/>
<rect x="146.295" y="352.185" width="30.867" height="30.867" transform="rotate(15 146.295 352.185)" stroke="#EBEDF0"/>
<rect x="19.0458" y="350.045" width="30.867" height="30.867" transform="rotate(15 19.0458 350.045)" stroke="#EBEDF0"/>
<rect x="48.8609" y="358.034" width="30.867" height="30.867" transform="rotate(15 48.8609 358.034)" stroke="#EBEDF0"/>
<rect x="78.6763" y="366.023" width="30.867" height="30.867" transform="rotate(15 78.6763 366.023)" stroke="#EBEDF0"/>
<rect x="108.491" y="374.012" width="30.867" height="30.867" transform="rotate(15 108.491 374.012)" stroke="#EBEDF0"/>
<rect x="138.306" y="382" width="30.867" height="30.867" transform="rotate(15 138.306 382)" stroke="#EBEDF0"/>
<rect x="11.0569" y="379.86" width="30.867" height="30.867" transform="rotate(15 11.0569 379.86)" stroke="#EBEDF0"/>
<rect x="40.872" y="387.849" width="30.867" height="30.867" transform="rotate(15 40.872 387.849)" stroke="#EBEDF0"/>
<rect x="70.6873" y="395.838" width="30.867" height="30.867" transform="rotate(15 70.6873 395.838)" stroke="#EBEDF0"/>
<rect x="100.502" y="403.827" width="30.867" height="30.867" transform="rotate(15 100.502 403.827)" stroke="#EBEDF0"/>
<rect x="130.318" y="411.816" width="30.867" height="30.867" transform="rotate(15 130.318 411.816)" stroke="#EBEDF0"/>
</g>
<rect x="43.0127" y="260.599" width="154.335" height="154.335" transform="rotate(15 43.0127 260.599)" stroke="#ABC9B1" stroke-width="2"/>
<g clip-path="url(#clip11_13924_5145)">
<rect x="191.765" y="300.457" width="30.867" height="30.867" transform="rotate(15 191.765 300.457)" stroke="#EBEDF0"/>
<rect x="221.58" y="308.446" width="30.867" height="30.867" transform="rotate(15 221.58 308.446)" stroke="#EBEDF0"/>
<rect x="251.396" y="316.435" width="30.867" height="30.867" transform="rotate(15 251.396 316.435)" stroke="#EBEDF0"/>
<rect x="281.211" y="324.424" width="30.867" height="30.867" transform="rotate(15 281.211 324.424)" stroke="#EBEDF0"/>
<rect x="311.026" y="332.413" width="30.867" height="30.867" transform="rotate(15 311.026 332.413)" stroke="#EBEDF0"/>
<rect x="183.776" y="330.272" width="30.867" height="30.867" transform="rotate(15 183.776 330.272)" stroke="#EBEDF0"/>
<rect x="213.591" y="338.261" width="30.867" height="30.867" transform="rotate(15 213.591 338.261)" stroke="#EBEDF0"/>
<rect x="243.407" y="346.25" width="30.867" height="30.867" transform="rotate(15 243.407 346.25)" stroke="#EBEDF0"/>
<rect x="273.222" y="354.239" width="30.867" height="30.867" transform="rotate(15 273.222 354.239)" stroke="#EBEDF0"/>
<rect x="303.037" y="362.228" width="30.867" height="30.867" transform="rotate(15 303.037 362.228)" stroke="#EBEDF0"/>
<rect x="175.787" y="360.088" width="30.867" height="30.867" transform="rotate(15 175.787 360.088)" stroke="#EBEDF0"/>
<rect x="205.602" y="368.077" width="30.867" height="30.867" transform="rotate(15 205.602 368.077)" stroke="#EBEDF0"/>
<rect x="235.418" y="376.065" width="30.867" height="30.867" transform="rotate(15 235.418 376.065)" stroke="#EBEDF0"/>
<rect x="265.233" y="384.054" width="30.867" height="30.867" transform="rotate(15 265.233 384.054)" stroke="#EBEDF0"/>
<rect x="295.048" y="392.043" width="30.867" height="30.867" transform="rotate(15 295.048 392.043)" stroke="#EBEDF0"/>
<rect x="167.798" y="389.903" width="30.867" height="30.867" transform="rotate(15 167.798 389.903)" stroke="#EBEDF0"/>
<rect x="197.613" y="397.892" width="30.867" height="30.867" transform="rotate(15 197.613 397.892)" stroke="#EBEDF0"/>
<rect x="227.429" y="405.881" width="30.867" height="30.867" transform="rotate(15 227.429 405.881)" stroke="#EBEDF0"/>
<rect x="257.244" y="413.87" width="30.867" height="30.867" transform="rotate(15 257.244 413.87)" stroke="#EBEDF0"/>
<rect x="287.059" y="421.859" width="30.867" height="30.867" transform="rotate(15 287.059 421.859)" stroke="#EBEDF0"/>
<rect x="159.809" y="419.718" width="30.867" height="30.867" transform="rotate(15 159.809 419.718)" stroke="#EBEDF0"/>
<rect x="189.625" y="427.707" width="30.867" height="30.867" transform="rotate(15 189.625 427.707)" stroke="#EBEDF0"/>
<rect x="219.44" y="435.696" width="30.867" height="30.867" transform="rotate(15 219.44 435.696)" stroke="#EBEDF0"/>
<rect x="249.255" y="443.685" width="30.867" height="30.867" transform="rotate(15 249.255 443.685)" stroke="#EBEDF0"/>
<rect x="279.07" y="451.674" width="30.867" height="30.867" transform="rotate(15 279.07 451.674)" stroke="#EBEDF0"/>
</g>
<rect x="191.765" y="300.457" width="154.335" height="154.335" transform="rotate(15 191.765 300.457)" stroke="#ABC9B1" stroke-width="2"/>
<g clip-path="url(#clip12_13924_5145)">
<rect x="340.518" y="340.315" width="30.867" height="30.867" transform="rotate(15 340.518 340.315)" stroke="#EBEDF0"/>
<rect x="332.529" y="370.131" width="30.867" height="30.867" transform="rotate(15 332.529 370.131)" stroke="#EBEDF0"/>
<rect x="362.344" y="378.12" width="30.867" height="30.867" transform="rotate(15 362.344 378.12)" stroke="#EBEDF0"/>
<rect x="324.54" y="399.946" width="30.867" height="30.867" transform="rotate(15 324.54 399.946)" stroke="#EBEDF0"/>
<rect x="354.355" y="407.935" width="30.867" height="30.867" transform="rotate(15 354.355 407.935)" stroke="#EBEDF0"/>
<rect x="316.551" y="429.761" width="30.867" height="30.867" transform="rotate(15 316.551 429.761)" stroke="#EBEDF0"/>
<rect x="346.366" y="437.75" width="30.867" height="30.867" transform="rotate(15 346.366 437.75)" stroke="#EBEDF0"/>
<rect x="308.562" y="459.576" width="30.867" height="30.867" transform="rotate(15 308.562 459.576)" stroke="#EBEDF0"/>
<rect x="338.377" y="467.565" width="30.867" height="30.867" transform="rotate(15 338.377 467.565)" stroke="#EBEDF0"/>
<rect x="368.192" y="475.554" width="30.867" height="30.867" transform="rotate(15 368.192 475.554)" stroke="#EBEDF0"/>
</g>
<rect x="340.518" y="340.315" width="154.335" height="154.335" transform="rotate(15 340.518 340.315)" stroke="#ABC9B1" stroke-width="2"/>
<g clip-path="url(#clip13_13924_5145)">
<rect x="-26.3374" y="401.449" width="30.867" height="30.867" transform="rotate(15 -26.3374 401.449)" stroke="#EBEDF0"/>
</g>
<rect x="-145.598" y="369.494" width="154.335" height="154.335" transform="rotate(15 -145.598 369.494)" stroke="#ABC9B1" stroke-width="2"/>
<g clip-path="url(#clip14_13924_5145)">
<rect x="3.15454" y="409.352" width="30.867" height="30.867" transform="rotate(15 3.15454 409.352)" stroke="#EBEDF0"/>
<rect x="32.9696" y="417.341" width="30.867" height="30.867" transform="rotate(15 32.9696 417.341)" stroke="#EBEDF0"/>
<rect x="62.7849" y="425.33" width="30.867" height="30.867" transform="rotate(15 62.7849 425.33)" stroke="#EBEDF0"/>
<rect x="92.6001" y="433.319" width="30.867" height="30.867" transform="rotate(15 92.6001 433.319)" stroke="#EBEDF0"/>
<rect x="122.415" y="441.307" width="30.867" height="30.867" transform="rotate(15 122.415 441.307)" stroke="#EBEDF0"/>
<rect x="-4.83441" y="439.167" width="30.867" height="30.867" transform="rotate(15 -4.83441 439.167)" stroke="#EBEDF0"/>
<rect x="24.9807" y="447.156" width="30.867" height="30.867" transform="rotate(15 24.9807 447.156)" stroke="#EBEDF0"/>
<rect x="54.796" y="455.145" width="30.867" height="30.867" transform="rotate(15 54.796 455.145)" stroke="#EBEDF0"/>
<rect x="84.6111" y="463.134" width="30.867" height="30.867" transform="rotate(15 84.6111 463.134)" stroke="#EBEDF0"/>
<rect x="114.426" y="471.123" width="30.867" height="30.867" transform="rotate(15 114.426 471.123)" stroke="#EBEDF0"/>
<rect x="-12.8234" y="468.982" width="30.867" height="30.867" transform="rotate(15 -12.8234 468.982)" stroke="#EBEDF0"/>
<rect x="16.9917" y="476.971" width="30.867" height="30.867" transform="rotate(15 16.9917 476.971)" stroke="#EBEDF0"/>
<rect x="46.8071" y="484.96" width="30.867" height="30.867" transform="rotate(15 46.8071 484.96)" stroke="#EBEDF0"/>
<rect x="76.6222" y="492.949" width="30.867" height="30.867" transform="rotate(15 76.6222 492.949)" stroke="#EBEDF0"/>
<rect x="106.437" y="500.938" width="30.867" height="30.867" transform="rotate(15 106.437 500.938)" stroke="#EBEDF0"/>
<rect x="-20.8123" y="498.797" width="30.867" height="30.867" transform="rotate(15 -20.8123 498.797)" stroke="#EBEDF0"/>
<rect x="9.00275" y="506.786" width="30.867" height="30.867" transform="rotate(15 9.00275 506.786)" stroke="#EBEDF0"/>
<rect x="38.8181" y="514.775" width="30.867" height="30.867" transform="rotate(15 38.8181 514.775)" stroke="#EBEDF0"/>
<rect x="68.6332" y="522.764" width="30.867" height="30.867" transform="rotate(15 68.6332 522.764)" stroke="#EBEDF0"/>
<rect x="98.4483" y="530.753" width="30.867" height="30.867" transform="rotate(15 98.4483 530.753)" stroke="#EBEDF0"/>
<rect x="-28.8013" y="528.612" width="30.867" height="30.867" transform="rotate(15 -28.8013 528.612)" stroke="#EBEDF0"/>
<rect x="1.01385" y="536.601" width="30.867" height="30.867" transform="rotate(15 1.01385 536.601)" stroke="#EBEDF0"/>
<rect x="30.8292" y="544.59" width="30.867" height="30.867" transform="rotate(15 30.8292 544.59)" stroke="#EBEDF0"/>
<rect x="60.6443" y="552.579" width="30.867" height="30.867" transform="rotate(15 60.6443 552.579)" stroke="#EBEDF0"/>
<rect x="90.4594" y="560.568" width="30.867" height="30.867" transform="rotate(15 90.4594 560.568)" stroke="#EBEDF0"/>
</g>
<rect x="3.15454" y="409.352" width="154.335" height="154.335" transform="rotate(15 3.15454 409.352)" stroke="#ABC9B1" stroke-width="2"/>
<g clip-path="url(#clip15_13924_5145)">
<rect x="151.907" y="449.21" width="30.867" height="30.867" transform="rotate(15 151.907 449.21)" stroke="#EBEDF0"/>
<rect x="181.722" y="457.199" width="30.867" height="30.867" transform="rotate(15 181.722 457.199)" stroke="#EBEDF0"/>
<rect x="211.538" y="465.188" width="30.867" height="30.867" transform="rotate(15 211.538 465.188)" stroke="#EBEDF0"/>
<rect x="241.353" y="473.177" width="30.867" height="30.867" transform="rotate(15 241.353 473.177)" stroke="#EBEDF0"/>
<rect x="271.168" y="481.166" width="30.867" height="30.867" transform="rotate(15 271.168 481.166)" stroke="#EBEDF0"/>
<rect x="143.918" y="479.025" width="30.867" height="30.867" transform="rotate(15 143.918 479.025)" stroke="#EBEDF0"/>
<rect x="173.733" y="487.014" width="30.867" height="30.867" transform="rotate(15 173.733 487.014)" stroke="#EBEDF0"/>
<rect x="203.549" y="495.003" width="30.867" height="30.867" transform="rotate(15 203.549 495.003)" stroke="#EBEDF0"/>
<rect x="233.364" y="502.992" width="30.867" height="30.867" transform="rotate(15 233.364 502.992)" stroke="#EBEDF0"/>
<rect x="263.179" y="510.981" width="30.867" height="30.867" transform="rotate(15 263.179 510.981)" stroke="#EBEDF0"/>
<rect x="135.929" y="508.84" width="30.867" height="30.867" transform="rotate(15 135.929 508.84)" stroke="#EBEDF0"/>
<rect x="165.744" y="516.829" width="30.867" height="30.867" transform="rotate(15 165.744 516.829)" stroke="#EBEDF0"/>
<rect x="195.56" y="524.818" width="30.867" height="30.867" transform="rotate(15 195.56 524.818)" stroke="#EBEDF0"/>
<rect x="225.375" y="532.807" width="30.867" height="30.867" transform="rotate(15 225.375 532.807)" stroke="#EBEDF0"/>
<rect x="255.19" y="540.796" width="30.867" height="30.867" transform="rotate(15 255.19 540.796)" stroke="#EBEDF0"/>
<rect x="127.94" y="538.655" width="30.867" height="30.867" transform="rotate(15 127.94 538.655)" stroke="#EBEDF0"/>
<rect x="157.755" y="546.644" width="30.867" height="30.867" transform="rotate(15 157.755 546.644)" stroke="#EBEDF0"/>
<rect x="187.571" y="554.633" width="30.867" height="30.867" transform="rotate(15 187.571 554.633)" stroke="#EBEDF0"/>
<rect x="217.386" y="562.622" width="30.867" height="30.867" transform="rotate(15 217.386 562.622)" stroke="#EBEDF0"/>
<rect x="247.201" y="570.611" width="30.867" height="30.867" transform="rotate(15 247.201 570.611)" stroke="#EBEDF0"/>
<rect x="119.951" y="568.471" width="30.867" height="30.867" transform="rotate(15 119.951 568.471)" stroke="#EBEDF0"/>
<rect x="149.766" y="576.46" width="30.867" height="30.867" transform="rotate(15 149.766 576.46)" stroke="#EBEDF0"/>
<rect x="179.582" y="584.448" width="30.867" height="30.867" transform="rotate(15 179.582 584.448)" stroke="#EBEDF0"/>
<rect x="209.397" y="592.437" width="30.867" height="30.867" transform="rotate(15 209.397 592.437)" stroke="#EBEDF0"/>
<rect x="239.212" y="600.426" width="30.867" height="30.867" transform="rotate(15 239.212 600.426)" stroke="#EBEDF0"/>
</g>
<rect x="151.907" y="449.21" width="154.335" height="154.335" transform="rotate(15 151.907 449.21)" stroke="#ABC9B1" stroke-width="2"/>
<g clip-path="url(#clip16_13924_5145)">
<rect x="300.66" y="489.068" width="30.867" height="30.867" transform="rotate(15 300.66 489.068)" stroke="#EBEDF0"/>
<rect x="330.475" y="497.057" width="30.867" height="30.867" transform="rotate(15 330.475 497.057)" stroke="#EBEDF0"/>
<rect x="360.29" y="505.046" width="30.867" height="30.867" transform="rotate(15 360.29 505.046)" stroke="#EBEDF0"/>
<rect x="292.671" y="518.883" width="30.867" height="30.867" transform="rotate(15 292.671 518.883)" stroke="#EBEDF0"/>
<rect x="322.486" y="526.872" width="30.867" height="30.867" transform="rotate(15 322.486 526.872)" stroke="#EBEDF0"/>
<rect x="352.301" y="534.861" width="30.867" height="30.867" transform="rotate(15 352.301 534.861)" stroke="#EBEDF0"/>
<rect x="284.682" y="548.698" width="30.867" height="30.867" transform="rotate(15 284.682 548.698)" stroke="#EBEDF0"/>
<rect x="314.497" y="556.687" width="30.867" height="30.867" transform="rotate(15 314.497 556.687)" stroke="#EBEDF0"/>
<rect x="344.312" y="564.676" width="30.867" height="30.867" transform="rotate(15 344.312 564.676)" stroke="#EBEDF0"/>
<rect x="276.693" y="578.513" width="30.867" height="30.867" transform="rotate(15 276.693 578.513)" stroke="#EBEDF0"/>
<rect x="306.508" y="586.502" width="30.867" height="30.867" transform="rotate(15 306.508 586.502)" stroke="#EBEDF0"/>
<rect x="336.323" y="594.491" width="30.867" height="30.867" transform="rotate(15 336.323 594.491)" stroke="#EBEDF0"/>
<rect x="366.138" y="602.48" width="30.867" height="30.867" transform="rotate(15 366.138 602.48)" stroke="#EBEDF0"/>
<rect x="268.704" y="608.329" width="30.867" height="30.867" transform="rotate(15 268.704 608.329)" stroke="#EBEDF0"/>
<rect x="298.519" y="616.318" width="30.867" height="30.867" transform="rotate(15 298.519 616.318)" stroke="#EBEDF0"/>
<rect x="328.334" y="624.307" width="30.867" height="30.867" transform="rotate(15 328.334 624.307)" stroke="#EBEDF0"/>
<rect x="358.149" y="632.296" width="30.867" height="30.867" transform="rotate(15 358.149 632.296)" stroke="#EBEDF0"/>
</g>
<rect x="300.66" y="489.068" width="154.335" height="154.335" transform="rotate(15 300.66 489.068)" stroke="#ABC9B1" stroke-width="2"/>
<g clip-path="url(#clip17_13924_5145)">
<rect x="-6.88846" y="566.093" width="30.867" height="30.867" transform="rotate(15 -6.88846 566.093)" stroke="#EBEDF0"/>
<rect x="22.9268" y="574.082" width="30.867" height="30.867" transform="rotate(15 22.9268 574.082)" stroke="#EBEDF0"/>
<rect x="52.742" y="582.071" width="30.867" height="30.867" transform="rotate(15 52.742 582.071)" stroke="#EBEDF0"/>
<rect x="82.5571" y="590.06" width="30.867" height="30.867" transform="rotate(15 82.5571 590.06)" stroke="#EBEDF0"/>
<rect x="-14.8774" y="595.908" width="30.867" height="30.867" transform="rotate(15 -14.8774 595.908)" stroke="#EBEDF0"/>
<rect x="14.9379" y="603.897" width="30.867" height="30.867" transform="rotate(15 14.9379 603.897)" stroke="#EBEDF0"/>
<rect x="44.7531" y="611.886" width="30.867" height="30.867" transform="rotate(15 44.7531 611.886)" stroke="#EBEDF0"/>
<rect x="74.5681" y="619.875" width="30.867" height="30.867" transform="rotate(15 74.5681 619.875)" stroke="#EBEDF0"/>
<rect x="-22.8664" y="625.724" width="30.867" height="30.867" transform="rotate(15 -22.8664 625.724)" stroke="#EBEDF0"/>
<rect x="6.94901" y="633.712" width="30.867" height="30.867" transform="rotate(15 6.94901 633.712)" stroke="#EBEDF0"/>
<rect x="36.7641" y="641.701" width="30.867" height="30.867" transform="rotate(15 36.7641 641.701)" stroke="#EBEDF0"/>
<rect x="66.5792" y="649.69" width="30.867" height="30.867" transform="rotate(15 66.5792 649.69)" stroke="#EBEDF0"/>
<rect x="-1.03998" y="663.528" width="30.867" height="30.867" transform="rotate(15 -1.03998 663.528)" stroke="#EBEDF0"/>
<rect x="28.7751" y="671.517" width="30.867" height="30.867" transform="rotate(15 28.7751 671.517)" stroke="#EBEDF0"/>
<rect x="58.5902" y="679.506" width="30.867" height="30.867" transform="rotate(15 58.5902 679.506)" stroke="#EBEDF0"/>
<rect x="-9.0289" y="693.343" width="30.867" height="30.867" transform="rotate(15 -9.0289 693.343)" stroke="#EBEDF0"/>
<rect x="20.7862" y="701.332" width="30.867" height="30.867" transform="rotate(15 20.7862 701.332)" stroke="#EBEDF0"/>
<rect x="50.6013" y="709.321" width="30.867" height="30.867" transform="rotate(15 50.6013 709.321)" stroke="#EBEDF0"/>
</g>
<rect x="-36.7036" y="558.104" width="154.335" height="154.335" transform="rotate(15 -36.7036 558.104)" stroke="#ABC9B1" stroke-width="2"/>
<g clip-path="url(#clip18_13924_5145)">
<rect x="112.049" y="597.962" width="30.867" height="30.867" transform="rotate(15 112.049 597.962)" stroke="#EBEDF0"/>
<rect x="141.864" y="605.951" width="30.867" height="30.867" transform="rotate(15 141.864 605.951)" stroke="#EBEDF0"/>
<rect x="171.679" y="613.94" width="30.867" height="30.867" transform="rotate(15 171.679 613.94)" stroke="#EBEDF0"/>
<rect x="201.495" y="621.929" width="30.867" height="30.867" transform="rotate(15 201.495 621.929)" stroke="#EBEDF0"/>
<rect x="231.31" y="629.918" width="30.867" height="30.867" transform="rotate(15 231.31 629.918)" stroke="#EBEDF0"/>
<rect x="104.06" y="627.778" width="30.867" height="30.867" transform="rotate(15 104.06 627.778)" stroke="#EBEDF0"/>
<rect x="133.875" y="635.767" width="30.867" height="30.867" transform="rotate(15 133.875 635.767)" stroke="#EBEDF0"/>
<rect x="163.69" y="643.756" width="30.867" height="30.867" transform="rotate(15 163.69 643.756)" stroke="#EBEDF0"/>
<rect x="193.506" y="651.745" width="30.867" height="30.867" transform="rotate(15 193.506 651.745)" stroke="#EBEDF0"/>
<rect x="223.321" y="659.733" width="30.867" height="30.867" transform="rotate(15 223.321 659.733)" stroke="#EBEDF0"/>
<rect x="96.0711" y="657.593" width="30.867" height="30.867" transform="rotate(15 96.0711 657.593)" stroke="#EBEDF0"/>
<rect x="125.886" y="665.582" width="30.867" height="30.867" transform="rotate(15 125.886 665.582)" stroke="#EBEDF0"/>
<rect x="155.702" y="673.571" width="30.867" height="30.867" transform="rotate(15 155.702 673.571)" stroke="#EBEDF0"/>
<rect x="185.517" y="681.56" width="30.867" height="30.867" transform="rotate(15 185.517 681.56)" stroke="#EBEDF0"/>
<rect x="215.332" y="689.548" width="30.867" height="30.867" transform="rotate(15 215.332 689.548)" stroke="#EBEDF0"/>
<rect x="88.0822" y="687.408" width="30.867" height="30.867" transform="rotate(15 88.0822 687.408)" stroke="#EBEDF0"/>
<rect x="117.897" y="695.397" width="30.867" height="30.867" transform="rotate(15 117.897 695.397)" stroke="#EBEDF0"/>
<rect x="147.713" y="703.386" width="30.867" height="30.867" transform="rotate(15 147.713 703.386)" stroke="#EBEDF0"/>
<rect x="177.528" y="711.375" width="30.867" height="30.867" transform="rotate(15 177.528 711.375)" stroke="#EBEDF0"/>
<rect x="207.343" y="719.364" width="30.867" height="30.867" transform="rotate(15 207.343 719.364)" stroke="#EBEDF0"/>
<rect x="80.0932" y="717.223" width="30.867" height="30.867" transform="rotate(15 80.0932 717.223)" stroke="#EBEDF0"/>
<rect x="109.908" y="725.212" width="30.867" height="30.867" transform="rotate(15 109.908 725.212)" stroke="#EBEDF0"/>
<rect x="139.724" y="733.201" width="30.867" height="30.867" transform="rotate(15 139.724 733.201)" stroke="#EBEDF0"/>
<rect x="169.539" y="741.19" width="30.867" height="30.867" transform="rotate(15 169.539 741.19)" stroke="#EBEDF0"/>
<rect x="199.354" y="749.179" width="30.867" height="30.867" transform="rotate(15 199.354 749.179)" stroke="#EBEDF0"/>
</g>
<rect x="112.049" y="597.962" width="154.335" height="154.335" transform="rotate(15 112.049 597.962)" stroke="#ABC9B1" stroke-width="2"/>
<g clip-path="url(#clip19_13924_5145)">
<rect x="260.802" y="637.82" width="30.867" height="30.867" transform="rotate(15 260.802 637.82)" stroke="#EBEDF0"/>
<rect x="290.617" y="645.809" width="30.867" height="30.867" transform="rotate(15 290.617 645.809)" stroke="#EBEDF0"/>
<rect x="320.432" y="653.798" width="30.867" height="30.867" transform="rotate(15 320.432 653.798)" stroke="#EBEDF0"/>
<rect x="350.247" y="661.787" width="30.867" height="30.867" transform="rotate(15 350.247 661.787)" stroke="#EBEDF0"/>
<rect x="252.813" y="667.636" width="30.867" height="30.867" transform="rotate(15 252.813 667.636)" stroke="#EBEDF0"/>
<rect x="282.628" y="675.625" width="30.867" height="30.867" transform="rotate(15 282.628 675.625)" stroke="#EBEDF0"/>
<rect x="312.443" y="683.614" width="30.867" height="30.867" transform="rotate(15 312.443 683.614)" stroke="#EBEDF0"/>
<rect x="342.258" y="691.603" width="30.867" height="30.867" transform="rotate(15 342.258 691.603)" stroke="#EBEDF0"/>
<rect x="244.824" y="697.451" width="30.867" height="30.867" transform="rotate(15 244.824 697.451)" stroke="#EBEDF0"/>
<rect x="274.639" y="705.44" width="30.867" height="30.867" transform="rotate(15 274.639 705.44)" stroke="#EBEDF0"/>
<rect x="304.454" y="713.429" width="30.867" height="30.867" transform="rotate(15 304.454 713.429)" stroke="#EBEDF0"/>
<rect x="334.269" y="721.418" width="30.867" height="30.867" transform="rotate(15 334.269 721.418)" stroke="#EBEDF0"/>
<rect x="364.084" y="729.407" width="30.867" height="30.867" transform="rotate(15 364.084 729.407)" stroke="#EBEDF0"/>
<rect x="236.835" y="727.266" width="30.867" height="30.867" transform="rotate(15 236.835 727.266)" stroke="#EBEDF0"/>
<rect x="266.65" y="735.255" width="30.867" height="30.867" transform="rotate(15 266.65 735.255)" stroke="#EBEDF0"/>
<rect x="296.465" y="743.244" width="30.867" height="30.867" transform="rotate(15 296.465 743.244)" stroke="#EBEDF0"/>
<rect x="326.28" y="751.233" width="30.867" height="30.867" transform="rotate(15 326.28 751.233)" stroke="#EBEDF0"/>
<rect x="356.095" y="759.222" width="30.867" height="30.867" transform="rotate(15 356.095 759.222)" stroke="#EBEDF0"/>
<rect x="228.846" y="757.081" width="30.867" height="30.867" transform="rotate(15 228.846 757.081)" stroke="#EBEDF0"/>
<rect x="258.661" y="765.07" width="30.867" height="30.867" transform="rotate(15 258.661 765.07)" stroke="#EBEDF0"/>
<rect x="288.476" y="773.059" width="30.867" height="30.867" transform="rotate(15 288.476 773.059)" stroke="#EBEDF0"/>
<rect x="318.291" y="781.048" width="30.867" height="30.867" transform="rotate(15 318.291 781.048)" stroke="#EBEDF0"/>
<rect x="348.106" y="789.037" width="30.867" height="30.867" transform="rotate(15 348.106 789.037)" stroke="#EBEDF0"/>
</g>
<rect x="260.802" y="637.82" width="154.335" height="154.335" transform="rotate(15 260.802 637.82)" stroke="#ABC9B1" stroke-width="2"/>
<g clip-path="url(#clip20_13924_5145)">
<rect x="-16.9313" y="722.835" width="30.867" height="30.867" transform="rotate(15 -16.9313 722.835)" stroke="#EBEDF0"/>
<rect x="12.8838" y="730.824" width="30.867" height="30.867" transform="rotate(15 12.8838 730.824)" stroke="#EBEDF0"/>
<rect x="42.6989" y="738.813" width="30.867" height="30.867" transform="rotate(15 42.6989 738.813)" stroke="#EBEDF0"/>
<rect x="-24.9203" y="752.65" width="30.867" height="30.867" transform="rotate(15 -24.9203 752.65)" stroke="#EBEDF0"/>
<rect x="4.8949" y="760.639" width="30.867" height="30.867" transform="rotate(15 4.8949 760.639)" stroke="#EBEDF0"/>
<rect x="34.7099" y="768.628" width="30.867" height="30.867" transform="rotate(15 34.7099 768.628)" stroke="#EBEDF0"/>
<rect x="-3.09406" y="790.454" width="30.867" height="30.867" transform="rotate(15 -3.09406 790.454)" stroke="#EBEDF0"/>
<rect x="26.721" y="798.443" width="30.867" height="30.867" transform="rotate(15 26.721 798.443)" stroke="#EBEDF0"/>
</g>
<rect x="-76.5617" y="706.857" width="154.335" height="154.335" transform="rotate(15 -76.5617 706.857)" stroke="#ABC9B1" stroke-width="2"/>
<g clip-path="url(#clip21_13924_5145)">
<rect x="72.1909" y="746.715" width="30.867" height="30.867" transform="rotate(15 72.1909 746.715)" stroke="#EBEDF0"/>
<rect x="102.006" y="754.704" width="30.867" height="30.867" transform="rotate(15 102.006 754.704)" stroke="#EBEDF0"/>
<rect x="131.821" y="762.693" width="30.867" height="30.867" transform="rotate(15 131.821 762.693)" stroke="#EBEDF0"/>
<rect x="161.636" y="770.682" width="30.867" height="30.867" transform="rotate(15 161.636 770.682)" stroke="#EBEDF0"/>
<rect x="191.451" y="778.671" width="30.867" height="30.867" transform="rotate(15 191.451 778.671)" stroke="#EBEDF0"/>
<rect x="64.2019" y="776.53" width="30.867" height="30.867" transform="rotate(15 64.2019 776.53)" stroke="#EBEDF0"/>
<rect x="94.017" y="784.519" width="30.867" height="30.867" transform="rotate(15 94.017 784.519)" stroke="#EBEDF0"/>
<rect x="123.832" y="792.508" width="30.867" height="30.867" transform="rotate(15 123.832 792.508)" stroke="#EBEDF0"/>
<rect x="153.647" y="800.497" width="30.867" height="30.867" transform="rotate(15 153.647 800.497)" stroke="#EBEDF0"/>
</g>
<rect x="72.1909" y="746.715" width="154.335" height="154.335" transform="rotate(15 72.1909 746.715)" stroke="#ABC9B1" stroke-width="2"/>
<g clip-path="url(#clip22_13924_5145)">
<rect x="220.943" y="786.573" width="30.867" height="30.867" transform="rotate(15 220.943 786.573)" stroke="#EBEDF0"/>
<rect x="250.759" y="794.562" width="30.867" height="30.867" transform="rotate(15 250.759 794.562)" stroke="#EBEDF0"/>
</g>
<rect x="220.943" y="786.573" width="154.335" height="154.335" transform="rotate(15 220.943 786.573)" stroke="#ABC9B1" stroke-width="2"/>
<defs>
<clipPath id="clip0_13924_5145">
<rect x="162.587" y="-185.659" width="154.335" height="154.335" transform="rotate(15 162.587 -185.659)" fill="white"/>
</clipPath>
<clipPath id="clip1_13924_5145">
<rect x="311.34" y="-145.801" width="154.335" height="154.335" transform="rotate(15 311.34 -145.801)" fill="white"/>
</clipPath>
<clipPath id="clip2_13924_5145">
<rect x="-26.0236" y="-76.7642" width="154.335" height="154.335" transform="rotate(15 -26.0236 -76.7642)" fill="white"/>
</clipPath>
<clipPath id="clip3_13924_5145">
<rect x="122.729" y="-36.9061" width="154.335" height="154.335" transform="rotate(15 122.729 -36.9061)" fill="white"/>
</clipPath>
<clipPath id="clip4_13924_5145">
<rect x="271.482" y="2.95207" width="154.335" height="154.335" transform="rotate(15 271.482 2.95207)" fill="white"/>
</clipPath>
<clipPath id="clip5_13924_5145">
<rect x="-65.8817" y="71.9884" width="154.335" height="154.335" transform="rotate(15 -65.8817 71.9884)" fill="white"/>
</clipPath>
<clipPath id="clip6_13924_5145">
<rect x="82.8708" y="111.847" width="154.335" height="154.335" transform="rotate(15 82.8708 111.847)" fill="white"/>
</clipPath>
<clipPath id="clip7_13924_5145">
<rect x="231.623" y="151.705" width="154.335" height="154.335" transform="rotate(15 231.623 151.705)" fill="white"/>
</clipPath>
<clipPath id="clip8_13924_5145">
<rect x="380.376" y="191.563" width="154.335" height="154.335" transform="rotate(15 380.376 191.563)" fill="white"/>
</clipPath>
<clipPath id="clip9_13924_5145">
<rect x="-105.74" y="220.741" width="154.335" height="154.335" transform="rotate(15 -105.74 220.741)" fill="white"/>
</clipPath>
<clipPath id="clip10_13924_5145">
<rect x="43.0127" y="260.599" width="154.335" height="154.335" transform="rotate(15 43.0127 260.599)" fill="white"/>
</clipPath>
<clipPath id="clip11_13924_5145">
<rect x="191.765" y="300.457" width="154.335" height="154.335" transform="rotate(15 191.765 300.457)" fill="white"/>
</clipPath>
<clipPath id="clip12_13924_5145">
<rect x="340.518" y="340.315" width="154.335" height="154.335" transform="rotate(15 340.518 340.315)" fill="white"/>
</clipPath>
<clipPath id="clip13_13924_5145">
<rect x="-145.598" y="369.494" width="154.335" height="154.335" transform="rotate(15 -145.598 369.494)" fill="white"/>
</clipPath>
<clipPath id="clip14_13924_5145">
<rect x="3.15454" y="409.352" width="154.335" height="154.335" transform="rotate(15 3.15454 409.352)" fill="white"/>
</clipPath>
<clipPath id="clip15_13924_5145">
<rect x="151.907" y="449.21" width="154.335" height="154.335" transform="rotate(15 151.907 449.21)" fill="white"/>
</clipPath>
<clipPath id="clip16_13924_5145">
<rect x="300.66" y="489.068" width="154.335" height="154.335" transform="rotate(15 300.66 489.068)" fill="white"/>
</clipPath>
<clipPath id="clip17_13924_5145">
<rect x="-36.7036" y="558.104" width="154.335" height="154.335" transform="rotate(15 -36.7036 558.104)" fill="white"/>
</clipPath>
<clipPath id="clip18_13924_5145">
<rect x="112.049" y="597.962" width="154.335" height="154.335" transform="rotate(15 112.049 597.962)" fill="white"/>
</clipPath>
<clipPath id="clip19_13924_5145">
<rect x="260.802" y="637.82" width="154.335" height="154.335" transform="rotate(15 260.802 637.82)" fill="white"/>
</clipPath>
<clipPath id="clip20_13924_5145">
<rect x="-76.5617" y="706.857" width="154.335" height="154.335" transform="rotate(15 -76.5617 706.857)" fill="white"/>
</clipPath>
<clipPath id="clip21_13924_5145">
<rect x="72.1909" y="746.715" width="154.335" height="154.335" transform="rotate(15 72.1909 746.715)" fill="white"/>
</clipPath>
<clipPath id="clip22_13924_5145">
<rect x="220.943" y="786.573" width="154.335" height="154.335" transform="rotate(15 220.943 786.573)" fill="white"/>
</clipPath>
</defs>
</svg>
