<svg width="56" height="52" viewBox="0 0 56 52" fill="none" xmlns="http://www.w3.org/2000/svg">
<path d="M25.25 0.681641C15.92 0.681641 7.32722 5.82547 2.82422 14.1055C2.56022 14.5905 2.74156 15.1999 3.22656 15.4629C3.37856 15.5459 3.54112 15.584 3.70312 15.584C4.05713 15.584 4.40103 15.3955 4.58203 15.0625C8.73403 7.4265 16.654 2.68164 25.25 2.68164C26.1 2.68164 26.9588 2.72927 27.7988 2.82227C28.3478 2.88127 28.8404 2.4865 28.9004 1.9375C28.9614 1.3885 28.5666 0.893031 28.0176 0.832031C27.1046 0.731031 26.173 0.681641 25.25 0.681641ZM31.668 1.58789C31.2817 1.6373 30.9399 1.91155 30.8281 2.31055C30.6791 2.84255 30.9905 3.39297 31.5215 3.54297C41.6655 6.38797 48.75 15.6976 48.75 26.1816C48.75 26.3536 48.7423 26.5272 48.7383 26.6992C48.4133 26.6592 48.086 26.6309 47.75 26.6309C47.189 26.6309 46.6423 26.6898 46.1133 26.8008C45.9953 25.2008 45.8045 23.6062 45.5215 22.0332C44.8255 18.1652 43.0722 14.5885 40.4512 11.6875C40.0802 11.2775 39.4461 11.2452 39.0391 11.6152C38.6291 11.9862 38.5968 12.6173 38.9668 13.0273C41.3378 15.6513 42.9247 18.8887 43.5547 22.3887C43.8577 24.0727 44.0493 25.7811 44.1543 27.4941C43.2283 27.9621 42.4084 28.6049 41.7324 29.3789C41.6894 27.1839 41.4818 24.9851 41.0938 22.8301C39.4818 13.8811 30.8876 7.90463 21.9316 9.51562C12.9776 11.1276 7.00323 19.7227 8.61523 28.6777C8.70423 29.1717 8.75 29.6796 8.75 30.1836C8.75 30.8026 8.67997 31.4252 8.54297 32.0332C8.48197 32.3032 8.65092 32.5699 8.91992 32.6309C8.95692 32.6399 8.99425 32.6445 9.03125 32.6445C9.26025 32.6445 9.46558 32.4869 9.51758 32.2539C9.67058 31.5729 9.74805 30.8766 9.74805 30.1836C9.74805 29.6206 9.69861 29.055 9.59961 28.502C8.08561 20.091 13.6964 12.015 22.1074 10.5C30.5194 8.987 38.5944 14.6018 40.1074 23.0098C40.5324 25.3688 40.748 27.7816 40.748 30.1836C40.748 30.3826 40.7432 30.5822 40.7402 30.7812C40.1092 31.9253 39.748 33.2368 39.748 34.6328C39.748 35.0318 39.7887 35.4207 39.8457 35.8047C39.8067 36.0767 39.7686 36.3481 39.7246 36.6191C39.1346 40.2111 38.0547 43.7115 36.5137 47.0215C36.2807 47.5215 36.497 48.1176 36.998 48.3496C37.135 48.4126 37.2789 48.4434 37.4199 48.4434C37.7969 48.4434 38.1572 48.2292 38.3262 47.8652C39.6112 45.1062 40.5764 42.2188 41.2344 39.2598C42.6864 41.2978 45.061 42.6328 47.748 42.6328C52.159 42.6328 55.748 39.0438 55.748 34.6328C55.749 31.2698 53.6628 28.391 50.7188 27.209C50.7328 26.867 50.75 26.5246 50.75 26.1816C50.75 14.8046 43.0645 4.70319 32.0625 1.61719C31.9303 1.58019 31.7967 1.57142 31.668 1.58789ZM24.377 5.26172C23.3243 5.28519 22.2693 5.3895 21.2227 5.57812C18.0687 6.14613 15.1779 7.39692 12.6289 9.29492C12.3409 9.50792 12.0592 9.72708 11.7852 9.95508C11.5732 10.1311 11.5437 10.4482 11.7207 10.6602C11.8197 10.7792 11.9615 10.8418 12.1055 10.8418C12.2175 10.8418 12.3308 10.8036 12.4238 10.7266C12.6848 10.5106 12.9506 10.3007 13.2246 10.0977C15.6496 8.29266 18.4004 7.1025 21.4004 6.5625C26.7124 5.6075 32.2357 6.91534 36.5547 10.1523C36.7757 10.3183 37.0869 10.2747 37.2539 10.0527C37.4189 9.83173 37.3733 9.51756 37.1523 9.35156C33.4628 6.58581 28.9383 5.16 24.377 5.26172ZM9.33594 12.0254C9.08119 12.0498 8.8347 12.1718 8.6582 12.3848C4.7202 17.1588 3.0915 23.3866 4.1875 29.4746C4.2295 29.7046 4.25 29.9436 4.25 30.1816C4.25 31.4926 3.57808 32.7311 2.45508 33.4961C2.28408 33.6121 2.12484 33.7363 1.96484 33.8613L1.73242 34.043C1.29042 34.374 1.1993 35.0014 1.5293 35.4434C1.7263 35.7054 2.02703 35.8438 2.33203 35.8438C2.54003 35.8438 2.74969 35.7795 2.92969 35.6445L3.20117 35.4355C3.32517 35.3395 3.44903 35.2414 3.58203 35.1504C5.25303 34.0114 6.25 32.1546 6.25 30.1816C6.25 29.8246 6.2173 29.4661 6.1543 29.1191C5.1633 23.6121 6.63817 17.9763 10.2012 13.6562C10.5532 13.2303 10.4924 12.6 10.0664 12.248C9.85391 12.0725 9.59069 12.001 9.33594 12.0254ZM25.2812 12.7578C24.3712 12.7278 23.4528 12.796 22.5508 12.959C16.2188 14.099 11.6233 19.8007 11.8613 26.2207C11.8813 26.7597 12.3244 27.1836 12.8594 27.1836C12.8714 27.1836 12.8854 27.1816 12.8984 27.1816C13.4504 27.1606 13.8794 26.6965 13.8594 26.1445C13.6574 20.7135 17.5472 15.8927 22.9062 14.9277C23.6702 14.7897 24.4457 14.7299 25.2188 14.7559C25.7617 14.7719 26.231 14.3391 26.248 13.7871C26.265 13.2351 25.8332 12.7758 25.2812 12.7578ZM29.2363 14.084C29.0415 14.0888 28.8582 14.2069 28.7832 14.4004C28.6812 14.6574 28.8075 14.9488 29.0645 15.0508C32.8035 16.5258 35.4609 19.7648 36.1719 23.7168C36.5549 25.8478 36.748 28.0236 36.748 30.1836C36.748 33.3196 36.3411 36.4465 35.5371 39.4785C35.4651 39.7505 35.3905 40.023 35.3105 40.293C35.2335 40.558 35.3844 40.8341 35.6504 40.9121C35.6964 40.9251 35.745 40.9336 35.791 40.9336C36.008 40.9336 36.2065 40.7903 36.2695 40.5723C36.3515 40.2943 36.4299 40.0144 36.5039 39.7344C37.3309 36.6184 37.75 33.4046 37.75 30.1816C37.75 27.9626 37.5502 25.7281 37.1562 23.5391C36.3832 19.2441 33.4956 15.7231 29.4316 14.1191C29.3676 14.0941 29.3013 14.0824 29.2363 14.084ZM25.0312 16.752C24.4438 16.7416 23.851 16.788 23.2598 16.8945C22.5898 17.0155 21.9345 17.2106 21.3145 17.4746C20.8065 17.6916 20.5701 18.2791 20.7871 18.7871C21.0041 19.2951 21.5926 19.5315 22.0996 19.3145C22.5816 19.1085 23.0913 18.9583 23.6133 18.8633C25.4533 18.5303 27.3097 18.9369 28.8457 20.0039C30.3837 21.0719 31.4112 22.6737 31.7422 24.5137C31.8292 24.9977 32.2526 25.3359 32.7266 25.3359C32.7856 25.3359 32.8433 25.3313 32.9043 25.3203C33.4473 25.2223 33.8099 24.7022 33.7129 24.1582C33.2859 21.7922 31.9643 19.7333 29.9883 18.3613C28.5078 17.3323 26.7937 16.7831 25.0312 16.752ZM2.17578 17.4219C1.98158 17.4325 1.80247 17.553 1.73047 17.748C0.747469 20.456 0.25 23.2956 0.25 26.1836C0.25 27.8056 0.408656 29.4334 0.722656 31.0234C0.769656 31.2614 0.978891 31.4277 1.21289 31.4277C1.24489 31.4277 1.27755 31.425 1.31055 31.418C1.58255 31.365 1.75808 31.1001 1.70508 30.8301C1.40308 29.3041 1.25 27.7396 1.25 26.1836C1.25 23.4126 1.72887 20.6878 2.67188 18.0898C2.76587 17.8308 2.63109 17.5442 2.37109 17.4492C2.30634 17.4265 2.24052 17.4183 2.17578 17.4219ZM18.7949 19.4609C18.5395 19.4772 18.2899 19.5899 18.1074 19.7969C16.2754 21.8739 15.507 24.6267 15.998 27.3477C16.166 28.2797 16.252 29.2326 16.252 30.1816C16.252 32.5716 15.6983 34.9739 14.6523 37.1289C14.4113 37.6259 14.6182 38.2238 15.1152 38.4648C15.2562 38.5328 15.4038 38.5664 15.5508 38.5664C15.9218 38.5664 16.2782 38.3599 16.4512 38.0039C17.6292 35.5779 18.252 32.8736 18.252 30.1836C18.252 29.1166 18.1558 28.0411 17.9668 26.9941C17.5858 24.8771 18.1824 22.7361 19.6074 21.1191C19.9724 20.7041 19.9335 20.072 19.5195 19.707C19.3125 19.524 19.0503 19.4447 18.7949 19.4609ZM24.9668 21.2559C24.6678 21.2482 24.3624 21.27 24.0566 21.3242C22.8736 21.5372 21.8442 22.1985 21.1582 23.1855C20.4722 24.1725 20.2128 25.3678 20.4258 26.5508C20.6408 27.7468 20.75 28.9686 20.75 30.1816C20.75 30.7756 20.7249 31.3786 20.6719 31.9746C20.6479 32.2496 20.851 32.4916 21.127 32.5156C21.401 32.5326 21.643 32.3365 21.668 32.0625C21.723 31.4375 21.752 30.8046 21.752 30.1816C21.752 28.9096 21.6362 27.628 21.4102 26.373C21.2442 25.453 21.4475 24.5239 21.9805 23.7559C22.5135 22.9879 23.3144 22.4736 24.2344 22.3086C26.1324 21.9686 27.9588 23.2358 28.2988 25.1348C28.5978 26.7958 28.75 28.4936 28.75 30.1816C28.75 31.9086 28.5913 33.6467 28.2773 35.3457C28.2273 35.6177 28.4057 35.8777 28.6777 35.9277C28.7087 35.9337 28.7385 35.9355 28.7695 35.9355C29.0055 35.9355 29.2158 35.7683 29.2598 35.5273C29.5848 33.7683 29.75 31.9686 29.75 30.1816C29.75 28.4336 29.5932 26.6751 29.2832 24.9551C28.9 22.8201 27.0597 21.3097 24.9668 21.2559ZM24.6777 24.7695C24.1347 24.8675 23.7711 25.3876 23.8691 25.9316C24.1211 27.3306 24.25 28.7606 24.25 30.1816C24.25 37.1326 21.2092 43.7509 15.9082 48.3359C15.4912 48.6959 15.4456 49.3261 15.8066 49.7441C16.0046 49.9731 16.2845 50.0918 16.5645 50.0918C16.7965 50.0918 17.0298 50.0117 17.2188 49.8477C22.9587 44.8827 26.252 37.7136 26.252 30.1816C26.251 28.6416 26.1128 27.0922 25.8398 25.5762C25.7408 25.0332 25.2227 24.6675 24.6777 24.7695ZM47.75 27.6309C51.609 27.6309 54.75 30.7719 54.75 34.6309C54.75 38.4899 51.609 41.6309 47.75 41.6309C43.891 41.6309 40.75 38.4899 40.75 34.6309C40.75 30.7719 43.891 27.6309 47.75 27.6309ZM33.1621 27.7168C32.8861 27.7338 32.6754 27.9691 32.6914 28.2441C32.7294 28.8901 32.75 29.5366 32.75 30.1816C32.75 37.4656 30.2509 44.6286 25.7109 50.3496C25.5389 50.5656 25.574 50.8807 25.791 51.0527C25.883 51.1257 25.9926 51.1602 26.1016 51.1602C26.2486 51.1602 26.3951 51.0957 26.4941 50.9707C31.1741 45.0747 33.752 37.6906 33.752 30.1816C33.751 29.5176 33.7295 28.8525 33.6895 28.1875C33.6725 27.9125 33.4371 27.6868 33.1621 27.7168ZM13.25 29.6816C12.974 29.6816 12.75 29.9056 12.75 30.1816C12.75 34.3056 10.6912 38.1705 7.24219 40.5215C6.86619 40.7775 6.4805 41.0794 6.0625 41.4434C5.8545 41.6254 5.83167 41.9404 6.01367 42.1484C6.11267 42.2624 6.25163 42.3203 6.39062 42.3203C6.50762 42.3203 6.6257 42.2803 6.7207 42.1973C7.1077 41.8593 7.46169 41.5817 7.80469 41.3477C11.5267 38.8117 13.75 34.6366 13.75 30.1816C13.75 29.9056 13.526 29.6816 13.25 29.6816ZM51.5 31.1309C51.2442 31.131 50.9885 31.2288 50.793 31.4238L46.5 35.7168L44.707 33.9238C44.316 33.5328 43.684 33.5328 43.293 33.9238C42.902 34.3148 42.902 34.9469 43.293 35.3379L45.793 37.8379C45.988 38.0329 46.244 38.1309 46.5 38.1309C46.756 38.1309 47.012 38.0329 47.207 37.8379L52.207 32.8379C52.598 32.4469 52.598 31.8148 52.207 31.4238C52.0115 31.2283 51.7558 31.1307 51.5 31.1309ZM7.2207 34.7012C6.9667 34.7322 6.72323 34.8601 6.55273 35.0781C6.03173 35.7431 5.41103 36.3247 4.70703 36.8047C4.31103 37.0747 3.91313 37.3759 3.45312 37.7539C3.02713 38.1059 2.96736 38.7332 3.31836 39.1602C3.51636 39.4002 3.80184 39.5254 4.08984 39.5254C4.31384 39.5254 4.53861 39.4509 4.72461 39.2969C5.13661 38.9569 5.48898 38.6911 5.83398 38.4551C6.70798 37.8601 7.48091 37.1385 8.12891 36.3105C8.46891 35.8755 8.39203 35.2463 7.95703 34.9062C7.73953 34.7352 7.4747 34.6702 7.2207 34.7012ZM20.3203 34.9492C19.9335 34.9959 19.5933 35.2682 19.4785 35.668C18.2605 39.912 15.5956 43.6999 11.9746 46.3379C11.5286 46.6629 11.4309 47.2884 11.7559 47.7344C11.9509 48.0034 12.2555 48.1465 12.5645 48.1465C12.7685 48.1465 12.9743 48.0831 13.1523 47.9551C17.1313 45.0561 20.0623 40.8878 21.4023 36.2168C21.5543 35.6868 21.2478 35.1325 20.7168 34.9805C20.5838 34.9425 20.4493 34.9337 20.3203 34.9492ZM27.6172 38.5605C27.2276 38.5882 26.8745 38.8409 26.7402 39.2324C25.4262 43.0624 23.2148 46.656 20.3418 49.623C19.9578 50.019 19.9673 50.6521 20.3633 51.0371C20.5573 51.2251 20.8076 51.3184 21.0586 51.3184C21.3196 51.3184 21.5813 51.2167 21.7773 51.0137C24.8533 47.8377 27.2248 43.9879 28.6328 39.8809C28.8138 39.3589 28.5337 38.7913 28.0117 38.6113C27.88 38.5671 27.7471 38.5513 27.6172 38.5605ZM13.3379 40.4453C13.2106 40.4579 13.0875 40.517 13 40.623C11.991 41.852 10.8112 42.9292 9.49219 43.8262C9.27719 43.9732 9.07691 44.132 8.87891 44.293C8.66591 44.468 8.63359 44.7831 8.80859 44.9961C8.90759 45.1171 9.05031 45.1797 9.19531 45.1797C9.30631 45.1797 9.41872 45.1424 9.51172 45.0664C9.68672 44.9224 9.86569 44.7843 10.0547 44.6543C11.4537 43.7043 12.7044 42.5618 13.7734 41.2598C13.9484 41.0458 13.9171 40.7307 13.7031 40.5547C13.5956 40.4672 13.4651 40.4327 13.3379 40.4453ZM34.5391 43.0039C34.1495 43.0096 33.7822 43.2454 33.627 43.6309C32.827 45.6049 31.845 47.5202 30.707 49.3262C30.412 49.7932 30.5525 50.4111 31.0195 50.7051C31.1855 50.8091 31.3707 50.8594 31.5527 50.8594C31.8847 50.8594 32.2084 50.6946 32.3984 50.3926C33.6004 48.4866 34.6365 46.4629 35.4805 44.3789C35.6875 43.8679 35.4407 43.2851 34.9297 43.0781C34.8019 43.0264 34.6689 43.002 34.5391 43.0039Z" fill="url(#paint0_linear_13939_12)"/>
<defs>
<linearGradient id="paint0_linear_13939_12" x1="0.25" y1="26" x2="48.03" y2="26" gradientUnits="userSpaceOnUse">
<stop stop-color="#27890B"/>
<stop offset="1" stop-color="#009E08"/>
</linearGradient>
</defs>
</svg>
