<svg width="360" height="273" viewBox="0 0 360 273" fill="none" xmlns="http://www.w3.org/2000/svg">
<path d="M-27.6 101.481L-29.1333 111.308C-29.2165 111.842 -28.5123 112.11 -28.2193 111.657L-27.3696 110.342C-27.2518 110.159 -27.0298 110.074 -26.8202 110.13L-26.728 110.155C-26.495 110.217 -26.2507 110.104 -26.1471 109.886L-22.1722 101.529L-18.5544 94.4672C-18.4469 94.2575 -18.2076 94.1512 -17.98 94.2122L-17.5125 94.3375C-17.2755 94.401 -17.0273 94.2831 -16.9269 94.0591L-14.3719 88.3621C-14.1718 87.9159 -13.5162 87.9926 -13.4246 88.473L-13.1715 89.7993C-13.1615 89.8515 -13.1433 89.9018 -13.1175 89.9483L-12.6803 90.7358C-12.4889 91.0805 -11.9927 91.0785 -11.8041 90.7324L-9.58539 86.6613C-9.57075 86.6345 -9.5586 86.6063 -9.5491 86.5772L-7.03039 78.8598L-5.59985 75.1586C-5.38623 74.606 -4.55902 74.8182 -4.63793 75.4055L-4.98668 78.0007L-9.90994 96.3746L-15.4652 118.799L-13.2839 112.35L-9.92123 104.852C-9.91033 104.828 -9.90138 104.803 -9.89449 104.777L-7.79488 96.9413L-4.9269 89.5212C-4.87135 89.3775 -4.75267 89.2674 -4.6052 89.2229L-3.0518 88.7533C-2.72069 88.6532 -2.39041 88.9115 -2.40774 89.2569L-2.58112 92.7118L-2.36925 96.9454C-2.36779 96.9744 -2.36888 97.0036 -2.3725 97.0325L-3.55966 106.516L-4.40059 114.731L-5.02937 120.873C-5.0634 121.205 -4.59865 121.318 -4.47583 121.008V121.008C-4.35619 120.705 -3.90484 120.803 -3.92116 121.128L-3.94073 121.518C-3.96052 121.912 -3.41559 122.035 -3.26433 121.67L2.36252 108.103L7.71009 91.5296L10.5947 82.456L14.2531 71.6405C14.4236 71.1365 15.1588 71.2121 15.2231 71.7402L15.6574 75.306C15.663 75.3517 15.6622 75.398 15.6551 75.4435L14.8262 80.7565C14.7404 81.3063 15.4819 81.564 15.7555 81.0795L17.8268 77.4125C17.8437 77.3825 17.8575 77.3509 17.8679 77.3181L20.2096 69.9522C20.3617 69.4737 21.0453 69.4929 21.1704 69.9791L22.0068 73.2309C22.1154 73.653 22.6745 73.7438 22.911 73.3777L24.5727 70.8057C24.6009 70.762 24.6222 70.7141 24.6357 70.6638L27.077 61.5528L29.6099 53.7916L31.5485 48.5401C31.752 47.9888 32.5748 48.1795 32.515 48.7641L32.3298 50.5729C32.2742 51.116 33.005 51.3425 33.2663 50.8631L34.3174 48.9344C34.506 48.5883 35.0022 48.5864 35.1935 48.931L35.5668 49.6033C35.6326 49.7218 35.7436 49.8085 35.8745 49.8436L36.4775 50.0052C36.7356 50.0743 36.8937 50.3342 36.8365 50.5952L35.9369 54.6993C35.8081 55.2867 36.6354 55.5597 36.8815 55.011L37.1364 54.4426C37.1473 54.4183 37.1563 54.3931 37.1632 54.3674L38.4424 49.5934C38.5564 49.1676 39.168 49.1901 39.2506 49.623V49.623C39.3246 50.0108 39.8473 50.0858 40.0273 49.7344L41.3778 47.0983L44.8282 40.9896L46.545 37.6385C46.6525 37.4288 46.8918 37.3226 47.1194 37.3835L47.1544 37.3929C47.3956 37.4575 47.5521 37.6902 47.5211 37.938L46.3826 47.0327L46.0361 56.7863L45.6704 60.358C45.6094 60.954 46.4573 61.1336 46.6432 60.5641L47.7281 57.2397L50.2611 49.4785L52.0194 42.9164L54.5524 35.1553L57.0854 27.3941L59.8987 16.8948L62.4317 9.13359L64.9646 1.37242V1.37242C65.1333 0.936129 65.7875 1.12078 65.7031 1.58085L64.4754 8.27455L62.0137 17.4615L59.9038 25.336L57.8652 34.6363L55.7552 42.5108L55.0326 45.9323C54.9088 46.5184 55.7329 46.7868 55.978 46.2402L57.4472 42.9642L58.9437 39.3238C59.1574 38.804 59.9337 38.9777 59.9055 39.539L59.8498 40.6499C59.8451 40.7433 59.8667 40.836 59.912 40.9177L61.4085 43.6133C61.5459 43.8608 61.8781 43.9157 62.0878 43.7256V43.7256C62.378 43.4625 62.8414 43.6819 62.8218 44.0731L62.4571 51.3398L62.5321 61.0112C62.533 61.137 62.5802 61.2584 62.6709 61.3456C63.3201 61.9707 64.6046 62.8071 65.4947 62.0002C66.1602 61.3969 67.1364 60.8316 67.8988 60.4466C68.2536 60.2675 68.641 60.574 68.5693 60.9649L66.8011 70.6053C66.7802 70.7192 66.7995 70.8369 66.8558 70.9382L67.588 72.2572C67.651 72.3706 67.6674 72.504 67.6339 72.6293L65.5762 80.3085L63.8893 88.2963L63.0483 96.5109L62.552 102.728C62.5061 103.303 63.3089 103.486 63.5168 102.948L65.2347 98.5034L66.2897 94.5661L64.3225 105.292L62.7069 114.706V114.706C62.6556 115.207 63.3467 115.392 63.5529 114.932L65.79 109.944C65.8003 109.921 65.8125 109.899 65.8262 109.878L67.2918 107.609C67.3333 107.545 67.389 107.491 67.4546 107.452L70.0782 105.877C70.3429 105.719 70.6867 105.848 70.7811 106.142L70.8202 106.264C70.9282 106.6 71.3789 106.66 71.5707 106.363V106.363C71.8161 105.983 72.406 106.208 72.3362 106.655L72.008 108.758L71.7071 110.687C71.6645 110.96 72.0506 111.064 72.1502 110.806V110.806C72.2488 110.551 72.6305 110.649 72.5941 110.92L71.9526 115.693C71.9454 115.746 71.9469 115.801 71.957 115.853L72.5075 118.739L73.0512 121.588C73.0657 121.664 73.0975 121.735 73.1441 121.797L74.3101 123.333C74.3772 123.421 74.4718 123.485 74.579 123.513L75.5173 123.765C75.6245 123.794 75.7382 123.786 75.8405 123.743L77.5686 123.017C77.6708 122.974 77.7845 122.966 77.8917 122.995L79.1551 123.333C79.3192 123.377 79.4498 123.501 79.5018 123.663L79.9128 124.943L80.2144 125.882C80.3129 126.188 80.6714 126.323 80.9477 126.158L81.9282 125.569C81.9937 125.53 82.0494 125.476 82.0909 125.412L83.5434 123.163C83.5658 123.129 83.5839 123.091 83.5971 123.052L85.7585 116.663L86.8685 114.188C86.8794 114.163 86.8883 114.138 86.8952 114.112L87.9398 110.214V110.214C88.1212 109.705 88.8834 109.909 88.7859 110.44V110.44L87.0989 118.428L85.3406 124.99L83.5823 131.553L81.1207 140.739L79.3623 147.302L78.3787 152.665L77.6754 155.289L80.2797 148.954L81.7577 145.13L84.2907 137.369L86.0287 130.883C86.0421 130.832 86.0634 130.785 86.0917 130.741L87.5628 128.464C87.5864 128.427 87.6147 128.394 87.6469 128.365L89.9452 126.281C89.9774 126.252 90.0057 126.219 90.0293 126.182L91.5075 123.894C91.5311 123.858 91.5594 123.824 91.5917 123.795L93.8609 121.738C93.912 121.692 93.953 121.635 93.9813 121.572L95.0005 119.299C95.0424 119.206 95.1118 119.128 95.1995 119.075L96.6433 118.209C96.6714 118.192 96.6977 118.173 96.7219 118.151L99.0809 116.012L101.018 113.768C101.042 113.741 101.062 113.712 101.079 113.681L103.729 108.818L106.828 104.022L108.729 100.311L109.436 99.2159C109.7 98.808 110.331 98.9772 110.356 99.4622L110.421 100.764L110.283 106.354L110.145 111.944L110.413 117.283C110.424 117.5 110.573 117.685 110.783 117.741L112.381 118.169C112.488 118.198 112.601 118.19 112.704 118.147L114.59 117.355L116.633 116.737C116.875 116.664 117.133 116.782 117.235 117.013L118.438 119.732C118.458 119.778 118.471 119.825 118.477 119.874L119.171 125.57C119.175 125.601 119.181 125.632 119.191 125.662L120.165 128.695L121.398 131.482C121.5 131.713 121.758 131.832 122 131.759L123.936 131.174C124.007 131.152 124.072 131.115 124.127 131.065L127.606 127.912C127.626 127.893 127.645 127.873 127.663 127.851L130.384 124.4L132.666 121.506C132.887 121.226 133.324 121.26 133.515 121.561C133.842 122.076 134.24 122.62 134.471 122.682C134.78 122.765 135.778 122.25 136.361 121.914C136.461 121.856 136.536 121.763 136.575 121.654L138.345 116.686L140.174 111.55L141.561 106.376C141.574 106.326 141.595 106.278 141.624 106.234L142.179 105.375C142.488 104.896 143.229 105.225 143.082 105.776C142.69 107.237 142.304 108.677 142.147 109.265C141.865 110.315 140.67 115.903 140.108 118.566L138.35 125.128L136.311 134.428L134.201 142.303L133.737 144.622C133.62 145.206 134.44 145.468 134.684 144.924L135.119 143.955L137.651 136.194L140.256 129.858L142.479 124.902C142.498 124.858 142.525 124.817 142.556 124.78L144.276 122.788C144.401 122.643 144.599 122.582 144.784 122.632L145.447 122.809C145.632 122.859 145.83 122.798 145.955 122.653L147.722 120.606L150.081 118.467C150.105 118.445 150.132 118.426 150.16 118.409L151.639 117.522C151.704 117.482 151.76 117.429 151.801 117.364L154.062 113.865L155.963 110.154L157.864 106.444L160.188 102.846L162.477 99.3043C162.5 99.2677 162.528 99.2343 162.562 99.2061C162.975 98.8551 163.727 98.4937 163.781 99.5893C163.839 100.73 163.948 102.916 163.995 103.867L163.506 110.769L162.605 117.477C162.598 117.53 162.599 117.584 162.609 117.637L163.16 120.522L163.725 123.487L164.414 129.141C164.427 129.247 164.473 129.345 164.546 129.423L166.032 131.006C166.136 131.118 166.286 131.175 166.438 131.163L170.107 130.854C170.165 130.85 170.223 130.855 170.279 130.87L173.177 131.646L175.298 132.215C175.426 132.249 175.561 132.231 175.676 132.166L178.852 130.354L182.028 128.541C182.142 128.476 182.278 128.458 182.405 128.492L183.235 128.715C183.417 128.764 183.556 128.911 183.595 129.095L184.154 131.774L184.305 133.274C184.352 133.742 184.959 133.892 185.219 133.501L186.798 131.125C186.816 131.097 186.832 131.068 186.844 131.037L188.895 126.011L190.61 119.612C190.638 119.506 190.7 119.413 190.786 119.346L190.824 119.317C191.203 119.022 191.738 119.378 191.614 119.841L189.889 126.278L187.739 136.955L183.42 153.071C183.413 153.097 183.409 153.124 183.406 153.151L183.158 155.619C183.099 156.202 183.919 156.393 184.124 155.843L186.562 149.299L189.707 138.889L192.645 131.689C192.74 131.456 192.994 131.33 193.237 131.395L194.632 131.769C194.74 131.798 194.856 131.789 194.959 131.745L196.632 131.021C196.746 130.972 196.837 130.883 196.888 130.77L198.35 127.57C198.452 127.348 198.699 127.232 198.935 127.295L199.586 127.469C199.751 127.514 199.928 127.47 200.054 127.354L202.156 125.412C202.193 125.377 202.225 125.338 202.25 125.294L204.875 120.724L207.657 115.608C207.67 115.583 207.685 115.56 207.703 115.538L210.603 111.842C210.774 111.623 211.09 111.586 211.307 111.759L212.167 112.443C212.298 112.548 212.368 112.711 212.354 112.878L211.503 122.5L210.443 131.73C210.439 131.766 210.439 131.802 210.442 131.837L211.275 140.114C211.296 140.32 211.442 140.493 211.643 140.547L215.872 141.68C215.923 141.693 215.976 141.699 216.029 141.696L220.113 141.463C220.22 141.457 220.326 141.485 220.416 141.544L223.903 143.832L228.026 146.289C228.132 146.352 228.258 146.374 228.38 146.349L230.708 145.883C230.977 145.829 231.239 146.002 231.295 146.271L231.832 148.843C231.929 149.307 232.559 149.388 232.77 148.963L235.194 144.084C235.206 144.06 235.215 144.036 235.223 144.011L236.654 139.431C236.827 138.879 237.643 139.012 237.631 139.591L237.553 143.209C237.552 143.249 237.546 143.288 237.536 143.327L234.188 155.82L230.161 172.175V172.175C230.015 172.723 230.79 173.006 231.03 172.492L233.766 166.648C233.778 166.622 233.788 166.594 233.796 166.566L236.491 156.507C236.502 156.464 236.52 156.422 236.543 156.383L239.644 151.111C239.723 150.976 239.862 150.886 240.017 150.868L243.265 150.492C243.376 150.479 243.479 150.43 243.558 150.352L246.772 147.194C246.798 147.169 246.821 147.141 246.84 147.111L251.626 139.789L256.104 132.313C256.118 132.289 256.135 132.267 256.153 132.246L257.786 130.333C258.093 129.973 258.682 130.202 258.666 130.674L258.409 138.338L257.42 149.946C257.417 149.981 257.418 150.015 257.422 150.05L258.268 156.936C258.293 157.138 258.438 157.305 258.635 157.358L261.074 158.012C261.212 158.049 261.36 158.025 261.479 157.945L264.127 156.191C264.246 156.112 264.394 156.088 264.532 156.125L266.533 156.661C266.6 156.679 266.663 156.711 266.717 156.754L269.103 158.669C269.207 158.753 269.34 158.791 269.473 158.776L272.837 158.386C272.899 158.379 272.963 158.384 273.024 158.4L275.758 159.133C275.86 159.16 275.967 159.155 276.065 159.118L279.78 157.709C280.044 157.609 280.339 157.748 280.43 158.015L281.495 161.115C281.636 161.524 282.194 161.574 282.405 161.197L285.938 154.868C285.951 154.844 285.962 154.82 285.971 154.795L290.047 143.546L285.836 163.24L282.383 177.451L279.991 187.707L285.13 173.828L287.804 165.174L290.212 159.668C290.365 159.316 290.842 159.262 291.071 159.57L291.53 160.188C291.708 160.427 292.053 160.459 292.271 160.257L294.181 158.493C294.209 158.467 294.239 158.444 294.272 158.426L297.499 156.584C297.551 156.555 297.597 156.516 297.635 156.47L302.79 150.271C302.809 150.248 302.825 150.224 302.84 150.198L305.43 145.642C305.479 145.555 305.554 145.485 305.643 145.441L307.662 144.446C307.991 144.284 308.377 144.52 308.383 144.887L308.511 152.852L308.78 163.604C308.783 163.707 308.817 163.807 308.879 163.89L311.229 167.052C311.332 167.191 311.5 167.266 311.672 167.252L315.257 166.951C315.345 166.943 315.435 166.96 315.515 166.999L321.91 170.073C321.969 170.102 322.023 170.142 322.067 170.192L326.615 175.32C326.784 175.509 327.068 175.543 327.276 175.398L331.232 172.637C331.264 172.614 331.293 172.589 331.319 172.56L334.678 168.802C334.951 168.496 335.456 168.632 335.54 169.033L335.981 171.142C336.077 171.605 336.702 171.688 336.916 171.267L340.776 163.677L342.006 160.627C342.232 160.066 343.076 160.315 342.96 160.91L340.228 175.001L334.483 196.44C334.325 197.029 335.16 197.334 335.419 196.781L338.001 191.264L343.118 176.074C343.175 175.904 343.319 175.778 343.494 175.743L346.021 175.237C346.145 175.212 346.254 175.141 346.328 175.039L349.268 170.954C349.447 170.706 349.806 170.675 350.024 170.89L351.168 172.014C351.384 172.226 351.738 172.199 351.919 171.956L356.565 165.728L360.334 160.431C360.604 160.052 361.2 160.214 361.24 160.678L361.983 169.321C361.985 169.347 361.985 169.373 361.983 169.398L361.502 176.433C361.5 176.464 361.501 176.496 361.505 176.528L362.314 183.121C362.354 183.442 362.684 183.642 362.988 183.527L366.59 182.162C366.688 182.125 366.795 182.12 366.896 182.147L370.957 183.235C371.018 183.251 371.075 183.279 371.125 183.316L376.723 187.474C376.876 187.588 377.081 187.604 377.251 187.516L381.977 185.064C382.187 184.955 382.444 185.009 382.594 185.192L385.04 188.186C385.182 188.36 385.421 188.418 385.626 188.329L388.933 186.899C389.146 186.807 389.395 186.874 389.533 187.06L390.498 188.359C390.565 188.449 390.661 188.514 390.77 188.544L391.481 188.734C391.733 188.802 391.995 188.664 392.082 188.418L396.335 176.384L397.3 173.681C397.505 173.107 398.364 173.33 398.264 173.931L397.447 178.862L394.579 189.564L389.691 208.926C389.548 209.49 390.323 209.801 390.61 209.295L391.454 207.812C391.469 207.785 391.481 207.758 391.491 207.729L396.122 194.365C396.157 194.266 396.222 194.179 396.308 194.119L400.482 191.206C400.523 191.177 400.56 191.142 400.591 191.103L403.163 187.789C403.224 187.711 403.306 187.653 403.4 187.621L405.437 186.943C405.541 186.908 405.63 186.841 405.691 186.752L410.254 180.114L415.349 171.751C415.578 171.374 416.147 171.458 416.259 171.884L417.168 175.347C417.183 175.405 417.188 175.465 417.182 175.524L416.337 183.923L416.182 191.093C416.182 191.119 416.183 191.146 416.187 191.172L417.285 199.162C417.333 199.513 417.72 199.704 418.028 199.528L420.562 198.083C420.676 198.017 420.811 198 420.939 198.034L426.634 199.56C426.681 199.573 426.727 199.592 426.769 199.619L430.662 202.046L433.759 204.199C433.884 204.285 434.04 204.31 434.186 204.268L438.895 202.886C438.943 202.872 438.989 202.851 439.031 202.823L441.55 201.154C441.789 200.995 442.113 201.07 442.258 201.318L442.552 201.822C442.74 202.145 443.204 202.154 443.405 201.839L445.993 197.779C446.017 197.742 446.035 197.702 446.048 197.661L448.263 190.651C448.321 190.469 448.511 190.365 448.696 190.414V190.414C448.881 190.464 448.994 190.652 448.951 190.839L444.516 209.998L440.892 227.484C440.883 227.526 440.88 227.569 440.882 227.612L440.98 229.443C441.009 229.99 441.77 230.098 441.951 229.581L445.65 219.019L448.843 208.42C448.86 208.361 448.889 208.306 448.926 208.258L451.521 204.916C451.561 204.865 451.611 204.821 451.668 204.789L453.14 203.949C453.218 203.904 453.282 203.84 453.327 203.762L456.424 198.32C456.536 198.122 456.768 198.026 456.988 198.084L458.198 198.409C458.433 198.472 458.678 198.357 458.781 198.138L463.588 187.867L467.959 180.639C468.203 180.235 468.818 180.363 468.882 180.83L469.76 187.291C469.765 187.326 469.766 187.361 469.763 187.395L468.818 200.165L469.15 207.777C469.16 207.995 469.31 208.182 469.521 208.238L473.661 209.348C473.756 209.373 473.856 209.37 473.949 209.339L478.344 207.875C478.437 207.844 478.537 207.841 478.631 207.866L484.284 209.381C484.393 209.41 484.488 209.475 484.556 209.565L486.98 212.828C487.034 212.9 487.067 212.986 487.076 213.076L487.344 215.739C487.35 215.799 487.367 215.857 487.394 215.912L488.718 218.57C488.852 218.839 489.191 218.93 489.442 218.764L491.434 217.443C491.713 217.259 492.091 217.394 492.189 217.714L493.49 221.984C493.5 222.018 493.506 222.053 493.508 222.088V222.088C493.534 222.566 494.197 222.664 494.36 222.215L497.708 212.978L498.465 210.816C498.67 210.231 499.546 210.468 499.428 211.076L497.959 218.671C496.671 223.477 494.041 233.293 493.823 234.106C493.605 234.919 491.734 241.901 490.826 245.289L490.715 245.704C490.555 246.303 491.384 246.588 491.622 246.015C492.319 244.333 492.873 242.953 492.969 242.595C493.242 241.578 494.604 236.495 495.48 234.55C496.175 233.008 497.897 229.457 498.692 227.831C498.706 227.802 498.722 227.776 498.742 227.75L501.256 224.434C501.379 224.272 501.587 224.2 501.784 224.253L502.386 224.414C502.617 224.476 502.86 224.365 502.965 224.15L505.934 218.039C505.947 218.013 505.961 217.988 505.978 217.965L507.449 215.922C507.57 215.753 507.783 215.677 507.984 215.731L508.61 215.899C508.826 215.957 509.055 215.863 509.169 215.67L515.438 205.081C515.456 205.051 515.477 205.023 515.5 204.998L518.786 201.417C519.068 201.111 519.578 201.262 519.646 201.673C519.984 203.729 520.455 206.725 520.495 207.474C520.542 208.351 520.106 217.214 519.877 221.632C519.874 221.698 519.884 221.762 519.906 221.824L521.864 227.268C521.983 227.599 522.397 227.707 522.662 227.476L525.428 225.068C525.641 224.883 525.965 224.91 526.144 225.129L528.541 228.064C528.673 228.225 528.889 228.288 529.086 228.223C530.725 227.682 533.523 226.794 533.771 226.861C534.018 226.927 535.801 228.216 536.843 228.986C536.982 229.088 537.162 229.112 537.322 229.05L543.171 226.781C543.32 226.723 543.487 226.739 543.619 226.827C544.874 227.661 546.962 229.332 546.696 230.324C546.344 231.636 553.187 214.054 553.459 213.037C553.677 212.224 543.557 253.97 543.947 255.164C544.325 256.32 552.126 233.491 552.635 231.999C552.653 231.946 552.679 231.9 552.713 231.856L554.961 228.96C555.167 228.695 555.569 228.704 555.763 228.977L556.399 229.869C556.549 230.079 556.835 230.141 557.058 230.01L559.962 228.313C560.009 228.285 560.052 228.25 560.088 228.209L564.116 223.563C564.136 223.54 564.154 223.515 564.169 223.49L568.041 216.945L570.903 212.547C571.159 212.154 571.767 212.298 571.819 212.765L572.285 216.941C572.289 216.976 572.289 217.011 572.285 217.046L571.01 229.726L570.547 237.952C570.541 238.06 570.57 238.167 570.63 238.257L572.533 241.117C572.689 241.351 573.006 241.411 573.236 241.25L576.995 238.627C577.116 238.542 577.268 238.516 577.41 238.554L581.741 239.714C581.797 239.729 581.85 239.754 581.897 239.787L585.029 241.963C585.088 242.004 585.138 242.059 585.175 242.121L586.779 244.868C586.932 245.129 587.279 245.196 587.518 245.011L592.451 241.177L596.028 237.506C596.338 237.189 596.877 237.401 596.886 237.844L597.031 244.384C597.04 244.762 597.45 244.995 597.779 244.807L598.559 244.361C598.667 244.3 598.749 244.2 598.787 244.082L602.803 231.707V231.707C602.914 231.461 603.285 231.583 603.228 231.847L599.225 250.362L595.139 265.612L593.936 271.648C593.82 272.232 594.638 272.494 594.882 271.952L595.69 270.16C595.701 270.135 595.71 270.11 595.717 270.084L597.613 263.006L600.455 255.051L602.898 248.484C602.958 248.321 603.099 248.202 603.268 248.168L605.817 247.657C605.934 247.633 606.039 247.569 606.112 247.475L608.695 244.183L610.199 242.472C610.446 242.191 610.902 242.27 611.04 242.618L611.976 244.986C611.998 245.042 612.03 245.093 612.07 245.138L614.89 248.255C615.101 248.489 615.473 248.471 615.662 248.219L619.727 242.78" stroke="#E02D2D" stroke-linecap="round"/>
</svg>
