<svg width="641" height="685" viewBox="0 0 641 685" fill="none" xmlns="http://www.w3.org/2000/svg">
<circle cx="342.152" cy="369.652" r="200" stroke="#03ACF2"/>
<circle cx="342.25" cy="372.25" r="288.75" stroke="#03ACF2"/>
<g filter="url(#filter0_d_13843_148191)">
<ellipse cx="182.652" cy="489.402" rx="31" ry="30.75" fill="#4CAF50"/>
<path d="M211.652 489.402C211.652 505.265 198.683 518.152 182.652 518.152C166.62 518.152 153.652 505.265 153.652 489.402C153.652 473.539 166.62 460.652 182.652 460.652C198.683 460.652 211.652 473.539 211.652 489.402Z" stroke="white" stroke-width="4"/>
</g>
<ellipse cx="182.652" cy="489.364" rx="4.85714" ry="4.88474" fill="white"/>
<path fill-rule="evenodd" clip-rule="evenodd" d="M174.152 489.364C174.152 486.547 175.56 484.082 177.667 482.721L175.911 480.85C175.436 481.202 174.986 481.601 174.569 482.046C172.734 484 171.723 486.599 171.723 489.364C171.723 492.128 172.734 494.727 174.569 496.682C174.986 497.127 175.436 497.526 175.911 497.877L177.667 496.007C175.56 494.646 174.152 492.18 174.152 489.364Z" fill="white"/>
<path fill-rule="evenodd" clip-rule="evenodd" d="M191.152 489.364C191.152 492.18 189.744 494.646 187.637 496.006L189.393 497.877C189.868 497.526 190.318 497.127 190.735 496.682C192.57 494.727 193.581 492.128 193.581 489.364C193.581 486.599 192.57 484 190.735 482.046C190.318 481.601 189.868 481.202 189.393 480.85L187.637 482.721C189.744 484.081 191.152 486.547 191.152 489.364Z" fill="white"/>
<path fill-rule="evenodd" clip-rule="evenodd" d="M168.08 489.364C168.08 485.122 169.997 481.357 172.958 478.998L171.225 477.152C170.77 477.533 170.334 477.945 169.92 478.387C168.582 479.812 167.532 481.471 166.798 483.32C166.037 485.236 165.652 487.269 165.652 489.364C165.652 491.458 166.037 493.492 166.798 495.407C167.532 497.256 168.582 498.916 169.92 500.341C170.334 500.782 170.77 501.194 171.225 501.576L172.957 499.73C169.997 497.371 168.08 493.606 168.08 489.364Z" fill="white"/>
<path fill-rule="evenodd" clip-rule="evenodd" d="M197.223 489.364C197.223 493.606 195.307 497.371 192.346 499.73L194.079 501.55C194.534 501.168 194.97 500.782 195.384 500.341C196.721 498.916 197.772 497.256 198.506 495.407C199.266 493.492 199.652 491.458 199.652 489.364C199.652 487.269 199.266 485.236 198.506 483.32C197.772 481.471 196.721 479.812 195.384 478.387C194.97 477.945 194.534 477.533 194.079 477.152L192.346 478.998C195.307 481.357 197.223 485.122 197.223 489.364Z" fill="white"/>
<g filter="url(#filter1_d_13843_148191)">
<circle cx="347.402" cy="100.902" r="45.75" fill="#4CAF50"/>
<circle cx="347.402" cy="100.902" r="43.75" stroke="white" stroke-width="4"/>
</g>
<path fill-rule="evenodd" clip-rule="evenodd" d="M370.198 86.125H357.993V83.007C357.891 80.143 355.789 78 352.794 78H348.245H343.696C340.711 78 338.599 80.143 338.497 83.007V86.125H326.292C325.845 86.125 325.5 86.4906 325.5 86.9375V116.188C325.5 116.634 325.835 117 326.292 117H370.208C370.655 117 371 116.634 371 116.188V86.9375C370.99 86.4906 370.655 86.125 370.198 86.125ZM341.5 83.2141C341.5 83.1726 341.5 83.1414 341.5 83.1102C341.5 83.079 341.5 83.0478 341.5 83.0062C341.5 81.9979 342.373 81 343.409 81H348H352.591C353.616 81 354.5 81.9875 354.5 83.0062C354.5 83.0374 354.5 83.0686 354.5 83.1102C354.5 83.1518 354.5 83.1726 354.5 83.2141V86H341.5V83.2141ZM358 104H351.5V110.5H345V104H338.5V97.5H345V91H351.5V97.5H358V104Z" fill="white"/>
<g filter="url(#filter2_d_13843_148191)">
<ellipse cx="118.152" cy="562.902" rx="23" ry="22.75" fill="#F42E88"/>
<path d="M139.152 562.902C139.152 574.341 129.77 583.652 118.152 583.652C106.533 583.652 97.1517 574.341 97.1517 562.902C97.1517 551.462 106.533 542.152 118.152 542.152C129.77 542.152 139.152 551.462 139.152 562.902Z" stroke="white" stroke-width="4"/>
</g>
<path fill-rule="evenodd" clip-rule="evenodd" d="M117.349 567.706C116.376 568.256 115.249 568.571 114.049 568.571C112.849 568.571 111.723 568.257 110.749 567.706C108.166 568.49 106.583 571.089 106 573.378H122.099C121.516 571.089 119.933 568.49 117.349 567.706Z" fill="white"/>
<path fill-rule="evenodd" clip-rule="evenodd" d="M114.049 555.502C110.846 555.502 108.249 558.085 108.249 561.272C108.249 564.458 110.846 567.042 114.049 567.042C117.252 567.042 119.849 564.458 119.849 561.272C119.849 558.085 117.252 555.502 114.049 555.502ZM114.049 565.667C112.205 565.667 110.629 564.44 109.996 562.913H118.102C117.469 564.44 115.893 565.667 114.049 565.667Z" fill="white"/>
<path fill-rule="evenodd" clip-rule="evenodd" d="M121.822 569.861H130.367C129.79 567.583 128.221 565.429 125.66 564.649C124.694 565.197 123.578 565.51 122.388 565.51C121.584 565.51 120.813 565.366 120.099 565.104C119.695 565.78 119.18 566.492 118.58 566.998C120.011 567.547 121.091 568.776 121.822 569.861Z" fill="white"/>
<path fill-rule="evenodd" clip-rule="evenodd" d="M120.95 559.879H126.406C125.779 561.398 124.216 562.607 122.388 562.607C121.907 562.607 121.444 562.515 121.011 562.362C120.938 562.835 120.818 563.289 120.657 563.725C121.203 563.897 121.785 563.989 122.388 563.989C125.563 563.989 128.137 561.417 128.137 558.245C128.137 555.073 125.563 552.501 122.388 552.501C120.353 552.501 118.565 553.57 117.543 555.165C119.27 556.156 120.538 557.871 120.95 559.879Z" fill="white"/>
<g filter="url(#filter3_d_13843_148191)">
<ellipse cx="566.652" cy="188.902" rx="16" ry="15.75" fill="#F42E88"/>
<path d="M580.652 188.902C580.652 196.466 574.414 202.652 566.652 202.652C558.89 202.652 552.652 196.466 552.652 188.902C552.652 181.338 558.89 175.152 566.652 175.152C574.414 175.152 580.652 181.338 580.652 188.902Z" stroke="white" stroke-width="4"/>
</g>
<path fill-rule="evenodd" clip-rule="evenodd" d="M571.516 183.948C570.35 182.688 568.458 182.688 567.293 183.948L566.5 184.802L565.707 183.945C564.539 182.685 562.65 182.685 561.484 183.945C560.172 185.362 560.172 187.661 561.484 189.077L566.5 194.5L571.516 189.08C572.828 187.664 572.828 185.365 571.516 183.948Z" fill="white"/>
<g filter="url(#filter4_d_13843_148191)">
<ellipse cx="470.652" cy="571.902" rx="52" ry="51.75" fill="#F42E88"/>
<path d="M518.652 571.902C518.652 598.255 497.18 619.652 470.652 619.652C444.124 619.652 422.652 598.255 422.652 571.902C422.652 545.548 444.124 524.152 470.652 524.152C497.18 524.152 518.652 545.548 518.652 571.902Z" stroke="white" stroke-width="8"/>
</g>
<path fill-rule="evenodd" clip-rule="evenodd" d="M495.65 574.814C493.058 574.814 490.861 576.513 490.093 578.82H485.357L481.901 568.451C481.636 567.655 480.889 567.121 480.05 567.121C480.037 567.121 480.023 567.121 480.01 567.121C479.154 567.139 478.411 567.709 478.175 568.528L472.754 587.376L466.373 549.245C466.221 548.337 465.466 547.5 464.45 547.5C463.434 547.5 462.781 548.201 462.558 549.095L455.126 578.82H443V582.704H456.65C457.546 582.704 458.326 582.097 458.542 581.231L464.071 559.116L470.326 596.498C470.476 597.394 471.228 597.945 472.138 597.997C472.176 597.999 472.213 598 472.25 598C473.115 598 473.884 597.551 474.125 596.714L480.187 575.638L482.099 581.374C482.364 582.168 483.11 582.704 483.95 582.704H490.179C491.015 584.889 493.149 586.468 495.65 586.468C498.881 586.468 501.5 583.737 501.5 580.519C501.5 577.301 498.881 574.814 495.65 574.814Z" fill="white"/>
<g filter="url(#filter5_d_13843_148191)">
<ellipse cx="546.652" cy="351.402" rx="23" ry="22.75" fill="#03ACF2"/>
<path d="M567.652 351.402C567.652 362.841 558.271 372.152 546.652 372.152C535.033 372.152 525.652 362.841 525.652 351.402C525.652 339.962 535.033 330.652 546.652 330.652C558.271 330.652 567.652 339.962 567.652 351.402Z" stroke="white" stroke-width="4"/>
</g>
<path fill-rule="evenodd" clip-rule="evenodd" d="M557 343.107C555.791 343.372 554.646 343.666 553.56 343.982C550.968 344.736 548.723 345.617 546.805 346.528C545.57 347.114 545.124 347.38 543.504 348.3C539.767 350.423 537.525 352.708 537.525 357.35C537.525 361.992 541.089 365.5 546.75 365.5C552.411 365.5 555.975 361.992 555.975 357.35C555.975 352.708 552.067 349.214 557 343.107Z" fill="white"/>
<path fill-rule="evenodd" clip-rule="evenodd" d="M536.5 341.072C539.157 344.067 539.359 347.681 539.023 350.279C539.841 349.562 541.02 348.642 542.62 347.646C543.032 347.389 543.472 347.127 543.942 346.863C544.684 346.444 545.45 346.047 546.238 345.669C545.654 344.975 544.824 344.358 543.891 343.818C540.769 342.01 536.5 341.072 536.5 341.072Z" fill="white"/>
<path fill-rule="evenodd" clip-rule="evenodd" d="M552.9 339.036C552.9 339.036 547.863 339.183 544.528 343.01C545.594 343.64 546.433 344.314 547.024 345.016L547.199 345.223C549.579 344.155 552.845 343.055 554.95 342.55C554.541 341.06 552.9 339.036 552.9 339.036Z" fill="white"/>
<path fill-rule="evenodd" clip-rule="evenodd" d="M541.625 337C540.648 338.425 539.98 339.882 539.682 340.817C541.034 341.221 541.954 341.657 543.614 342.507C544.223 341.782 544.922 341.132 545.703 340.564C543.825 337.996 541.625 337 541.625 337Z" fill="white"/>
<g filter="url(#filter6_d_13843_148191)">
<ellipse cx="110.152" cy="232.902" rx="52" ry="51.75" fill="#03ACF2"/>
<path d="M160.152 232.902C160.152 260.369 137.775 282.652 110.152 282.652C82.5284 282.652 60.1517 260.369 60.1517 232.902C60.1517 205.435 82.5284 183.152 110.152 183.152C137.775 183.152 160.152 205.435 160.152 232.902Z" stroke="white" stroke-width="4"/>
</g>
<path fill-rule="evenodd" clip-rule="evenodd" d="M138.705 256.061L122.125 228.048V206.969C122.125 205.886 121.211 205 120.086 205C118.961 205 118.047 205.872 118.047 206.969V228.569C118.047 228.822 118.131 229.075 118.23 229.314C117.161 227.753 115.333 226.727 113.251 226.727C109.947 226.727 107.275 229.3 107.275 232.492C107.275 234.855 108.751 236.922 110.847 237.766H100.722L105.644 229.539C105.812 229.244 105.939 228.906 105.939 228.569V224.294C106.501 224.744 107.345 225.011 108.203 225.011C110.355 225.011 112.07 223.338 112.07 221.27C112.07 219.203 110.355 217.53 108.203 217.53C107.345 217.53 106.501 217.797 105.939 218.247V206.969C105.939 205.886 105.025 205 103.9 205C102.775 205 101.861 205.872 101.861 206.969V228.048L85.2952 256.061C84.9437 256.666 84.9296 257.411 85.2952 258.016C85.6608 258.62 86.3077 259 87.039 259H112H136.961C137.678 259 138.339 258.634 138.705 258.016C139.07 257.425 139.056 256.666 138.705 256.061ZM115.684 237.766C117.78 236.922 119.256 234.841 119.256 232.492C119.256 231.691 119.087 230.917 118.778 230.228L123.137 237.766H115.684Z" fill="white"/>
<path fill-rule="evenodd" clip-rule="evenodd" d="M113.28 214.084C114.967 214.084 116.331 212.763 116.331 211.145C116.331 209.514 114.967 208.206 113.28 208.206C111.592 208.206 110.228 209.528 110.228 211.145C110.214 212.763 111.592 214.084 113.28 214.084Z" fill="white"/>
<ellipse opacity="0.3" cx="342" cy="371.81" rx="148" ry="147.81" fill="url(#paint0_linear_13843_148191)"/>
<rect x="259" y="338" width="47" height="53" fill="#03ACF2"/>
<path fill-rule="evenodd" clip-rule="evenodd" d="M282.811 455.35L282.009 466.27C281.936 467.27 282.299 468.253 283.006 468.966C283.714 469.68 284.695 470.054 285.7 469.994L291.329 469.654C291.856 469.622 292.343 469.357 292.656 468.932C292.968 468.507 293.075 467.965 292.947 467.454L289.822 455L282.811 455.35Z" fill="#00838F"/>
<path fill-rule="evenodd" clip-rule="evenodd" d="M330.784 461.588C337.355 463.12 342.049 465.298 345.132 468.245C346.23 469.287 347.667 469.901 349.181 469.976C351.115 470.077 352.696 469.861 353.885 469.332H353.885C354.505 469.059 354.928 468.473 354.989 467.801C355.063 467.117 354.758 466.449 354.195 466.053L338.611 455L331.992 457.64L330.448 459.179C330.109 459.517 329.948 459.994 330.015 460.467C330.081 460.94 330.366 461.355 330.784 461.588Z" fill="#00838F"/>
<path fill-rule="evenodd" clip-rule="evenodd" d="M308.978 281L264 280.588C264.113 274.109 265.637 267.747 268.969 262.054C271.157 258.315 271.11 254.246 270.583 250.818C269.769 245.527 271.661 240.114 275.866 236.747C279.08 234.168 283.136 232.841 287.27 233.015L288.143 233.051C293.924 233.289 299.185 236.418 302.107 241.357C303.569 243.952 304.158 246.939 303.79 249.887C303.505 252.66 304.187 255.462 305.783 258.29C308.536 264.501 309.132 272.448 308.978 281Z" fill="#212121"/>
<path fill-rule="evenodd" clip-rule="evenodd" d="M340 455.681L331.137 458L287.979 363.708L290.677 455.681H281.814C272.343 412.411 255.245 362.472 262.932 346.705L308.788 344L340 455.681Z" fill="#01579B"/>
<circle cx="287" cy="254" r="12" fill="#FFF3E0"/>
<path fill-rule="evenodd" clip-rule="evenodd" d="M299 275L279 273.833C280.96 269.372 281.743 265.076 280.961 261H295.863C295.829 264.13 297.399 269.544 299 275Z" fill="#FFF3E0"/>
<path fill-rule="evenodd" clip-rule="evenodd" d="M311 346.914L268 350L272.415 273.436L279.902 271.314L288.348 273.243L296.794 269L302.169 270.929L311 346.914Z" fill="#B3E5FC"/>
<path fill-rule="evenodd" clip-rule="evenodd" d="M274.586 403L245 396.254C253.797 367.173 269.646 300.647 264.53 276.939L280 270L274.586 403V403Z" fill="#357A38"/>
<path fill-rule="evenodd" clip-rule="evenodd" d="M260.479 318L249 310.991L258.79 282.786C259.882 279.876 261.973 277.432 264.702 275.878L268 274L266.021 302.425L260.479 318V318Z" fill="#357A38"/>
<path fill-rule="evenodd" clip-rule="evenodd" d="M337 396.682C327.609 402.079 304.136 405.087 293.83 401.318C293.071 374.988 291.584 300.509 296.358 269L313.47 275.954L311.915 296.816C303.733 314.662 327.49 376.82 337 396.682V396.682Z" fill="#357A38"/>
<path fill-rule="evenodd" clip-rule="evenodd" d="M334.864 315L324.636 311.471L311 295.392L313.273 275L336 307.941L334.864 315Z" fill="#357A38"/>
<path fill-rule="evenodd" clip-rule="evenodd" d="M303.07 330.663C303.414 332.277 304.915 333.289 306.426 332.926L315 330.85L313.761 325L305.187 327.075C303.675 327.441 302.728 329.048 303.07 330.663Z" fill="#FFF3E0"/>
<path fill-rule="evenodd" clip-rule="evenodd" d="M297.656 250C290.93 247.277 284.287 247.08 277.735 249.615L275 240H300L297.656 250Z" fill="#212121"/>
<path fill-rule="evenodd" clip-rule="evenodd" d="M311 323.625L315.875 333C324.075 330.618 331.181 323.108 338 314.25L336.125 308L324.5 311.125L311 323.625H311Z" fill="#357A38"/>
<path fill-rule="evenodd" clip-rule="evenodd" d="M306 304H304.429C304.429 282.502 299.852 267.52 295.393 267.52L295 266C298.999 266 301.549 272.235 302.984 277.466C304.929 284.558 306 293.981 306 304Z" fill="#4CAF50"/>
<path fill-rule="evenodd" clip-rule="evenodd" d="M271.517 300H270C270 279.645 274.449 267 281 267L280.621 268.571C276.089 268.571 271.517 278.289 271.517 300Z" fill="#4CAF50"/>
<circle cx="306" cy="305" r="4" fill="#4CAF50"/>
<path fill-rule="evenodd" clip-rule="evenodd" d="M264.556 309H263C263 303.486 266.14 299 270 299V300.538C266.998 300.538 264.556 304.334 264.556 309Z" fill="#4CAF50"/>
<path fill-rule="evenodd" clip-rule="evenodd" d="M277 309H275.444C275.444 304.334 273.002 300.538 270 300.538V299C273.86 299 277 303.486 277 309Z" fill="#4CAF50"/>
<circle cx="275.5" cy="309.5" r="1.5" fill="#357A38"/>
<circle cx="263.5" cy="309.5" r="1.5" fill="#357A38"/>
<path fill-rule="evenodd" clip-rule="evenodd" d="M244 294L253.739 295.719L276 327L264.174 324.25L244 294Z" fill="#00838F"/>
<path fill-rule="evenodd" clip-rule="evenodd" d="M242.812 294C242.511 294.005 242.237 294.171 242.096 294.434C241.955 294.698 241.97 295.016 242.136 295.265L262.851 326.388C262.967 326.562 263.145 326.685 263.35 326.733L272.988 328.978C273.321 329.056 273.667 328.922 273.859 328.641C274.05 328.361 274.047 327.993 273.85 327.716L251.106 295.693C250.981 295.517 250.791 295.397 250.577 295.359L242.968 294.014C242.916 294.005 242.864 294 242.812 294Z" fill="#4CAF50"/>
<path fill-rule="evenodd" clip-rule="evenodd" d="M256 315.955L256.562 322L265.435 321.06C266.999 320.894 268.141 319.407 267.986 317.738C267.831 316.068 266.437 314.849 264.873 315.015L256 315.955Z" fill="#FFF3E0"/>
<path fill-rule="evenodd" clip-rule="evenodd" d="M248 315.74C248.027 319.754 251.347 322.995 255.436 323H256.92L258 314.162L249.055 311L248 315.74Z" fill="#357A38"/>
<path opacity="0.89674" fill-rule="evenodd" clip-rule="evenodd" d="M384 312H560V224H384V312Z" fill="white"/>
<rect opacity="0.476632" x="384" y="224" width="176" height="92" rx="10" stroke="#03ACF2" stroke-width="7"/>
<rect x="402" y="241" width="59" height="59" fill="#B3E5FC"/>
<circle cx="446.5" cy="266.5" r="1.5" fill="#01579B"/>
<circle cx="439.5" cy="260.5" r="1.5" fill="#01579B"/>
<path fill-rule="evenodd" clip-rule="evenodd" d="M439.537 266.68C438.9 266.68 438.275 266.854 437.733 267.183C437.255 266.476 436.693 265.826 436.06 265.249C436.067 265.158 436.074 265.067 436.074 264.974C436.075 263.606 435.245 262.37 433.966 261.835C432.688 261.299 431.209 261.569 430.209 262.519C429.282 262.39 428.341 262.382 427.412 262.495C427.412 262.469 427.416 262.443 427.416 262.416C427.418 260.842 426.327 259.472 424.776 259.098C423.224 258.724 421.614 259.444 420.879 260.84C420.143 262.237 420.472 263.948 421.676 264.982C421.096 265.471 420.57 266.019 420.107 266.617C418.932 265.654 417.255 265.563 415.981 266.394C414.706 267.224 414.135 268.78 414.576 270.221C415.016 271.663 416.364 272.649 417.892 272.649L417.903 272.649C417.897 272.791 417.892 272.933 417.892 273.076C417.892 273.934 417.997 274.789 418.205 275.623C415.367 276.675 413.647 279.522 414.061 282.481C414.476 285.44 416.916 287.722 419.938 287.977C422.959 288.231 425.757 286.391 426.677 283.544C429.086 284 431.58 283.636 433.751 282.511C434.361 283.925 435.855 284.763 437.401 284.558C438.947 284.353 440.163 283.155 440.372 281.632C440.58 280.11 439.729 278.638 438.293 278.037C439.043 276.635 439.464 275.085 439.526 273.502L439.537 273.502C441.45 273.502 443 271.975 443 270.091C443 268.207 441.45 266.68 439.537 266.68Z" fill="#4CAF50"/>
<rect x="420" y="241" width="18" height="2" fill="#00838F"/>
<rect x="477" y="241" width="59" height="59" fill="#B3E5FC"/>
<circle cx="517.5" cy="280.5" r="0.5" fill="#00838F"/>
<circle cx="514.5" cy="277.5" r="0.5" fill="#00838F"/>
<path fill-rule="evenodd" clip-rule="evenodd" d="M514.448 280.443C514.162 280.443 513.882 280.521 513.639 280.668C513.424 280.351 513.173 280.06 512.889 279.801C512.892 279.761 512.895 279.72 512.895 279.678C512.896 279.065 512.524 278.511 511.95 278.271C511.377 278.031 510.714 278.152 510.266 278.578C509.85 278.52 509.429 278.516 509.012 278.567C509.012 278.555 509.014 278.543 509.014 278.531C509.015 277.826 508.526 277.212 507.83 277.044C507.135 276.876 506.413 277.199 506.084 277.825C505.754 278.451 505.901 279.218 506.441 279.682C506.181 279.901 505.945 280.146 505.738 280.414C505.211 279.983 504.459 279.942 503.888 280.315C503.317 280.687 503.061 281.384 503.258 282.03C503.456 282.676 504.06 283.119 504.745 283.119L504.75 283.118C504.747 283.182 504.745 283.246 504.745 283.31C504.745 283.695 504.792 284.078 504.885 284.452C503.613 284.923 502.842 286.2 503.028 287.526C503.214 288.853 504.307 289.875 505.662 289.989C507.016 290.104 508.271 289.279 508.683 288.003C509.762 288.207 510.881 288.044 511.854 287.539C512.127 288.173 512.797 288.549 513.49 288.457C514.183 288.365 514.728 287.828 514.822 287.146C514.915 286.463 514.534 285.803 513.89 285.534C514.226 284.905 514.415 284.211 514.443 283.501L514.448 283.501C515.305 283.501 516 282.816 516 281.972C516 281.127 515.305 280.443 514.448 280.443Z" fill="#E91E63"/>
<circle cx="523.5" cy="266.5" r="0.5" fill="#00838F"/>
<circle cx="525.5" cy="261.5" r="0.5" fill="#00838F"/>
<path fill-rule="evenodd" clip-rule="evenodd" d="M522.505 262.744C522.429 262.465 522.28 262.213 522.075 262.017C522.321 261.719 522.533 261.391 522.705 261.041C522.745 261.033 522.784 261.024 522.824 261.013C523.411 260.842 523.842 260.323 523.919 259.695C523.996 259.068 523.705 258.453 523.179 258.134C523.124 257.712 523.016 257.298 522.857 256.905C522.868 256.902 522.88 256.9 522.891 256.897C523.566 256.701 524.023 256.051 523.999 255.324C523.975 254.597 523.475 253.981 522.789 253.834C522.104 253.686 521.41 254.045 521.11 254.702C520.831 254.509 520.534 254.348 520.223 254.219C520.496 253.584 520.335 252.837 519.828 252.383C519.321 251.928 518.586 251.873 518.021 252.247C517.456 252.62 517.193 253.335 517.375 254.005L517.376 254.009C517.315 254.025 517.253 254.04 517.192 254.058C516.824 254.166 516.471 254.319 516.138 254.515C515.35 253.402 513.926 253.005 512.707 253.558C511.489 254.11 510.801 255.466 511.051 256.822C511.301 258.179 512.422 259.175 513.751 259.221C513.842 260.334 514.294 261.382 515.035 262.192C514.501 262.637 514.32 263.397 514.591 264.049C514.863 264.701 515.52 265.084 516.198 264.984C516.875 264.885 517.405 264.327 517.491 263.623C518.181 263.776 518.895 263.766 519.581 263.595L519.582 263.599C519.729 264.142 520.143 264.562 520.669 264.701C521.195 264.84 521.752 264.678 522.131 264.274C522.51 263.87 522.653 263.287 522.505 262.744Z" fill="#AD1457"/>
<path fill-rule="evenodd" clip-rule="evenodd" d="M204.897 444.844C210.907 453.128 223.381 454 223.381 454C223.381 454 226.112 441.44 220.103 433.156C214.093 424.872 201.619 424 201.619 424C201.619 424 198.888 436.559 204.897 444.844Z" fill="#AD1457"/>
<path fill-rule="evenodd" clip-rule="evenodd" d="M236.458 447.896C232.539 453.419 224.404 454 224.404 454C224.404 454 222.623 445.627 226.542 440.104C230.461 434.581 238.596 434 238.596 434C238.596 434 240.377 442.373 236.458 447.896Z" fill="#AD1457"/>
<circle cx="493.5" cy="255.5" r="0.5" fill="#00838F"/>
<circle cx="490.5" cy="255.5" r="0.5" fill="#00838F"/>
<path fill-rule="evenodd" clip-rule="evenodd" d="M491.503 257.497C491.315 257.703 491.188 257.958 491.136 258.233C490.763 258.175 490.385 258.162 490.01 258.194C489.982 258.164 489.954 258.135 489.924 258.107C489.476 257.695 488.826 257.593 488.274 257.847C487.722 258.1 487.375 258.66 487.392 259.27C487.076 259.531 486.796 259.834 486.56 260.169C486.551 260.161 486.544 260.152 486.535 260.144C486.02 259.671 485.25 259.612 484.67 260.003C484.091 260.393 483.852 261.131 484.093 261.789C484.334 262.447 484.991 262.854 485.685 262.775C485.674 263.11 485.699 263.445 485.758 263.774C485.096 263.866 484.573 264.382 484.47 265.044C484.366 265.707 484.708 266.359 485.31 266.649C485.911 266.939 486.632 266.799 487.082 266.304L487.085 266.3C487.13 266.345 487.175 266.389 487.222 266.432C487.503 266.69 487.814 266.913 488.148 267.095C487.657 268.331 488.083 269.744 489.174 270.498C490.266 271.252 491.732 271.147 492.706 270.244C493.679 269.342 493.901 267.882 493.239 266.73C494.098 266.086 494.714 265.168 494.984 264.126C495.627 264.354 496.342 264.121 496.73 263.558C497.119 262.996 497.085 262.242 496.647 261.717C496.209 261.192 495.477 261.026 494.857 261.311C494.618 260.647 494.235 260.045 493.734 259.549L493.738 259.546C494.103 259.145 494.227 258.579 494.064 258.061C493.901 257.543 493.474 257.152 492.946 257.035C492.417 256.919 491.867 257.095 491.503 257.497Z" fill="#F8BBD0"/>
<path opacity="0.502999" fill-rule="evenodd" clip-rule="evenodd" d="M234.441 470H210.559L208 449H237L234.441 470Z" fill="#E91E63"/>
<rect x="496" y="241" width="18" height="2" fill="#00838F"/>
<rect x="194" y="470" width="222" height="1" fill="#03ACF2"/>
<defs>
<filter id="filter0_d_13843_148191" x="93.6519" y="403.652" width="178" height="177.5" filterUnits="userSpaceOnUse" color-interpolation-filters="sRGB">
<feFlood flood-opacity="0" result="BackgroundImageFix"/>
<feColorMatrix in="SourceAlpha" type="matrix" values="0 0 0 0 0 0 0 0 0 0 0 0 0 0 0 0 0 0 127 0" result="hardAlpha"/>
<feMorphology radius="9" operator="dilate" in="SourceAlpha" result="effect1_dropShadow_13843_148191"/>
<feOffset dy="3"/>
<feGaussianBlur stdDeviation="24.5"/>
<feColorMatrix type="matrix" values="0 0 0 0 0 0 0 0 0 0 0 0 0 0 0 0 0 0 0.06 0"/>
<feBlend mode="normal" in2="BackgroundImageFix" result="effect1_dropShadow_13843_148191"/>
<feBlend mode="normal" in="SourceGraphic" in2="effect1_dropShadow_13843_148191" result="shape"/>
</filter>
<filter id="filter1_d_13843_148191" x="243.652" y="0.151855" width="207.5" height="207.5" filterUnits="userSpaceOnUse" color-interpolation-filters="sRGB">
<feFlood flood-opacity="0" result="BackgroundImageFix"/>
<feColorMatrix in="SourceAlpha" type="matrix" values="0 0 0 0 0 0 0 0 0 0 0 0 0 0 0 0 0 0 127 0" result="hardAlpha"/>
<feMorphology radius="9" operator="dilate" in="SourceAlpha" result="effect1_dropShadow_13843_148191"/>
<feOffset dy="3"/>
<feGaussianBlur stdDeviation="24.5"/>
<feColorMatrix type="matrix" values="0 0 0 0 0 0 0 0 0 0 0 0 0 0 0 0 0 0 0.06 0"/>
<feBlend mode="normal" in2="BackgroundImageFix" result="effect1_dropShadow_13843_148191"/>
<feBlend mode="normal" in="SourceGraphic" in2="effect1_dropShadow_13843_148191" result="shape"/>
</filter>
<filter id="filter2_d_13843_148191" x="37.1517" y="485.152" width="162" height="161.5" filterUnits="userSpaceOnUse" color-interpolation-filters="sRGB">
<feFlood flood-opacity="0" result="BackgroundImageFix"/>
<feColorMatrix in="SourceAlpha" type="matrix" values="0 0 0 0 0 0 0 0 0 0 0 0 0 0 0 0 0 0 127 0" result="hardAlpha"/>
<feMorphology radius="9" operator="dilate" in="SourceAlpha" result="effect1_dropShadow_13843_148191"/>
<feOffset dy="3"/>
<feGaussianBlur stdDeviation="24.5"/>
<feColorMatrix type="matrix" values="0 0 0 0 0 0 0 0 0 0 0 0 0 0 0 0 0 0 0.06 0"/>
<feBlend mode="normal" in2="BackgroundImageFix" result="effect1_dropShadow_13843_148191"/>
<feBlend mode="normal" in="SourceGraphic" in2="effect1_dropShadow_13843_148191" result="shape"/>
</filter>
<filter id="filter3_d_13843_148191" x="492.652" y="118.152" width="148" height="147.5" filterUnits="userSpaceOnUse" color-interpolation-filters="sRGB">
<feFlood flood-opacity="0" result="BackgroundImageFix"/>
<feColorMatrix in="SourceAlpha" type="matrix" values="0 0 0 0 0 0 0 0 0 0 0 0 0 0 0 0 0 0 127 0" result="hardAlpha"/>
<feMorphology radius="9" operator="dilate" in="SourceAlpha" result="effect1_dropShadow_13843_148191"/>
<feOffset dy="3"/>
<feGaussianBlur stdDeviation="24.5"/>
<feColorMatrix type="matrix" values="0 0 0 0 0 0 0 0 0 0 0 0 0 0 0 0 0 0 0.06 0"/>
<feBlend mode="normal" in2="BackgroundImageFix" result="effect1_dropShadow_13843_148191"/>
<feBlend mode="normal" in="SourceGraphic" in2="effect1_dropShadow_13843_148191" result="shape"/>
</filter>
<filter id="filter4_d_13843_148191" x="360.652" y="465.152" width="220" height="219.5" filterUnits="userSpaceOnUse" color-interpolation-filters="sRGB">
<feFlood flood-opacity="0" result="BackgroundImageFix"/>
<feColorMatrix in="SourceAlpha" type="matrix" values="0 0 0 0 0 0 0 0 0 0 0 0 0 0 0 0 0 0 127 0" result="hardAlpha"/>
<feMorphology radius="9" operator="dilate" in="SourceAlpha" result="effect1_dropShadow_13843_148191"/>
<feOffset dy="3"/>
<feGaussianBlur stdDeviation="24.5"/>
<feColorMatrix type="matrix" values="0 0 0 0 0 0 0 0 0 0 0 0 0 0 0 0 0 0 0.06 0"/>
<feBlend mode="normal" in2="BackgroundImageFix" result="effect1_dropShadow_13843_148191"/>
<feBlend mode="normal" in="SourceGraphic" in2="effect1_dropShadow_13843_148191" result="shape"/>
</filter>
<filter id="filter5_d_13843_148191" x="465.652" y="273.652" width="162" height="161.5" filterUnits="userSpaceOnUse" color-interpolation-filters="sRGB">
<feFlood flood-opacity="0" result="BackgroundImageFix"/>
<feColorMatrix in="SourceAlpha" type="matrix" values="0 0 0 0 0 0 0 0 0 0 0 0 0 0 0 0 0 0 127 0" result="hardAlpha"/>
<feMorphology radius="9" operator="dilate" in="SourceAlpha" result="effect1_dropShadow_13843_148191"/>
<feOffset dy="3"/>
<feGaussianBlur stdDeviation="24.5"/>
<feColorMatrix type="matrix" values="0 0 0 0 0 0 0 0 0 0 0 0 0 0 0 0 0 0 0.06 0"/>
<feBlend mode="normal" in2="BackgroundImageFix" result="effect1_dropShadow_13843_148191"/>
<feBlend mode="normal" in="SourceGraphic" in2="effect1_dropShadow_13843_148191" result="shape"/>
</filter>
<filter id="filter6_d_13843_148191" x="0.151733" y="126.152" width="220" height="219.5" filterUnits="userSpaceOnUse" color-interpolation-filters="sRGB">
<feFlood flood-opacity="0" result="BackgroundImageFix"/>
<feColorMatrix in="SourceAlpha" type="matrix" values="0 0 0 0 0 0 0 0 0 0 0 0 0 0 0 0 0 0 127 0" result="hardAlpha"/>
<feMorphology radius="9" operator="dilate" in="SourceAlpha" result="effect1_dropShadow_13843_148191"/>
<feOffset dy="3"/>
<feGaussianBlur stdDeviation="24.5"/>
<feColorMatrix type="matrix" values="0 0 0 0 0 0 0 0 0 0 0 0 0 0 0 0 0 0 0.06 0"/>
<feBlend mode="normal" in2="BackgroundImageFix" result="effect1_dropShadow_13843_148191"/>
<feBlend mode="normal" in="SourceGraphic" in2="effect1_dropShadow_13843_148191" result="shape"/>
</filter>
<linearGradient id="paint0_linear_13843_148191" x1="118.491" y1="363.706" x2="293.92" y2="594.867" gradientUnits="userSpaceOnUse">
<stop stop-color="#C8E6C9"/>
<stop offset="1" stop-color="#B3E5FC"/>
</linearGradient>
</defs>
</svg>
