<svg width="130" height="78" viewBox="0 0 130 78" fill="none" xmlns="http://www.w3.org/2000/svg">
<ellipse cx="55.499" cy="73.9998" rx="19.5" ry="3" fill="#B2EBF2"/>
<path fill-rule="evenodd" clip-rule="evenodd" d="M57.5776 71.0693C57.5776 70.9421 55.5305 70.4342 55.5305 71.0693C55.5305 71.7044 55.6587 72.5934 55.1466 72.9746C54.5068 73.4825 52.3316 74.6259 51.3079 74.7527C51.3079 74.8799 51.436 75.0066 51.5637 75.1338C52.3316 75.3878 53.0991 75.261 53.867 75.1338C54.7626 75.0066 55.6582 75.0066 56.5538 75.0066C56.9378 75.0066 57.4494 75.0066 57.5776 74.6255C57.7057 74.3715 57.7057 73.9904 57.5776 73.7364C57.5776 72.8474 57.7057 71.9583 57.5776 71.0693V71.0693Z" fill="#FFD8D8"/>
<path fill-rule="evenodd" clip-rule="evenodd" d="M57.5775 71.0691C57.5775 71.0691 57.0659 70.8152 56.5538 70.8152C56.5538 70.8152 56.6819 70.9424 56.6819 71.0691C57.4499 72.9744 55.7863 74.4985 54.1228 75.2604C55.0184 75.1332 55.7863 75.1332 56.6819 75.1332C57.0659 75.1332 57.5775 75.1332 57.7057 74.752C57.8338 74.4981 57.8338 74.1169 57.7057 73.863C57.5775 72.8472 57.7057 71.9582 57.5775 71.0691V71.0691Z" fill="#FFD8D8"/>
<path fill-rule="evenodd" clip-rule="evenodd" d="M57.7057 73.3556C57.4499 73.2284 55.7863 74.3718 53.9951 74.3718C53.9951 74.1179 53.7393 73.7367 53.4835 73.8639C52.7155 74.1179 51.3083 74.6263 51.0525 74.753C50.5408 75.0069 50.7966 75.7692 51.0525 75.7692C51.3083 75.7692 52.9718 75.7692 53.8674 75.7692C54.3791 75.7692 55.2747 75.2614 56.1708 75.2614C57.1945 75.2614 57.4503 75.2614 57.578 75.1341C58.4731 74.8797 58.0892 73.7363 57.7057 73.3556Z" fill="#357A38"/>
<path fill-rule="evenodd" clip-rule="evenodd" d="M56.1704 74.7526C55.5306 74.7526 53.4836 75.0065 53.0996 75.1337C52.588 75.2609 52.0758 75.2609 51.5642 75.1337C51.3084 75.0065 51.0526 75.0065 50.9244 74.8798C50.6686 75.1337 50.7963 75.896 51.0526 75.896L53.867 75.8956C54.3787 75.8956 55.2743 75.3877 56.1704 75.3877C57.1941 75.3877 57.4499 75.3877 57.5776 75.2605C58.3455 74.8793 58.2174 74.2442 57.9616 73.7363C57.5776 74.3714 56.9378 74.7526 56.1704 74.7526V74.7526Z" fill="#357A38"/>
<path fill-rule="evenodd" clip-rule="evenodd" d="M54.7625 57.0981C55.0183 59.2573 54.7625 71.9583 54.7625 71.9583C55.914 72.4662 57.8333 72.3395 57.8333 72.3395C57.8333 72.3395 59.1129 61.7977 59.2405 59.5113C59.3687 57.352 58.7289 56.2091 59.4964 52.5257C60.2643 48.8423 61.6715 40.2054 61.6715 40.2054L55.146 39.8242C55.2746 39.8247 54.5067 53.9226 54.7625 57.0981V57.0981Z" fill="#4CAF50"/>
<path fill-rule="evenodd" clip-rule="evenodd" d="M54.8906 50.4936C55.0188 50.3664 55.1464 50.3664 55.2746 50.3664C56.426 49.8585 57.5779 50.7476 57.7056 51.7633C58.2172 54.6844 57.5774 55.9546 57.1939 57.8599C57.0658 58.8761 56.6823 61.5433 56.5542 62.5595C56.1702 65.3538 56.81 69.4184 56.0425 72.4666C56.8105 72.5938 57.9619 72.4666 57.9619 72.4666C57.9619 72.4666 59.2414 61.9249 59.3691 59.6384C59.4973 57.4792 58.8575 56.3362 59.6249 52.6528C60.3929 48.9695 61.8001 40.3325 61.8001 40.3325L55.2746 39.9514C55.2746 39.8247 55.0183 46.937 54.8906 50.4936H54.8906Z" fill="#4CAF50"/>
<path fill-rule="evenodd" clip-rule="evenodd" d="M61.5439 18.9945C60.6483 18.2322 59.2406 18.4866 58.6013 19.3756C56.2979 22.5511 54.6349 25.8534 53.8669 26.8691L55.914 28.5205C58.0892 26.9963 60.6483 23.9481 62.0555 21.7888C62.6953 21.0265 62.4395 19.7563 61.5439 18.9945Z" fill="#C8E6C9"/>
<path fill-rule="evenodd" clip-rule="evenodd" d="M54.5068 26.4881C51.82 27.3771 48.8769 28.5201 47.3415 28.5201C46.9575 28.5201 46.7017 28.6473 46.3177 28.3929C45.6779 27.885 44.9105 27.6306 44.2707 27.6306C43.6309 27.6306 44.2707 28.2657 43.5028 28.2657C42.9911 28.2657 41.5834 28.2657 41.5834 28.5196C41.4553 28.9008 41.9674 28.9008 42.479 28.9008C42.3509 29.1547 42.479 29.4087 42.863 29.4087C42.863 29.6626 43.1188 29.9166 43.3746 29.9166C43.3746 30.2977 43.6304 30.4244 44.2702 30.4244C44.7819 30.2972 45.8056 30.4244 47.341 30.1705C49.388 29.9166 55.2738 29.6626 56.2975 28.1385C56.5538 27.6315 55.5305 26.2341 54.5068 26.4881V26.4881Z" fill="#FFD8D8"/>
<path fill-rule="evenodd" clip-rule="evenodd" d="M54.7626 25.9802C52.0758 26.8692 48.8769 28.2666 47.3415 28.2666C47.2134 28.2666 47.2134 28.2666 47.0857 28.2666C47.2138 28.7745 47.4697 30.0447 47.3415 30.6798C49.3885 30.4259 55.2743 29.7908 56.298 28.2666C56.682 27.6315 55.6583 25.7262 54.7626 25.9802Z" fill="#C8E6C9"/>
<path fill-rule="evenodd" clip-rule="evenodd" d="M58.6014 23.9481C57.45 25.4722 56.5544 26.6152 54.635 27.3775C52.3317 28.3937 50.0289 29.6639 47.342 29.7907C47.342 30.1718 47.342 30.4258 47.342 30.6797C55.403 30.0446 56.1704 28.3933 56.2986 28.2665C58.4737 26.6152 60.5208 23.8213 61.9285 21.916C62.3125 21.4082 62.5683 20.7731 62.1843 20.0107C61.544 21.6616 59.881 22.2967 58.6014 23.9481Z" fill="#C8E6C9"/>
<path fill-rule="evenodd" clip-rule="evenodd" d="M42.7354 27.1233C42.7354 27.5044 43.1193 27.7584 43.631 27.7584C43.8868 28.0123 44.3989 28.1395 44.6547 28.2663L45.5503 28.0123L44.0149 27.3772C43.7591 27.3772 43.5033 27.3772 42.7354 27.1233H42.7354Z" fill="#FFD8D8"/>
<path fill-rule="evenodd" clip-rule="evenodd" d="M43.8871 28.5207L39.5368 29.4097C37.6174 29.7909 36.2102 31.315 35.8262 33.2203L32.7554 52.6529L27.6376 55.574C27.3818 55.7012 27.2537 56.0819 27.3818 56.3363C27.51 56.5903 27.6376 56.5903 27.8934 56.5903C28.0216 56.5903 28.1493 56.5903 28.1493 56.463L33.7792 53.2875L36.9781 33.3466C37.234 31.9496 38.2577 30.8062 39.6649 30.5522L44.0153 29.6632C44.3993 29.6632 44.5269 29.282 44.5269 29.0281C44.5269 28.6474 44.143 28.3935 43.8871 28.5207V28.5207Z" fill="#01579B"/>
<path fill-rule="evenodd" clip-rule="evenodd" d="M43.2473 28.5205C42.7357 28.5205 42.6075 28.5205 41.9677 28.5205C41.7119 28.5205 41.5838 28.6477 41.7119 28.7744C41.7119 28.9017 41.8401 29.0284 42.0959 29.0284C42.6075 29.0284 42.9915 28.9012 43.3754 28.9012C43.6313 28.7744 43.7589 28.5205 43.2473 28.5205V28.5205Z" fill="#FFD8D8"/>
<path fill-rule="evenodd" clip-rule="evenodd" d="M44.2707 28.7744C43.759 28.7744 43.2469 28.9016 42.6071 28.9016C42.3513 28.9016 42.3513 29.0288 42.3513 29.1556C42.3513 29.2828 42.4795 29.4095 42.7353 29.2828C43.2469 29.2828 43.8867 29.1556 44.2707 29.0288C44.7828 29.0284 44.7828 28.7744 44.2707 28.7744Z" fill="#FFD8D8"/>
<path fill-rule="evenodd" clip-rule="evenodd" d="M44.5269 29.2824C44.0153 29.2824 43.6313 29.4096 43.1197 29.5364C42.8639 29.5364 42.8639 29.6636 42.9915 29.7903C42.9915 29.9175 43.1197 30.0443 43.3755 29.9175C43.7595 29.7903 44.3992 29.6636 44.7827 29.5364C44.9104 29.5364 45.0386 29.1557 44.5269 29.2824V29.2824Z" fill="#FFD8D8"/>
<path fill-rule="evenodd" clip-rule="evenodd" d="M44.7828 29.7908C44.2712 29.7908 44.0149 29.918 43.5032 29.918C43.2474 29.918 43.2474 30.0452 43.3751 30.1719C43.3751 30.2991 43.5032 30.4259 43.7591 30.2991C44.143 30.1719 44.527 30.1719 44.9105 30.0452C45.2944 30.0447 45.2944 29.7908 44.7828 29.7908V29.7908Z" fill="#FFD8D8"/>
<path fill-rule="evenodd" clip-rule="evenodd" d="M48.621 29.1558L44.2707 30.0448C42.3513 30.426 40.9441 31.9501 40.5601 33.8554L37.4893 53.288L32.3715 56.2091C32.1157 56.3363 31.9876 56.717 32.1157 56.9714C32.2439 57.2253 32.3715 57.2253 32.6273 57.2253C32.7555 57.2253 32.8832 57.2253 32.8832 57.0981L38.5131 53.9226L41.712 33.9816C41.9678 32.5847 42.9916 31.4413 44.3988 31.1873L48.7492 30.2983C49.1331 30.2983 49.2608 29.9171 49.2608 29.6632C49.2608 29.4097 49.005 29.1558 48.621 29.1558V29.1558Z" fill="#01579B"/>
<path fill-rule="evenodd" clip-rule="evenodd" d="M66.0224 71.0693C66.0224 70.9421 63.9754 70.4342 63.9754 71.0693C63.9754 71.7044 64.1035 72.5934 63.5914 72.9746C62.9516 73.4825 60.7764 74.6259 59.7527 74.7527C59.7527 74.8799 59.8808 75.0066 60.0085 75.1338C60.7764 75.3878 61.5439 75.261 62.3118 75.1338C63.2074 75.0066 64.103 75.0066 64.9986 75.0066C65.3826 75.0066 65.8942 75.0066 66.15 74.6255C66.2782 74.3715 66.2782 73.9904 66.15 73.7364C66.0224 72.8474 66.15 71.9583 66.0224 71.0693Z" fill="#FFD8D8"/>
<path fill-rule="evenodd" clip-rule="evenodd" d="M66.0224 71.0691C66.0224 71.0691 65.5107 70.8152 64.9986 70.8152C64.9986 70.8152 65.1268 70.9424 65.1268 71.0691C65.8947 72.9744 64.2312 74.4985 62.5676 75.2604C63.4632 75.1332 64.2312 75.1332 65.1268 75.1332C65.5107 75.1332 66.0224 75.1332 66.2782 74.752C66.4063 74.4981 66.4063 74.1169 66.2782 73.863C66.0224 72.8472 66.15 71.9582 66.0224 71.0691V71.0691Z" fill="#FFD8D8"/>
<path fill-rule="evenodd" clip-rule="evenodd" d="M66.15 73.3556C65.8942 73.2284 64.2306 74.3718 62.4394 74.3718C62.4394 74.1179 62.1836 73.7367 61.9278 73.8639C61.1599 74.1179 59.7526 74.6263 59.4968 74.753C58.9852 75.0069 59.241 75.7692 59.4968 75.7692C59.7526 75.7692 61.4162 75.7692 62.3118 75.7692C62.8234 75.7692 63.719 75.2614 64.6151 75.2614C65.6388 75.2614 65.8947 75.2614 66.0223 75.1341C66.9179 74.8797 66.534 73.7363 66.15 73.3556Z" fill="#357A38"/>
<path fill-rule="evenodd" clip-rule="evenodd" d="M64.6147 74.7526C63.9749 74.7526 61.9279 75.0065 61.5439 75.1337C61.0323 75.2609 60.5202 75.2609 60.0085 75.1337C59.7527 75.0065 59.4969 75.0065 59.3687 74.8798C59.1129 75.1337 59.2406 75.896 59.4969 75.896L62.3119 75.8956C62.8235 75.8956 63.7191 75.3877 64.6152 75.3877C65.6389 75.3877 65.8948 75.3877 66.0224 75.2605C66.7904 74.8793 66.6622 74.2442 66.4064 73.7363C66.0224 74.3714 65.3826 74.7526 64.6147 74.7526Z" fill="#357A38"/>
<path fill-rule="evenodd" clip-rule="evenodd" d="M64.9986 12.2629C65.1267 12.1357 65.1267 12.0089 64.9986 11.8817C64.8704 11.7545 64.7428 11.8817 64.6146 11.8817C63.9748 12.0089 63.335 12.2629 62.8234 12.5168C61.7996 12.898 60.3924 13.5331 61.0322 14.5489C61.672 15.6918 60.904 18.2322 60.904 18.2322C60.904 18.2322 65.1262 17.5971 65.1262 17.4699C64.7428 16.2002 64.4869 13.1519 64.9986 12.2629V12.2629Z" fill="#FFD8D8"/>
<path fill-rule="evenodd" clip-rule="evenodd" d="M64.9987 12.2629C65.1269 12.1357 65.1269 12.0089 64.9987 11.8817C64.8706 11.7545 64.7429 11.8817 64.6148 11.8817C64.1031 12.0089 62.8236 12.644 62.3114 12.898C62.6954 14.1682 62.3114 17.0893 61.7998 17.9783C63.0794 17.7243 65.1264 17.4704 65.1264 17.4704C64.7429 16.2002 64.4871 13.1519 64.9987 12.2629V12.2629Z" fill="#FFD8D8"/>
<path fill-rule="evenodd" clip-rule="evenodd" d="M66.5341 39.5703L60.0085 40.2054C60.0085 40.2054 60.7765 54.3038 61.5439 57.4788C62.0556 59.638 63.3351 72.2123 63.3351 72.2123C64.4866 72.5935 66.5341 72.2123 66.5341 72.2123C66.5341 72.2123 66.6622 61.4161 66.4059 59.2569C66.1501 57.0977 65.3822 56.0814 65.638 52.2713C65.8943 48.4612 66.5341 39.5703 66.5341 39.5703V39.5703Z" fill="#4CAF50"/>
<path fill-rule="evenodd" clip-rule="evenodd" d="M66.5341 39.5703L60.0085 40.2054C60.0085 40.2054 60.2644 47.3182 60.6483 50.7472C60.7765 50.62 60.9041 50.62 61.0323 50.4932C62.1837 49.8581 63.3356 50.4932 63.7191 51.5095C64.6147 54.3038 64.1031 55.7007 64.1031 57.606C64.1031 58.6223 64.1031 61.4166 64.1031 62.3056C64.1031 65.2267 64.9987 69.0373 64.6147 72.2128C65.3826 72.2128 66.4059 72.0856 66.4059 72.0856C66.4059 72.0856 66.5341 61.2894 66.2778 59.1302C66.0219 56.9709 65.254 55.9547 65.5098 52.1446C65.8943 48.4612 66.5341 39.5703 66.5341 39.5703V39.5703Z" fill="#4CAF50"/>
<path fill-rule="evenodd" clip-rule="evenodd" d="M60.5206 6.67424C60.2648 7.43656 59.3692 8.70626 58.6012 9.21463C58.3454 9.34184 58.0896 9.59578 58.4731 10.2309C58.857 11.1199 58.857 14.1682 59.4968 14.5493C60.0085 14.8033 62.1837 14.4221 62.6958 14.2954C64.103 13.6603 64.9991 12.3901 65.3826 10.9932C65.7666 9.8502 65.7666 8.58002 65.2544 7.56377C64.2307 5.53125 61.288 4.76943 60.5206 6.67424Z" fill="#FFD8D8"/>
<path fill-rule="evenodd" clip-rule="evenodd" d="M63.9368 5.94775C64.3208 6.32892 64.7047 6.83681 64.8324 7.34468C65.4722 8.99603 65.0882 10.6469 63.9368 12.0443C63.0412 13.0606 61.7616 14.2036 60.482 14.4575C60.2262 14.5847 59.9704 14.5847 59.5864 14.5847C60.2262 14.8386 62.1456 14.4575 62.6572 14.2036C64.0645 13.5685 64.9605 12.2982 65.344 10.9013C65.728 9.75835 65.728 8.48814 65.2159 7.47189C65.0882 6.83728 64.5766 6.32892 63.9368 5.94775Z" fill="#FFD8D8"/>
<path fill-rule="evenodd" clip-rule="evenodd" d="M64.7428 16.7082C63.4632 17.0894 62.056 17.0894 60.5206 17.8512C58.9852 18.7402 55.7863 21.9157 56.0426 22.9315C57.194 26.3609 56.4265 27.6311 56.4265 28.393C56.4265 30.6794 52.8441 51.8901 52.2043 54.8112C54.1237 55.4463 66.9185 56.3353 68.582 55.3191C68.4539 54.5568 67.3024 25.4714 67.3024 25.0903C67.4296 19.7565 66.0224 16.3275 64.7428 16.7082V16.7082Z" fill="#C8E6C9"/>
<path fill-rule="evenodd" clip-rule="evenodd" d="M62.9517 4.76951C62.0561 4.89672 61.2882 5.65855 60.9047 6.29365C60.3931 7.18269 60.9047 8.96076 61.1605 9.21471C61.5445 9.46865 61.8003 8.57961 62.312 9.0875C62.6959 9.46865 62.312 10.8656 61.544 11.2467C61.2882 11.3739 61.0324 11.5007 61.16 12.009C62.1838 14.4222 64.6148 14.5494 64.7425 14.5494C65.7662 14.1683 68.3249 12.009 68.453 9.59586C68.5812 7.18268 67.5579 3.88047 62.9517 4.76951V4.76951Z" fill="#FF6F00"/>
<path fill-rule="evenodd" clip-rule="evenodd" d="M67.6855 6.67428C66.2782 5.78524 63.0793 5.53129 62.8235 8.07121C62.4395 12.5164 63.5914 14.5489 64.487 14.5489C65.255 14.5489 66.6622 13.2787 67.302 12.3897C69.2209 10.1037 68.5811 7.18264 67.6855 6.67428V6.67428Z" fill="#FF6F00"/>
<ellipse cx="68.3253" cy="11.6278" rx="2.55866" ry="2.5399" fill="#FF6F00"/>
<path fill-rule="evenodd" clip-rule="evenodd" d="M68.3252 9.0874V9.0874C66.7898 9.0874 65.6384 10.2304 65.6384 11.6278C65.6384 13.0252 66.7898 14.1682 68.1976 14.1682C69.0932 14.1682 69.9888 13.6603 70.3727 12.898C69.9888 13.4059 69.4771 13.6603 68.7092 13.6603C65.8942 13.787 65.7661 9.46855 68.3252 9.0874V9.0874Z" fill="#FF6F00"/>
<path fill-rule="evenodd" clip-rule="evenodd" d="M63.5914 18.9947C62.5676 18.3596 61.288 18.6136 60.6487 19.6298C58.6017 22.932 57.194 26.4887 56.5542 27.5044L58.7294 29.0286C60.7764 27.2505 62.9516 23.9483 64.2312 21.789C64.8705 20.7728 64.487 19.5026 63.5914 18.9947V18.9947Z" fill="#C8E6C9"/>
<path fill-rule="evenodd" clip-rule="evenodd" d="M57.1937 26.9965C54.6345 28.1395 51.8196 29.5369 50.2842 29.6636C49.9002 29.6636 49.6444 29.7908 49.2604 29.6636C48.6206 29.1557 47.8532 29.0285 47.0852 29.1557C46.4455 29.1557 47.2134 29.6636 46.3173 29.918C45.8057 30.0452 44.3979 30.1719 44.3979 30.2992C44.3979 30.6803 44.7819 30.6803 45.2936 30.5531C45.1654 30.8071 45.4217 31.061 45.6775 31.061C45.6775 31.3149 45.9333 31.5689 46.1892 31.5689C46.1892 31.95 46.5731 32.0768 47.0848 31.95C47.5964 31.8228 48.6202 31.8228 50.1555 31.4422C52.2026 31.061 58.0883 30.2992 58.8562 28.6478C59.2412 28.0122 58.0893 26.6153 57.1937 26.9965V26.9965Z" fill="#FFD8D8"/>
<path fill-rule="evenodd" clip-rule="evenodd" d="M57.4499 26.4882C54.8908 27.6312 51.82 29.2825 50.2846 29.4092C50.1565 29.4092 50.1565 29.4092 50.0288 29.4092C50.2846 29.9171 50.5404 31.1873 50.5404 31.6957C52.5875 31.3145 58.3455 30.1716 59.2411 28.5202C59.497 27.8856 58.2174 26.1075 57.4499 26.4882V26.4882Z" fill="#C8E6C9"/>
<path fill-rule="evenodd" clip-rule="evenodd" d="M63.335 21.2805C62.9511 21.9156 61.6715 22.8047 61.288 23.567C60.2642 25.0911 59.241 26.8692 57.5774 27.7582C55.4022 28.9012 53.0994 30.5526 50.4121 30.9337C50.4121 31.3149 50.5403 31.5688 50.4121 31.8228C58.9847 30.1714 58.7288 28.9017 59.1128 28.6473C61.1598 26.9959 63.0792 23.8209 64.2306 21.7884C64.4864 21.4072 64.6146 20.1371 64.3588 19.502C64.2306 19.1218 63.8471 20.6459 63.335 21.2805Z" fill="#C8E6C9"/>
<path fill-rule="evenodd" clip-rule="evenodd" d="M45.5503 28.6472C45.6784 29.0284 46.0619 29.2823 46.574 29.1551C46.958 29.409 47.342 29.5363 47.5978 29.5363L48.3657 29.1551L46.8303 28.6472C46.574 28.7744 46.3182 28.7744 45.5503 28.6472H45.5503Z" fill="#FFD8D8"/>
<path fill-rule="evenodd" clip-rule="evenodd" d="M46.0625 29.9175C45.5508 29.9175 45.4227 30.0447 44.7829 30.0447C44.5271 30.0447 44.3989 30.1719 44.5271 30.2986C44.5271 30.4259 44.6552 30.5526 44.9111 30.4259C45.4227 30.2986 45.679 30.2986 46.1906 30.1719C46.5741 30.1714 46.5741 29.9175 46.0625 29.9175V29.9175Z" fill="#FFD8D8"/>
<path fill-rule="evenodd" clip-rule="evenodd" d="M47.2139 30.1714C46.7023 30.2986 46.1901 30.4253 45.5503 30.5525C45.2945 30.5525 45.2945 30.6797 45.4222 30.8065C45.4222 30.9337 45.5503 31.0604 45.8062 30.9337C46.3178 30.8065 46.8299 30.6797 47.3416 30.5525C47.7255 30.2986 47.7255 30.0446 47.2139 30.1714Z" fill="#FFD8D8"/>
<path fill-rule="evenodd" clip-rule="evenodd" d="M47.4696 30.6797C46.958 30.8069 46.574 30.9337 46.0624 31.0609C45.8065 31.0609 45.9342 31.1881 45.9342 31.3148C45.9342 31.442 46.0624 31.5688 46.3182 31.442C46.7021 31.3148 47.3419 31.1881 47.7254 30.9342C47.9812 30.8065 47.9812 30.5525 47.4696 30.6797V30.6797Z" fill="#FFD8D8"/>
<path fill-rule="evenodd" clip-rule="evenodd" d="M47.8536 31.1877C47.342 31.315 47.0857 31.315 46.574 31.4417C46.3182 31.4417 46.3182 31.5689 46.4459 31.6956C46.4459 31.8229 46.574 31.9496 46.8299 31.8229C47.2138 31.6956 47.5978 31.5689 47.9813 31.4417C48.2376 31.315 48.2376 31.0605 47.8536 31.1877Z" fill="#FFD8D8"/>
<path fill-rule="evenodd" clip-rule="evenodd" d="M55.7864 75.769H57.5776L58.0892 74.626L55.914 75.2611C56.0422 75.515 55.7864 75.769 55.7864 75.769Z" fill="#357A38"/>
<path fill-rule="evenodd" clip-rule="evenodd" d="M64.3589 75.769H66.1501L66.6617 74.626L64.4866 75.2611C64.487 75.515 64.3589 75.769 64.3589 75.769Z" fill="#357A38"/>
<path fill-rule="evenodd" clip-rule="evenodd" d="M61.928 5.1501C64.1032 9.08742 68.9651 8.45232 68.9651 8.45232L71.9078 4.38779L62.9513 0.196533L61.928 5.1501Z" fill="#4CAF50"/>
<path fill-rule="evenodd" clip-rule="evenodd" d="M67.8136 1.34005C65.3826 0.197077 63.2074 -0.311298 62.9516 0.197077C62.6958 0.704951 64.487 2.10236 66.918 3.37255C69.349 4.51554 71.5241 5.0239 71.78 4.51554C72.0358 3.88044 70.2446 2.48304 67.8136 1.34005V1.34005Z" fill="#357A38"/>
<path fill-rule="evenodd" clip-rule="evenodd" d="M64.7428 16.7082C64.2312 16.8354 63.8472 19.6292 63.8472 20.8994C63.719 22.4236 62.1837 24.8368 63.5914 28.0122C64.9986 31.0605 63.3356 33.7276 63.5914 35.6329C64.103 40.8404 61.8002 44.2699 61.8002 49.9853C61.8002 51.8906 61.0322 53.6686 61.0322 55.8279C63.3356 55.9551 67.5578 56.0818 68.8373 55.5739C68.7092 54.8116 67.5578 25.7263 67.5578 25.3451C67.4296 19.7565 66.0224 16.3275 64.7428 16.7082V16.7082Z" fill="#C8E6C9"/>
<path fill-rule="evenodd" clip-rule="evenodd" d="M19.3209 53.7959C13.3075 53.7959 8.44507 58.6223 8.44507 64.5921C8.44507 70.5614 13.3071 75.3882 19.3209 75.3882C25.3348 75.3882 30.1968 70.5619 30.1968 64.5921C30.0687 58.6223 25.2067 53.7959 19.3209 53.7959ZM19.3209 74.1176C13.9468 74.1176 9.72463 69.7991 9.72463 64.5916C9.72463 59.2569 14.075 55.0656 19.3209 55.0656C24.5669 55.0656 28.9173 59.3841 28.9173 64.5916C28.9168 69.7991 24.5669 74.1176 19.3209 74.1176Z" fill="#B2EBF2"/>
<rect x="19.1931" y="54.3037" width="0.255812" height="20.9568" fill="#B2EBF2"/>
<rect x="8.70093" y="64.5918" width="21.1115" height="0.253937" fill="#B2EBF2"/>
<path fill-rule="evenodd" clip-rule="evenodd" d="M11.8888 72.2046L11.7079 72.0251L26.6359 57.2065L26.8168 57.3861L11.8888 72.2046Z" fill="#B2EBF2"/>
<path fill-rule="evenodd" clip-rule="evenodd" d="M26.7271 72.2046L11.7992 57.3861L11.9801 57.2065L26.908 72.0251L26.7271 72.2046Z" fill="#B2EBF2"/>
<path fill-rule="evenodd" clip-rule="evenodd" d="M14.9709 74.2745L14.738 74.1693L23.4845 55.0944L23.7174 55.1996L14.9709 74.2745Z" fill="#B2EBF2"/>
<path fill-rule="evenodd" clip-rule="evenodd" d="M28.869 69.1062L9.63655 60.4616L9.74207 60.2303L28.9745 68.8749L28.869 69.1062Z" fill="#B2EBF2"/>
<path fill-rule="evenodd" clip-rule="evenodd" d="M9.43396 68.5387L9.34324 68.3013L29.0825 60.87L29.1732 61.1074L9.43396 68.5387Z" fill="#B2EBF2"/>
<path fill-rule="evenodd" clip-rule="evenodd" d="M22.8549 74.6559L15.4152 55.0445L15.6546 54.955L23.0943 74.5664L22.8549 74.6559Z" fill="#B2EBF2"/>
<path fill-rule="evenodd" clip-rule="evenodd" d="M19.3208 53.0334C12.9235 53.0334 7.80518 58.1137 7.80518 64.4647C7.80518 70.8152 12.923 75.896 19.3208 75.896C25.7182 75.896 30.8365 70.8157 30.8365 64.4647C30.836 58.241 25.5901 53.0334 19.3208 53.0334V53.0334ZM19.3208 74.7525C13.5633 74.7525 8.95708 70.1801 8.95708 64.4647C8.95708 58.7493 13.5633 54.1769 19.3208 54.1769C25.0784 54.1769 29.6846 58.7493 29.6846 64.4647C29.5565 70.1801 24.9503 74.7525 19.3208 74.7525Z" fill="#00BCD4"/>
<ellipse cx="19.3209" cy="64.4649" rx="2.17518" ry="2.15924" fill="#B2EBF2"/>
<ellipse cx="19.321" cy="64.4648" rx="1.53539" ry="1.52414" fill="#00838F"/>
<path fill-rule="evenodd" clip-rule="evenodd" d="M2.17578 70.6882C2.17578 70.8154 2.17578 71.0693 2.43159 71.0693L11.7721 73.8637L12.1561 72.4668L3.5835 69.9264C3.07138 69.7992 2.43159 70.0531 2.17578 70.6882V70.6882Z" fill="#4CAF50"/>
<path fill-rule="evenodd" clip-rule="evenodd" d="M12.7953 72.5934L4.99023 70.307C4.35046 70.1797 3.83882 70.4342 3.58301 71.0693C3.58301 71.1965 3.58301 71.4504 3.83882 71.4504L13.1793 74.2448L13.3075 73.6097C13.4351 73.2285 13.1793 72.7206 12.7953 72.5934Z" fill="#4CAF50"/>
<path opacity="0.699567" fill-rule="evenodd" clip-rule="evenodd" d="M27.6376 40.9676C25.8464 44.1431 25.8464 47.4453 25.3343 50.8747C25.2061 52.145 25.2061 54.5581 24.1828 55.1932C23.5431 55.5744 19.9606 54.9393 18.2971 56.0823C15.4821 58.2415 17.4015 60.9086 20.0883 61.5437C20.4723 61.6709 20.7281 61.6709 21.1121 61.7977C20.8562 60.1463 21.3679 58.3682 22.9033 57.6064C25.8459 56.4634 28.9167 57.9876 31.8598 57.8603C37.3616 57.6064 33.9068 50.3669 35.1864 46.6835C36.2101 43.7624 42.2236 44.2703 41.4561 41.3488C39.7926 35.125 30.4521 35.8873 27.6376 40.9676V40.9676Z" fill="#01579B"/>
<path opacity="0.699567" fill-rule="evenodd" clip-rule="evenodd" d="M41.4562 41.2217C41.2004 39.4436 38.7694 39.0625 38.0014 40.5866C36.9777 42.4919 35.9544 44.5239 35.3146 46.5559C33.9074 50.2393 37.4898 57.6061 31.988 57.7328C29.0454 57.9867 25.9746 56.3359 23.0315 57.4788C21.4961 58.1139 20.9845 59.892 21.2403 61.5434H32.4997C35.1865 61.5434 37.6175 59.7653 38.3854 57.2249C39.0252 55.1929 39.5368 52.2713 39.5368 48.2073C39.281 46.302 41.712 43.3809 41.4562 41.2217V41.2217V41.2217Z" fill="#01579B"/>
<path fill-rule="evenodd" clip-rule="evenodd" d="M5.88597 65.735C5.63014 66.2429 5.50199 67.1319 4.8622 67.5131C4.09428 67.8942 1.66328 68.2754 0.767681 68.1482C0.639531 68.2754 0.767681 68.4021 0.895831 68.5293C1.53561 69.0372 2.30306 69.1644 3.071 69.2916C3.9666 69.4189 4.8622 69.6728 5.75782 69.9267C6.14178 70.0539 6.65342 70.1807 6.90923 69.9267C7.16504 69.6728 7.16504 69.4189 7.16504 69.1644C7.29319 68.2754 7.67668 67.3863 7.80483 66.4973C7.93347 66.2429 6.14227 65.0999 5.88597 65.735V65.735Z" fill="#FFF3E0"/>
<path fill-rule="evenodd" clip-rule="evenodd" d="M7.03772 65.7351C7.03772 65.8623 7.03772 65.8623 7.03772 65.989C7.16587 68.1483 5.11837 69.0373 3.32715 69.2913C4.09509 69.4185 4.99069 69.6724 5.75814 69.9264C6.14212 70.0536 6.65374 70.1803 6.90957 69.9264C7.16538 69.6724 7.16538 69.4185 7.16538 69.164C7.29353 68.275 7.67702 67.386 7.80517 66.4969C7.93332 66.243 7.42121 65.989 7.03772 65.7351V65.7351Z" fill="#FFF3E0"/>
<path fill-rule="evenodd" clip-rule="evenodd" d="M3.45494 68.4022C3.58309 68.1483 3.45494 67.7671 3.07096 67.7671C2.17536 67.7671 0.639966 67.8943 0.511815 67.8943C0.000175595 67.8943 -0.127975 68.7833 0.127853 68.9106C0.383665 69.0378 1.91906 69.5457 2.81466 69.7996C3.3263 69.9268 4.35005 69.7996 5.11799 70.0535C6.01359 70.3075 6.39755 70.4347 6.52523 70.4347C7.54898 70.3075 7.54898 69.1645 7.16501 68.6566C7.16549 68.275 5.24663 69.0373 3.45494 68.4022V68.4022Z" fill="#01579B"/>
<path fill-rule="evenodd" clip-rule="evenodd" d="M5.3742 69.4184C4.73441 69.2912 2.68739 68.9105 2.30342 68.9105C1.79178 68.9105 1.27966 68.7833 0.896174 68.4027C0.640362 68.2755 0.512212 68.1487 0.38455 67.8948C0.000571907 68.1487 0.000571907 68.7838 0.2564 68.911L2.94321 69.8001C3.45485 69.9273 5.75816 70.6891 5.75816 70.6891C5.75816 70.6891 6.5261 70.5619 6.65376 70.5619C7.4217 70.4347 7.67753 69.5456 7.54938 69.0378C6.90959 69.4184 6.14214 69.5452 5.3742 69.4184Z" fill="#01579B"/>
<path fill-rule="evenodd" clip-rule="evenodd" d="M9.85272 52.5256C8.7013 55.066 5.11841 66.3701 5.11841 66.3701C5.88633 68.0214 8.31733 67.8942 8.31733 67.8942C8.31733 67.8942 13.6914 57.2253 14.4589 55.32C15.2263 53.7958 10.2362 51.7633 9.85272 52.5256Z" fill="#AD1457"/>
<path fill-rule="evenodd" clip-rule="evenodd" d="M24.9503 49.7312C21.3679 49.7312 10.492 50.3663 9.72455 52.7795C9.34059 54.0497 11.3881 55.0659 14.2026 55.5738C17.6573 56.2089 22.6475 55.4466 26.2299 55.955C33.1394 57.0979 32.7554 53.5418 32.7554 52.2716C32.8835 50.4935 28.6609 49.7312 24.9503 49.7312V49.7312Z" fill="#AD1457"/>
<path fill-rule="evenodd" clip-rule="evenodd" d="M9.46873 66.7508C9.2129 67.2587 9.08475 68.1477 8.44498 68.5289C7.67704 68.91 5.24605 69.2912 4.35044 69.164C4.22229 69.2912 4.35044 69.4179 4.4786 69.5451C5.11839 70.053 5.88584 70.1802 6.65376 70.3074C7.54938 70.4346 8.44498 70.6886 9.34058 70.9425C9.72454 71.0698 10.2362 71.1965 10.492 70.9425C10.7478 70.6886 10.7478 70.4346 10.7478 70.1802C10.876 69.2912 11.2594 68.4022 11.3876 67.5131C11.5157 67.3859 9.72454 66.1157 9.46873 66.7508V66.7508Z" fill="#FFF3E0"/>
<path fill-rule="evenodd" clip-rule="evenodd" d="M10.6202 66.8779C10.6202 67.0051 10.6202 67.0051 10.6202 67.1319C10.7484 69.2911 8.70087 70.1801 6.90967 70.4341C7.67761 70.5613 8.57321 70.8152 9.34066 71.0692C9.72462 71.1964 10.2363 71.3231 10.4921 71.0692C10.7479 70.8152 10.7479 70.5613 10.7479 70.3069C10.8761 69.4178 11.2595 68.5288 11.3877 67.6398C11.5158 67.3858 11.1319 67.1319 10.6202 66.8779V66.8779Z" fill="#FFF3E0"/>
<path fill-rule="evenodd" clip-rule="evenodd" d="M7.03793 69.545C7.16608 69.2911 7.03793 68.9099 6.65396 68.9099C5.75835 68.9099 4.22296 69.0371 4.09481 69.0371C3.58319 69.0371 3.45504 69.9262 3.71085 70.0534C3.96666 70.1806 5.50205 70.6885 6.39766 70.9424C6.9093 71.0696 7.93305 70.9424 8.70099 71.1963C9.59659 71.4503 9.98057 71.5775 10.1082 71.5775C11.132 71.4503 11.132 70.3073 10.748 69.7994C10.7485 69.4183 8.82914 70.1801 7.03793 69.545V69.545Z" fill="#01579B"/>
<path fill-rule="evenodd" clip-rule="evenodd" d="M9.08488 70.5613C8.44511 70.4341 6.39807 70.0534 6.01411 70.0534C5.50247 70.0534 4.99034 69.9262 4.60687 69.5455C4.35104 69.4183 4.22289 69.2916 4.09523 69.0376C3.71127 69.2916 3.71127 69.9266 3.96708 70.0538L6.65389 70.9429C7.16553 71.0701 9.46886 71.8319 9.46886 71.8319C9.46886 71.8319 10.2368 71.7047 10.3645 71.7047C11.1324 71.5775 11.3882 70.6885 11.2601 70.1806C10.4921 70.5613 9.85282 70.688 9.08488 70.5613Z" fill="#01579B"/>
<path fill-rule="evenodd" clip-rule="evenodd" d="M9.72466 52.7795C9.21302 55.5738 8.57324 67.8936 8.57324 67.8936C9.72466 69.2906 11.8998 69.1638 11.8998 69.1638C11.8998 69.1638 14.459 56.8435 14.7148 54.8115C15.0983 53.0334 9.98048 51.8905 9.72466 52.7795V52.7795Z" fill="#AD1457"/>
<path fill-rule="evenodd" clip-rule="evenodd" d="M24.6946 34.1087C22.6476 35.3789 21.8797 39.3162 21.8797 40.7131C21.8797 46.6824 20.4724 49.604 20.4724 49.604C24.3111 53.6685 33.1395 52.9062 33.2672 52.3983C33.2672 51.6365 35.6982 35.5061 29.045 33.4736C27.5096 32.9657 26.1023 33.0924 24.6946 34.1087Z" fill="#F8BBD0"/>
<path fill-rule="evenodd" clip-rule="evenodd" d="M28.1494 37.7921C28.9173 38.9351 28.1494 40.4592 27.2538 41.6027C26.8698 42.2378 25.8465 42.7457 25.5902 43.3808C25.3344 44.0159 25.846 44.9049 25.5902 45.6672C25.3344 46.4295 24.6946 47.0641 24.183 47.5725C23.9272 47.8264 23.6713 48.2076 23.415 48.5887C22.6471 49.8589 23.2869 51.637 24.8223 52.0182C28.661 53.1612 33.0109 52.6533 33.139 52.2721C33.2672 51.637 34.9302 40.079 31.2197 35.3794C30.0687 36.2679 28.2775 37.4114 28.1494 37.7921V37.7921Z" fill="#F8BBD0"/>
<path fill-rule="evenodd" clip-rule="evenodd" d="M25.8461 30.9338C25.8461 31.8228 25.3345 33.6009 25.3345 33.6009C25.3345 33.6009 27.2538 34.6171 28.9169 33.3469V29.7908C29.045 29.7908 25.9743 29.9175 25.8461 30.9338Z" fill="#FFF3E0"/>
<path fill-rule="evenodd" clip-rule="evenodd" d="M24.6945 24.7099C24.1829 24.8371 23.6707 25.091 23.4149 25.4722C22.7751 26.7424 22.3912 28.2665 22.647 29.6635C22.9028 31.8227 24.4382 33.2196 25.462 32.7117C28.5327 31.4415 28.7886 28.2665 28.6609 27.5042C28.5332 26.8691 28.0211 24.202 24.6945 24.7099V24.7099Z" fill="#FFF3E0"/>
<path fill-rule="evenodd" clip-rule="evenodd" d="M26.4857 23.9481C24.1824 23.6942 23.2868 25.2183 22.647 25.4722C24.4382 26.6152 26.9973 25.8534 26.9973 26.3613C26.8692 29.0284 27.7653 29.1556 27.8929 29.6635C28.1487 30.2986 28.7885 30.8065 29.0444 30.9337C30.7084 26.3613 29.173 24.202 26.4857 23.9481V23.9481Z" fill="#212121"/>
<path fill-rule="evenodd" clip-rule="evenodd" d="M27.5095 24.2021C27.1256 24.0749 26.7416 23.9481 26.3581 23.9481C24.5669 23.8209 23.6713 24.7104 23.0315 25.0911C23.0315 25.0911 25.3348 25.8534 27.3819 25.4723C28.1493 25.3451 28.1493 24.456 27.5095 24.2021Z" fill="#143549"/>
<path fill-rule="evenodd" clip-rule="evenodd" d="M27.6378 28.0122C26.7422 28.2662 25.9743 29.5363 27.1262 30.0442C27.5101 30.1714 27.8941 30.1714 28.2776 29.917C28.5334 29.7898 28.6616 29.5359 28.7892 29.1547C28.9174 28.7736 28.9174 28.3924 28.6611 28.1385C28.2776 27.8855 27.8936 28.0122 27.6378 28.0122Z" fill="#FFF3E0"/>
<path fill-rule="evenodd" clip-rule="evenodd" d="M27.2537 28.9012C27.2537 28.9012 27.5095 29.0284 27.6376 29.1551C27.7658 29.2823 27.8934 29.663 27.8934 29.663C27.8934 29.663 28.6614 29.0279 28.2774 28.6467C27.7653 28.2665 27.2537 28.9012 27.2537 28.9012Z" fill="#FFF3E0"/>
<path opacity="0.596354" fill-rule="evenodd" clip-rule="evenodd" d="M29.4289 53.7959C23.4155 53.7959 18.553 58.6223 18.553 64.5921C18.553 70.5614 23.415 75.3882 29.4289 75.3882C35.4423 75.3882 40.3047 70.5619 40.3047 64.5921C40.3043 58.6223 35.4423 53.7959 29.4289 53.7959ZM29.4289 74.1176C24.0548 74.1176 19.8326 69.7991 19.8326 64.5916C19.8326 59.2569 24.1829 55.0656 29.4289 55.0656C34.803 55.0656 39.0252 59.3841 39.0252 64.5916C39.1528 69.7991 34.8025 74.1176 29.4289 74.1176Z" fill="#B2EBF2"/>
<rect x="29.4287" y="54.3037" width="0.255812" height="20.9568" fill="#B2EBF2"/>
<rect x="18.937" y="64.5918" width="21.1115" height="0.253937" fill="#B2EBF2"/>
<path fill-rule="evenodd" clip-rule="evenodd" d="M22.0519 72.1756L21.871 71.996L36.799 57.1775L36.9798 57.3571L22.0519 72.1756Z" fill="#B2EBF2"/>
<path fill-rule="evenodd" clip-rule="evenodd" d="M36.8902 72.1756L21.9623 57.3571L22.1432 57.1775L37.0711 71.996L36.8902 72.1756Z" fill="#B2EBF2"/>
<path fill-rule="evenodd" clip-rule="evenodd" d="M25.1436 74.2598L24.911 74.1543L33.6828 55.092L33.9155 55.1975L25.1436 74.2598Z" fill="#B2EBF2"/>
<path fill-rule="evenodd" clip-rule="evenodd" d="M39.0631 69.116L19.8327 60.4713L19.9382 60.24L39.1686 68.8847L39.0631 69.116Z" fill="#B2EBF2"/>
<path fill-rule="evenodd" clip-rule="evenodd" d="M19.6395 68.4565L19.5495 68.2187L39.312 60.8462L39.4019 61.0839L19.6395 68.4565Z" fill="#B2EBF2"/>
<path fill-rule="evenodd" clip-rule="evenodd" d="M33.0343 74.6173L25.5946 55.006L25.834 54.9165L33.2737 74.5278L33.0343 74.6173Z" fill="#B2EBF2"/>
<path opacity="0.603376" fill-rule="evenodd" clip-rule="evenodd" d="M29.429 53.0334C23.0316 53.0334 17.9133 58.1137 17.9133 64.4647C17.9133 70.8152 23.0311 75.896 29.429 75.896C35.8269 75.896 40.9447 70.8157 40.9447 64.4647C40.9442 58.241 35.8264 53.0334 29.429 53.0334V53.0334ZM29.429 74.7525C23.6714 74.7525 19.0652 70.1801 19.0652 64.4647C19.0652 58.7493 23.6714 54.1769 29.429 54.1769C35.1866 54.1769 39.7928 58.7493 39.7928 64.4647C39.7928 70.1801 35.1866 74.7525 29.429 74.7525Z" fill="#00BCD4"/>
<ellipse cx="29.4288" cy="64.4649" rx="2.17518" ry="2.15924" fill="#B2EBF2"/>
<ellipse cx="29.4289" cy="64.4648" rx="1.53539" ry="1.52414" fill="#00838F"/>
<path opacity="0.699567" fill-rule="evenodd" clip-rule="evenodd" d="M23.7991 49.6046C23.7991 49.9857 24.1831 50.3669 24.567 50.3669L34.8026 50.3664V46.937H26.614C25.0787 46.8102 23.7991 48.0804 23.7991 49.6046Z" fill="#01579B"/>
<path opacity="0.699567" fill-rule="evenodd" clip-rule="evenodd" d="M34.9306 46.8103H28.1492C26.6138 46.8103 25.4624 48.0805 25.4624 49.4774C25.4624 49.8586 25.8464 50.2397 26.2303 50.2397L36.9776 50.2393V48.7151C36.8499 47.6993 35.9543 46.8103 34.9306 46.8103V46.8103Z" fill="#01579B"/>
<path fill-rule="evenodd" clip-rule="evenodd" d="M30.836 34.9978L27.1255 36.7759C27.1255 36.7759 31.0919 44.6505 31.9875 45.2856C32.8831 45.9207 35.3141 46.937 35.0582 45.2856C34.5466 40.5865 30.836 34.9978 30.836 34.9978V34.9978Z" fill="#F8BBD0"/>
<path fill-rule="evenodd" clip-rule="evenodd" d="M24.6946 45.4129C24.183 45.1589 23.5432 45.2857 23.0311 45.4129C22.7753 45.4129 22.1355 45.5401 22.0073 45.6668C21.8792 45.7941 21.8792 46.1747 22.2631 46.048C23.1587 45.7941 24.1825 46.8103 25.0781 46.6831C25.2062 46.6831 26.4853 46.3019 26.6135 46.3019C26.4853 46.048 26.2295 45.2857 26.2295 45.0317C26.23 45.0322 24.9504 45.5401 24.6946 45.4129V45.4129Z" fill="#FFF3E0"/>
<path fill-rule="evenodd" clip-rule="evenodd" d="M34.1628 44.2699C33.3948 44.1427 31.2202 44.2699 30.4522 44.2699C29.3008 44.3971 25.9742 44.905 25.9742 44.905C25.9742 44.905 25.846 45.6673 25.9742 46.8103C25.9742 46.8103 30.8362 46.9375 33.2672 46.6831C35.8263 46.3019 34.9307 44.3971 34.1628 44.2699Z" fill="#F8BBD0"/>
<path fill-rule="evenodd" clip-rule="evenodd" d="M22.2635 45.6667L21.112 46.3018C20.9839 46.3018 20.9839 46.429 20.9839 46.5558C20.9839 46.683 21.112 46.683 21.2397 46.683L22.2635 46.1751C22.3916 46.1751 22.5193 45.9212 22.5193 45.7939C22.5193 45.6667 22.3916 45.54 22.2635 45.6667V45.6667Z" fill="#FFF3E0"/>
<path fill-rule="evenodd" clip-rule="evenodd" d="M25.0786 45.4129C25.0786 45.4129 25.4626 45.9208 25.5903 46.6831C25.5903 46.6831 25.8461 46.6831 26.1019 46.5559C26.1019 46.5559 26.1019 45.7936 25.7179 45.1589C25.4626 45.2861 25.2068 45.2861 25.0786 45.4129Z" fill="#E91E63"/>
<ellipse cx="25.2381" cy="45.396" rx="0.5" ry="0.511473" transform="rotate(-102.398 25.2381 45.396)" fill="#00BCD4"/>
<path fill-rule="evenodd" clip-rule="evenodd" d="M94.1978 61.6872C87.965 57.3033 85.6986 53.5037 83.999 52.0422C87.304 63.8306 100.053 82.3407 105.624 77.08C109.591 73.2804 102.792 67.7274 94.1978 61.6872V61.6872Z" fill="#4CAF50"/>
<path fill-rule="evenodd" clip-rule="evenodd" d="M106.758 60.0054C106.758 57.4209 105.925 45.8387 102.869 38.8508C104.536 51.0075 99.9055 50.1461 99.9055 64.4087C99.9055 68.7161 102.498 75.8954 104.813 76.2782C107.035 76.5654 107.591 73.598 107.962 72.5449C109.165 69.8648 110.832 50.9116 109.999 49.093C108.147 52.2521 107.036 59.4313 106.758 60.0054Z" fill="#01579B"/>
<path fill-rule="evenodd" clip-rule="evenodd" d="M106.784 77.1353C106.784 77.9134 117.293 78.5942 121.974 70.4247C125.604 64.0056 127.993 63.4222 129.999 62.2551C116.146 62.3525 106.784 75.093 106.784 77.1353H106.784Z" fill="#357A38"/>
<path fill-rule="evenodd" clip-rule="evenodd" d="M111.943 58.8707C111.051 59.7366 110.951 60.9877 110.356 61.95C109.662 62.9123 108.67 63.2971 108.372 64.7406C108.273 65.4142 108.372 65.9917 108.174 66.5689C107.975 67.3388 107.578 68.0124 107.38 68.7819C107.281 69.3595 107.38 69.9367 107.281 70.4178C107.082 71.9573 104.305 74.0744 106.09 75.7103C105.793 76.9614 105.991 77.4425 106.686 77.5385C108.174 77.8273 108.273 76.2874 108.67 75.6139C109.166 74.7479 110.257 74.2668 110.555 73.0157C110.654 72.3421 110.455 71.5722 110.555 70.995C110.654 70.5139 111.15 70.4175 111.447 70.0327C112.241 69.1667 112.439 68.012 112.439 66.9533C112.539 66.2798 112.142 65.2211 112.241 64.6439C112.539 63.5855 113.729 63.3928 113.63 61.7569C113.63 61.2758 113.233 60.6022 113.332 60.121C113.431 59.6399 113.828 59.3511 114.026 58.8699C114.721 57.7152 114.324 56.2717 114.522 55.021C113.63 56.3688 112.935 57.812 111.943 58.8707V58.8707Z" fill="#03ACF2"/>
<path fill-rule="evenodd" clip-rule="evenodd" d="M107.636 69.6831C106.291 69.9723 104.946 71.7068 104.465 73.3451C104.273 72.4779 104.081 71.6103 103.888 70.743C104.561 69.5866 106.291 69.3939 106.867 68.0448C107.54 66.5991 106.195 65.5392 104.945 66.6957C104.368 67.1775 103.888 68.5267 103.6 69.6831C103.503 69.0085 103.311 68.1413 103.215 67.5629C103.119 66.9845 103.023 66.503 102.927 65.9246C103.792 64.9608 106.098 64.3827 105.906 62.5517C105.714 61.2988 104.272 60.7207 103.6 62.0699C103.215 62.7444 102.927 63.7082 102.735 64.6719C102.446 63.7082 102.254 62.6483 101.87 61.6845C102.831 60.4315 105.522 59.9496 105.618 58.1186C105.618 56.5768 103.792 56.7695 102.927 57.7332C102.158 58.697 101.966 60.0462 101.774 61.2991C101.486 60.528 101.293 59.8535 101.005 59.1789C101.678 58.0225 103.312 56.9625 103.312 55.3242C103.312 53.7824 101.678 52.5294 100.717 54.3604C100.236 55.3242 100.236 56.5768 100.428 57.7332C100.044 56.9622 99.6593 56.1914 99.2749 55.4204C99.3712 54.9385 99.4671 54.2639 99.7555 53.5893C100.044 52.8182 100.524 52.0475 100.236 51.2764C99.7555 49.9273 98.8906 50.8911 98.6022 51.951C98.4101 52.7221 98.506 53.5893 98.7944 54.3604C98.3138 53.4932 97.5448 52.3367 96.9684 51.5656C97.0646 50.0238 99.7555 46.2653 97.2568 46.8433C96.0072 47.1325 96.1997 49.6381 96.584 50.9872C96.2956 50.6019 95.527 49.6381 95.4307 49.5416C95.527 48.2886 96.584 44.1447 94.758 44.4339C93.3163 44.6266 93.989 46.9395 94.3737 48.0959C94.47 48.1924 94.47 48.4813 94.5659 48.6743C94.0853 48.0959 93.5088 47.4214 92.932 46.8433C93.1242 46.3614 93.2204 45.6869 93.3163 45.0123C93.3163 44.5304 93.2201 42.6029 92.2593 43.5667C91.875 43.952 92.0671 45.3015 92.3555 46.2649C91.9712 45.8795 91.4907 45.4938 91.106 45.1085C88.4151 42.0245 88.8956 37.0133 86.2044 38.1698C83.1288 39.6154 84.7627 42.0245 85.8201 42.7956C86.685 43.4701 88.4151 44.4339 90.2411 44.9158C90.7217 45.3977 92.5477 47.3252 92.7399 47.614C91.0097 46.3611 87.5498 43.952 86.9734 45.9757C86.4928 47.8067 91.3944 47.7106 93.1242 48.0959C93.7969 48.867 95.4307 50.9872 95.527 51.1799C94.758 50.698 93.9894 49.8308 93.0283 49.5416C92.2593 49.3489 90.4333 49.4451 90.7217 50.5054C91.106 51.951 93.3167 51.5653 94.47 51.5653C95.239 51.5653 95.7195 51.8545 95.9117 51.6618C96.6807 52.7217 97.3534 53.8782 98.0261 55.0346C96.7766 53.7817 93.6051 51.2761 92.9324 53.2998C92.0675 55.9019 96.4885 54.7454 98.2183 55.3235C98.891 56.4799 99.4678 57.7329 99.9484 58.9855V58.9855C99.0835 57.9256 98.4108 56.8653 97.065 56.2872C95.9117 55.7088 94.0857 55.8053 94.5662 57.7329C94.9505 59.1785 97.4497 58.6967 98.7951 59.082C99.3719 59.2747 99.8521 59.5639 100.141 59.6604C100.621 60.8169 101.005 61.9733 101.294 63.2263C98.891 62.0699 96.0079 57.444 94.8546 60.2388C93.8935 62.6483 98.6988 61.7806 101.39 63.7082C101.679 64.7681 101.967 65.9246 102.159 67.081C101.679 66.2138 101.006 65.5392 100.333 64.8646C99.8525 64.2862 97.6422 62.9371 97.2575 64.5754C96.8732 66.1172 99.5641 66.5991 100.429 66.7918C101.198 66.9845 101.774 67.3702 102.255 67.9483C102.255 68.1409 102.736 70.743 103.024 71.803C102.063 70.0681 96.0079 64.4789 95.3352 68.6228C94.8546 71.3211 100.141 70.4538 101.486 71.0322C102.447 71.4176 102.831 71.8033 103.12 72.2852C103.216 72.8636 103.408 73.5382 103.6 74.1162C102.159 72.6706 98.7951 70.0685 98.2183 72.8633C97.4493 76.2361 101.39 74.3089 102.255 74.5016C103.024 74.6943 103.889 74.6943 104.081 75.658C104.369 76.3326 104.562 77.1037 104.946 77.7783C105.138 78.2602 105.907 77.8748 105.715 77.3929C105.331 76.4291 105.042 75.4654 104.754 74.4054C105.715 73.3455 108.31 72.6706 108.983 71.8033C109.847 70.4542 109.174 69.2977 107.636 69.6831V69.6831Z" fill="#F8BBD0"/>
</svg>
