<svg width="176" height="174" viewBox="0 0 176 174" fill="none" xmlns="http://www.w3.org/2000/svg">
<path d="M35.323 105.5H24.9104C24.2213 105.5 23.7387 104.819 23.9668 104.169L59.5614 2.67621C60.1237 1.07309 61.6372 0 63.336 0H112.189C113.876 0 115.381 1.05778 115.953 2.64449L152.036 102.822C152.505 104.126 151.539 105.5 150.154 105.5H113.167C111.873 105.5 110.726 104.671 110.319 103.443L88.8981 38.7337C88.2928 36.9053 85.7065 36.905 85.1008 38.7333L62.2555 107.7C61.6652 109.483 59.1665 109.543 58.4909 107.791L47.9161 80.375C47.5891 79.5272 46.3921 79.5198 46.0546 80.3635L36.2514 104.871C36.0996 105.251 35.7319 105.5 35.323 105.5Z" fill="white"/>
<path d="M0.925456 168.646L19.0241 118.323C19.3096 117.529 20.0625 117 20.9061 117H39.4139C39.7758 117 40.1095 116.804 40.2864 116.489L46.0183 106.253C46.4217 105.533 47.4751 105.584 47.8067 106.34L61.4641 137.496C62.0117 138.745 63.8074 138.675 64.2549 137.386L88 69L102.829 114.922C103.229 116.161 104.382 117 105.684 117H155.356C156.638 117 157.779 117.815 158.194 119.029L175.189 168.705C176.077 171.301 174.147 174 171.404 174H124.454C123.266 174 122.19 173.299 121.71 172.212L113.527 153.692C113.206 152.967 112.489 152.5 111.697 152.5H62.0183C61.1208 152.5 60.3331 153.098 60.0919 153.962L55.1122 171.806C54.7503 173.103 53.5689 174 52.2226 174H4.68943C1.91954 174 -0.0119482 171.253 0.925456 168.646Z" fill="white"/>
</svg>
